Enclosed-Medium.sfdir
StartChar: uF1D83
Encoding: 990595 990595 1
Width: 1000
VWidth: 1000
Flags: MW
LayerCount: 2
Fore
SplineSet
365 492 m 1
 365 518 l 1
 369 518 l 1
 393 518 461 519 510 560 c 0
 513 563 514 564 518 566 c 1
 536 566 536 562 536 544 c 2
 536 121 l 1
 536 110 537 102 546 98 c 1
 554 95 594 94 617 94 c 1
 635 94 l 1
 635 68 l 1
 607 70 537 70 504 70 c 0
 471 70 399 70 371 68 c 1
 371 94 l 1
 389 94 l 1
 417 94 457 96 464 100 c 1
 470 104 472 111 472 121 c 1
 472 510 l 1
 430 494 385 492 369 492 c 1
 365 492 l 1
50 300 m 0
 50 555 246 770 500 770 c 0
 741 770 950 566 950 300 c 0
 950 46 754 -170 500 -170 c 0
 259 -170 50 34 50 300 c 0
95 299 m 0
 95 67 276 -125 499 -125 c 0
 721 -125 905 62 905 300 c 0
 905 533 725 725 501 725 c 0
 282 725 95 542 95 299 c 0
EndSplineSet
EndChar
StartChar: uF1D84
Encoding: 990596 990596 2
Width: 1000
VWidth: 1000
Flags: MW
LayerCount: 2
Fore
SplineSet
316 68 m 1
 316 72 316 78 316 80 c 2
 316 90 316 92 324 98 c 2
 520 258 l 2
 583 306 603 362 603 420 c 0
 603 480 565 540 468 540 c 0
 428 540 397 528 375 507 c 0
 367 499 359 487 354 475 c 1
 356 475 359 475 364 475 c 0
 387 473 403 456 403 433 c 0
 403 400 374 390 358 390 c 0
 352 390 316 393 316 435 c 0
 316 448 318 462 322 474 c 0
 328 491 340 506 355 520 c 0
 383 547 426 566 484 566 c 0
 612 566 684 506 684 420 c 0
 684 346 660 308 519 214 c 1
 509 208 419 142 408 135 c 1
 559 135 l 2
 581 135 637 134 643 140 c 1
 653 150 657 188 661 208 c 1
 684 208 l 1
 663 68 l 1
 316 68 l 1
50 300 m 0
 50 555 246 770 500 770 c 0
 741 770 950 566 950 300 c 0
 950 46 754 -170 500 -170 c 0
 259 -170 50 34 50 300 c 0
95 299 m 0
 95 67 276 -125 499 -125 c 0
 721 -125 905 62 905 300 c 0
 905 533 725 725 501 725 c 0
 282 725 95 542 95 299 c 0
EndSplineSet
EndChar
StartChar: uF1D85
Encoding: 990597 990597 3
Width: 1000
VWidth: 1000
Flags: MW
LayerCount: 2
Fore
SplineSet
306 168 m 0
 306 202 330 214 352 214 c 0
 377 214 397 198 397 169 c 0
 397 140 376 123 350 124 c 1
 378 86 446 75 488 75 c 0
 550 75 607 111 607 196 c 0
 607 261 575 317 481 317 c 2
 433 317 l 2
 414 317 408 317 408 327 c 0
 408 334 413 335 422 336 c 0
 429 336 450 338 466 339 c 0
 496 340 531 345 560 377 c 1
 588 409 590 452 590 460 c 0
 590 517 543 541 489 541 c 0
 458 541 409 535 380 514 c 0
 374 510 370 506 366 500 c 1
 375 500 416 498 416 458 c 0
 416 434 395 417 369 417 c 0
 345 417 328 433 328 460 c 0
 328 486 339 509 362 527 c 0
 389 549 433 563 493 563 c 0
 605 563 672 520 672 459 c 0
 672 399 626 348 548 329 c 1
 652 311 694 253 694 196 c 0
 694 122 629 51 491 51 c 0
 424 51 374 67 343 95 c 0
 319 114 306 139 306 168 c 0
50 300 m 0
 50 555 246 770 500 770 c 0
 741 770 950 566 950 300 c 0
 950 46 754 -170 500 -170 c 0
 259 -170 50 34 50 300 c 0
95 299 m 0
 95 67 276 -125 499 -125 c 0
 721 -125 905 62 905 300 c 0
 905 533 725 725 501 725 c 0
 282 725 95 542 95 299 c 0
EndSplineSet
EndChar
StartChar: uF1D86
Encoding: 990598 990598 4
Width: 1000
VWidth: 1000
Flags: MW
LayerCount: 2
Fore
SplineSet
302 191 m 1
 302 218 l 1
 592 563 l 2
 599 573 600 572 609 572 c 0
 623 572 624 568 624 552 c 2
 624 218 l 1
 698 218 l 1
 698 191 l 1
 624 191 l 1
 624 122 l 1
 624 111 623 104 631 100 c 1
 637 97 666 95 685 95 c 1
 696 95 l 1
 696 69 l 1
 666 71 621 71 589 71 c 0
 555 71 490 71 446 69 c 1
 446 95 l 1
 464 95 l 1
 499 95 541 97 549 103 c 1
 554 107 555 114 555 122 c 1
 555 191 l 1
 302 191 l 1
327 218 m 1
 562 218 l 1
 562 485 l 1
 327 218 l 1
50 300 m 0
 50 555 246 770 500 770 c 0
 741 770 950 566 950 300 c 0
 950 46 754 -170 500 -170 c 0
 259 -170 50 34 50 300 c 0
95 299 m 0
 95 67 276 -125 499 -125 c 0
 721 -125 905 62 905 300 c 0
 905 533 725 725 501 725 c 0
 282 725 95 542 95 299 c 0
EndSplineSet
EndChar
StartChar: uF1D8C
Encoding: 990604 990604 10
Width: 1000
Flags: MW
LayerCount: 2
Fore
SplineSet
535 305 m 0
 535 362 537 428 566 482 c 1
 595 542 646 563 694 563 c 0
 730 563 785 549 816 489 c 0
 848 433 851 363 851 305 c 0
 851 248 848 181 818 128 c 0
 788 68 736 51 693 51 c 0
 652 51 602 67 572 120 c 0
 537 177 535 251 535 305 c 0
603 315 m 0
 603 272 602 200 610 156 c 0
 622 88 665 70 693 70 c 0
 723 70 766 89 776 160 c 0
 783 206 783 263 783 315 c 0
 783 366 784 428 775 466 c 0
 761 530 718 544 693 544 c 0
 675 544 621 538 609 454 c 0
 603 414 603 365 603 315 c 0
195 489 m 1
 195 515 l 1
 198 515 l 1
 222 515 284 517 329 558 c 0
 332 561 332 561 336 563 c 1
 353 563 354 560 354 542 c 2
 354 119 l 1
 354 98 378 92 429 92 c 1
 447 92 l 1
 447 65 l 1
 421 67 354 68 324 68 c 0
 294 68 226 67 200 65 c 1
 200 92 l 1
 218 92 l 1
 269 92 293 99 293 119 c 1
 293 507 l 1
 257 491 214 489 198 489 c 1
 195 489 l 1
50 300 m 0
 50 555 246 770 500 770 c 0
 741 770 950 566 950 300 c 0
 950 46 754 -170 500 -170 c 0
 259 -170 50 34 50 300 c 0
95 299 m 0
 95 67 276 -125 499 -125 c 0
 721 -125 905 62 905 300 c 0
 905 533 725 725 501 725 c 0
 282 725 95 542 95 299 c 0
EndSplineSet
EndChar
StartChar: uF1D8D
Encoding: 990605 990605 11
Width: 1000
Flags: MW
LayerCount: 2
Fore
SplineSet
565 492 m 1
 565 518 l 1
 568 518 l 1
 592 518 655 519 700 560 c 0
 703 563 703 564 707 566 c 1
 724 566 724 562 724 544 c 2
 724 121 l 1
 724 100 748 94 799 94 c 1
 817 94 l 1
 817 68 l 1
 791 70 724 70 694 70 c 0
 664 70 596 70 570 68 c 1
 570 94 l 1
 588 94 l 1
 639 94 663 101 663 121 c 1
 663 510 l 1
 627 494 584 492 568 492 c 1
 565 492 l 1
190 492 m 1
 190 518 l 1
 193 518 l 1
 217 518 279 519 324 560 c 0
 327 563 328 564 332 566 c 1
 349 566 348 562 348 544 c 2
 348 121 l 1
 348 100 373 94 424 94 c 1
 442 94 l 1
 442 68 l 1
 416 70 349 70 319 70 c 0
 289 70 221 70 195 68 c 1
 195 94 l 1
 213 94 l 1
 264 94 288 101 288 121 c 1
 288 510 l 1
 252 494 209 492 193 492 c 1
 190 492 l 1
50 300 m 0
 50 555 246 770 500 770 c 0
 741 770 950 566 950 300 c 0
 950 46 754 -170 500 -170 c 0
 259 -170 50 34 50 300 c 0
95 299 m 0
 95 67 276 -125 499 -125 c 0
 721 -125 905 62 905 300 c 0
 905 533 725 725 501 725 c 0
 282 725 95 542 95 299 c 0
EndSplineSet
EndChar
StartChar: uF1D8E
Encoding: 990606 990606 12
Width: 1000
VWidth: 1000
Flags: MW
LayerCount: 2
Fore
SplineSet
542 68 m 1
 542 72 542 78 542 80 c 2
 542 90 544 91 550 98 c 2
 690 258 l 2
 732 306 767 362 767 420 c 0
 767 480 736 540 671 540 c 0
 632 540 596 516 578 475 c 1
 580 475 582 475 587 475 c 0
 610 473 624 456 624 433 c 0
 624 400 598 390 583 390 c 0
 577 390 542 393 542 435 c 0
 542 502 598 566 682 566 c 0
 774 566 842 506 842 420 c 0
 842 346 797 308 691 214 c 1
 684 208 616 142 608 135 c 1
 733 135 l 2
 747 135 797 134 803 140 c 1
 811 150 816 188 820 208 c 1
 842 208 l 1
 820 68 l 1
 542 68 l 1
193 492 m 1
 193 518 l 1
 196 518 l 1
 220 518 283 519 328 560 c 0
 331 563 331 564 335 566 c 1
 352 566 352 562 352 544 c 2
 352 121 l 1
 352 100 377 94 428 94 c 1
 446 94 l 1
 446 68 l 1
 420 70 352 70 322 70 c 0
 292 70 224 70 198 68 c 1
 198 94 l 1
 216 94 l 1
 267 94 292 101 292 121 c 1
 292 510 l 1
 256 494 212 492 196 492 c 1
 193 492 l 1
50 300 m 0
 50 555 246 770 500 770 c 0
 741 770 950 566 950 300 c 0
 950 46 754 -170 500 -170 c 0
 259 -170 50 34 50 300 c 0
95 299 m 0
 95 67 276 -125 499 -125 c 0
 721 -125 905 62 905 300 c 0
 905 533 725 725 501 725 c 0
 282 725 95 542 95 299 c 0
EndSplineSet
EndChar
StartChar: uF1D93
Encoding: 990611 990611 17
Width: 1000
Flags: MW
LayerCount: 2
Fore
SplineSet
551 410 m 1
 575 574 l 1
 597 574 l 1
 599 565 600 558 620 554 c 1
 633 552 674 550 703 550 c 2
 873 550 l 1
 873 532 873 530 866 521 c 2
 765 381 l 2
 735 339 723 279 719 254 c 0
 713 215 711 174 711 134 c 2
 711 96 l 2
 711 78 704 52 676 52 c 0
 650 52 639 77 639 96 c 0
 639 181 669 285 736 382 c 1
 748 401 802 474 808 483 c 1
 664 483 l 2
 654 483 597 482 591 478 c 0
 583 471 575 433 572 410 c 1
 551 410 l 1
198 490 m 1
 198 516 l 1
 201 516 l 1
 225 516 287 518 332 559 c 0
 335 562 336 562 340 564 c 1
 357 564 357 562 357 544 c 2
 357 120 l 1
 357 99 381 93 432 93 c 1
 450 93 l 1
 450 67 l 1
 424 69 356 69 326 69 c 0
 296 69 230 69 204 67 c 1
 204 93 l 1
 222 93 l 1
 273 93 296 100 296 120 c 1
 296 509 l 1
 260 493 217 490 201 490 c 1
 198 490 l 1
50 300 m 0
 50 555 246 770 500 770 c 0
 741 770 950 566 950 300 c 0
 950 46 754 -170 500 -170 c 0
 259 -170 50 34 50 300 c 0
95 299 m 0
 95 67 276 -125 499 -125 c 0
 721 -125 905 62 905 300 c 0
 905 533 725 725 501 725 c 0
 282 725 95 542 95 299 c 0
EndSplineSet
EndChar
StartChar: uF1F87
Encoding: 991111 991111 1714
Width: 1000
VWidth: 1000
Flags: MW
LayerCount: 2
Fore
SplineSet
49 300 m 0
 49 384 61 495 112 605 c 0
 171 732 261 800 271 800 c 0
 277 800 281 797 281 790 c 0
 281 787 281 785 268 773 c 0
 145 648 107 474 107 300 c 0
 107 223 115 137 139 54 c 0
 162 -28 202 -106 264 -168 c 0
 281 -185 281 -187 281 -190 c 0
 281 -197 277 -200 271 -200 c 0
 261 -200 175 -135 115 -12 c 0
 60 101 49 222 49 300 c 0
720 -190 m 0
 720 -187 720 -185 733 -173 c 0
 857 -47 894 129 894 300 c 0
 894 509 837 668 739 767 c 0
 720 785 720 787 720 790 c 0
 720 796 724 800 730 800 c 0
 740 800 826 735 886 612 c 0
 941 499 952 378 952 300 c 0
 952 216 940 105 889 -5 c 0
 830 -132 740 -200 730 -200 c 0
 724 -200 720 -196 720 -190 c 0
365 492 m 1
 365 518 l 1
 369 518 l 1
 393 518 461 519 510 560 c 0
 513 563 514 564 518 566 c 1
 536 566 536 562 536 544 c 2
 536 121 l 1
 536 110 537 102 546 98 c 1
 554 95 594 94 617 94 c 1
 635 94 l 1
 635 68 l 1
 607 70 537 70 504 70 c 0
 471 70 399 70 371 68 c 1
 371 94 l 1
 389 94 l 1
 417 94 457 96 464 100 c 1
 470 104 472 111 472 121 c 1
 472 510 l 1
 430 494 385 492 369 492 c 1
 365 492 l 1
EndSplineSet
EndChar
StartChar: uF1F88
Encoding: 991112 991112 1715
Width: 1000
VWidth: 1000
Flags: MW
LayerCount: 2
Fore
SplineSet
49 300 m 0
 49 384 61 495 112 605 c 0
 171 732 261 800 271 800 c 0
 277 800 281 797 281 790 c 0
 281 787 281 785 268 773 c 0
 145 648 107 474 107 300 c 0
 107 223 115 137 139 54 c 0
 162 -28 202 -106 264 -168 c 0
 281 -185 281 -187 281 -190 c 0
 281 -197 277 -200 271 -200 c 0
 261 -200 175 -135 115 -12 c 0
 60 101 49 222 49 300 c 0
720 -190 m 0
 720 -187 720 -185 733 -173 c 0
 857 -47 894 129 894 300 c 0
 894 509 837 668 739 767 c 0
 720 785 720 787 720 790 c 0
 720 796 724 800 730 800 c 0
 740 800 826 735 886 612 c 0
 941 499 952 378 952 300 c 0
 952 216 940 105 889 -5 c 0
 830 -132 740 -200 730 -200 c 0
 724 -200 720 -196 720 -190 c 0
316 68 m 1
 316 72 316 78 316 80 c 2
 316 90 316 92 324 98 c 2
 520 258 l 2
 583 306 603 362 603 420 c 0
 603 480 565 540 468 540 c 0
 428 540 397 528 375 507 c 0
 367 499 359 487 354 475 c 1
 356 475 359 475 364 475 c 0
 387 473 403 456 403 433 c 0
 403 400 374 390 358 390 c 0
 352 390 316 393 316 435 c 0
 316 448 318 462 322 474 c 0
 328 491 340 506 355 520 c 0
 383 547 426 566 484 566 c 0
 612 566 684 506 684 420 c 0
 684 346 660 308 519 214 c 1
 509 208 419 142 408 135 c 1
 559 135 l 2
 581 135 637 134 643 140 c 1
 653 150 657 188 661 208 c 1
 684 208 l 1
 663 68 l 1
 316 68 l 1
EndSplineSet
EndChar
StartChar: uF1F89
Encoding: 991113 991113 1716
Width: 1000
Flags: MW
LayerCount: 2
Fore
SplineSet
49 300 m 0
 49 384 61 495 112 605 c 0
 171 732 261 800 271 800 c 0
 277 800 281 797 281 790 c 0
 281 787 281 785 268 773 c 0
 145 648 107 474 107 300 c 0
 107 223 115 137 139 54 c 0
 162 -28 202 -106 264 -168 c 0
 281 -185 281 -187 281 -190 c 0
 281 -197 277 -200 271 -200 c 0
 261 -200 175 -135 115 -12 c 0
 60 101 49 222 49 300 c 0
720 -190 m 0
 720 -187 720 -185 733 -173 c 0
 857 -47 894 129 894 300 c 0
 894 509 837 668 739 767 c 0
 720 785 720 787 720 790 c 0
 720 796 724 800 730 800 c 0
 740 800 826 735 886 612 c 0
 941 499 952 378 952 300 c 0
 952 216 940 105 889 -5 c 0
 830 -132 740 -200 730 -200 c 0
 724 -200 720 -196 720 -190 c 0
306 168 m 0
 306 202 330 214 352 214 c 0
 377 214 397 198 397 169 c 0
 397 140 376 123 350 124 c 1
 378 86 446 75 488 75 c 0
 550 75 607 111 607 196 c 0
 607 261 575 317 481 317 c 2
 433 317 l 2
 414 317 408 317 408 327 c 0
 408 334 413 335 422 336 c 0
 429 336 450 338 466 339 c 0
 496 340 531 345 560 377 c 1
 588 409 590 452 590 460 c 0
 590 517 543 541 489 541 c 0
 458 541 409 535 380 514 c 0
 374 510 370 506 366 500 c 1
 375 500 416 498 416 458 c 0
 416 434 395 417 369 417 c 0
 345 417 328 433 328 460 c 0
 328 486 339 509 362 527 c 0
 389 549 433 563 493 563 c 0
 605 563 672 520 672 459 c 0
 672 399 626 348 548 329 c 1
 652 311 694 253 694 196 c 0
 694 122 629 51 491 51 c 0
 424 51 374 67 343 95 c 0
 319 114 306 139 306 168 c 0
EndSplineSet
EndChar
StartChar: uF1F8A
Encoding: 991114 991114 1717
Width: 1000
Flags: MW
LayerCount: 2
Fore
SplineSet
49 300 m 0
 49 384 61 495 112 605 c 0
 171 732 261 800 271 800 c 0
 277 800 281 797 281 790 c 0
 281 787 281 785 268 773 c 0
 145 648 107 474 107 300 c 0
 107 223 115 137 139 54 c 0
 162 -28 202 -106 264 -168 c 0
 281 -185 281 -187 281 -190 c 0
 281 -197 277 -200 271 -200 c 0
 261 -200 175 -135 115 -12 c 0
 60 101 49 222 49 300 c 0
720 -190 m 0
 720 -187 720 -185 733 -173 c 0
 857 -47 894 129 894 300 c 0
 894 509 837 668 739 767 c 0
 720 785 720 787 720 790 c 0
 720 796 724 800 730 800 c 0
 740 800 826 735 886 612 c 0
 941 499 952 378 952 300 c 0
 952 216 940 105 889 -5 c 0
 830 -132 740 -200 730 -200 c 0
 724 -200 720 -196 720 -190 c 0
302 191 m 1
 302 218 l 1
 592 563 l 2
 599 573 600 572 609 572 c 0
 623 572 624 568 624 552 c 2
 624 218 l 1
 698 218 l 1
 698 191 l 1
 624 191 l 1
 624 122 l 1
 624 111 623 104 631 100 c 1
 637 97 666 95 685 95 c 1
 696 95 l 1
 696 69 l 1
 666 71 621 71 589 71 c 0
 555 71 490 71 446 69 c 1
 446 95 l 1
 464 95 l 1
 499 95 541 97 549 103 c 1
 554 107 555 114 555 122 c 1
 555 191 l 1
 302 191 l 1
327 218 m 1
 562 218 l 1
 562 485 l 1
 327 218 l 1
EndSplineSet
EndChar
StartChar: uF1F8B
Encoding: 991115 991115 1718
Width: 1000
VWidth: 1000
Flags: MW
LayerCount: 2
Fore
SplineSet
49 300 m 0
 49 384 61 495 112 605 c 0
 171 732 261 800 271 800 c 0
 277 800 281 797 281 790 c 0
 281 787 281 785 268 773 c 0
 145 648 107 474 107 300 c 0
 107 223 115 137 139 54 c 0
 162 -28 202 -106 264 -168 c 0
 281 -185 281 -187 281 -190 c 0
 281 -197 277 -200 271 -200 c 0
 261 -200 175 -135 115 -12 c 0
 60 101 49 222 49 300 c 0
720 -190 m 0
 720 -187 720 -185 733 -173 c 0
 857 -47 894 129 894 300 c 0
 894 509 837 668 739 767 c 0
 720 785 720 787 720 790 c 0
 720 796 724 800 730 800 c 0
 740 800 826 735 886 612 c 0
 941 499 952 378 952 300 c 0
 952 216 940 105 889 -5 c 0
 830 -132 740 -200 730 -200 c 0
 724 -200 720 -196 720 -190 c 0
311 186 m 0
 311 223 341 229 351 229 c 0
 374 229 392 212 392 188 c 0
 392 168 378 150 352 149 c 1
 346 149 344 149 342 150 c 1
 346 140 351 130 359 121 c 0
 383 93 423 75 474 75 c 0
 523 75 560 92 584 118 c 1
 612 149 612 192 612 220 c 0
 612 258 610 290 592 317 c 0
 582 331 557 359 505 359 c 0
 427 359 386 327 373 309 c 0
 369 305 367 302 361 302 c 0
 349 302 349 308 349 322 c 2
 349 544 l 2
 349 556 350 562 358 562 c 0
 360 562 361 562 367 560 c 0
 405 546 453 539 505 539 c 0
 571 539 621 552 643 561 c 0
 648 563 649 563 650 563 c 0
 656 563 659 558 659 554 c 0
 659 542 597 469 459 469 c 0
 424 469 393 474 376 478 c 1
 376 343 l 1
 411 369 461 379 508 379 c 0
 628 379 689 304 689 216 c 0
 689 122 610 51 477 51 c 0
 411 51 366 76 340 108 c 0
 329 122 321 137 316 152 c 0
 312 163 311 175 311 186 c 0
EndSplineSet
EndChar
StartChar: uF1F8C
Encoding: 991116 991116 1719
Width: 1000
VWidth: 1000
Flags: MW
LayerCount: 2
Fore
SplineSet
49 300 m 0
 49 384 61 495 112 605 c 0
 171 732 261 800 271 800 c 0
 277 800 281 797 281 790 c 0
 281 787 281 785 268 773 c 0
 145 648 107 474 107 300 c 0
 107 223 115 137 139 54 c 0
 162 -28 202 -106 264 -168 c 0
 281 -185 281 -187 281 -190 c 0
 281 -197 277 -200 271 -200 c 0
 261 -200 175 -135 115 -12 c 0
 60 101 49 222 49 300 c 0
720 -190 m 0
 720 -187 720 -185 733 -173 c 0
 857 -47 894 129 894 300 c 0
 894 509 837 668 739 767 c 0
 720 785 720 787 720 790 c 0
 720 796 724 800 730 800 c 0
 740 800 826 735 886 612 c 0
 941 499 952 378 952 300 c 0
 952 216 940 105 889 -5 c 0
 830 -132 740 -200 730 -200 c 0
 724 -200 720 -196 720 -190 c 0
300 303 m 0
 300 475 421 563 561 563 c 0
 602 563 630 553 649 539 c 0
 670 524 680 503 680 479 c 0
 680 450 658 440 642 440 c 0
 621 440 596 454 596 478 c 0
 596 509 631 513 646 514 c 1
 630 538 587 541 563 541 c 0
 523 541 463 527 423 483 c 0
 397 456 377 410 377 331 c 2
 377 314 l 1
 403 355 448 384 510 384 c 0
 630 384 700 317 700 219 c 0
 700 120 626 51 502 51 c 0
 438 51 369 70 336 130 c 1
 313 172 300 230 300 303 c 0
379 232 m 0
 379 218 379 159 398 127 c 0
 405 116 437 75 502 75 c 0
 534 75 578 82 606 122 c 0
 624 148 623 184 623 220 c 0
 623 258 623 294 605 321 c 0
 577 361 531 365 507 365 c 0
 418 365 379 299 379 232 c 0
EndSplineSet
EndChar
StartChar: uF1F8D
Encoding: 991117 991117 1720
Width: 1000
Flags: MW
LayerCount: 2
Fore
SplineSet
49 300 m 0
 49 384 61 495 112 605 c 0
 171 732 261 800 271 800 c 0
 277 800 281 797 281 790 c 0
 281 787 281 785 268 773 c 0
 145 648 107 474 107 300 c 0
 107 223 115 137 139 54 c 0
 162 -28 202 -106 264 -168 c 0
 281 -185 281 -187 281 -190 c 0
 281 -197 277 -200 271 -200 c 0
 261 -200 175 -135 115 -12 c 0
 60 101 49 222 49 300 c 0
720 -190 m 0
 720 -187 720 -185 733 -173 c 0
 857 -47 894 129 894 300 c 0
 894 509 837 668 739 767 c 0
 720 785 720 787 720 790 c 0
 720 796 724 800 730 800 c 0
 740 800 826 735 886 612 c 0
 941 499 952 378 952 300 c 0
 952 216 940 105 889 -5 c 0
 830 -132 740 -200 730 -200 c 0
 724 -200 720 -196 720 -190 c 0
304 410 m 1
 328 574 l 1
 351 574 l 1
 353 565 354 558 374 554 c 1
 387 552 439 550 483 550 c 2
 696 550 l 1
 696 532 692 529 684 521 c 2
 564 381 l 2
 524 334 510 291 504 267 c 0
 489 223 484 174 484 134 c 2
 484 96 l 2
 484 86 482 71 472 62 c 0
 466 56 457 52 447 52 c 0
 437 52 428 56 422 62 c 0
 412 71 409 86 409 96 c 0
 409 206 462 298 542 398 c 2
 610 483 l 1
 429 483 l 2
 415 483 351 482 345 478 c 0
 337 471 330 433 326 410 c 1
 304 410 l 1
EndSplineSet
EndChar
StartChar: uF1F8E
Encoding: 991118 991118 1721
Width: 1000
Flags: MW
LayerCount: 2
Fore
SplineSet
49 300 m 0
 49 384 61 495 112 605 c 0
 171 732 261 800 271 800 c 0
 277 800 281 797 281 790 c 0
 281 787 281 785 268 773 c 0
 145 648 107 474 107 300 c 0
 107 223 115 137 139 54 c 0
 162 -28 202 -106 264 -168 c 0
 281 -185 281 -187 281 -190 c 0
 281 -197 277 -200 271 -200 c 0
 261 -200 175 -135 115 -12 c 0
 60 101 49 222 49 300 c 0
720 -190 m 0
 720 -187 720 -185 733 -173 c 0
 857 -47 894 129 894 300 c 0
 894 509 837 668 739 767 c 0
 720 785 720 787 720 790 c 0
 720 796 724 800 730 800 c 0
 740 800 826 735 886 612 c 0
 941 499 952 378 952 300 c 0
 952 216 940 105 889 -5 c 0
 830 -132 740 -200 730 -200 c 0
 724 -200 720 -196 720 -190 c 0
288 181 m 0
 288 251 355 292 421 316 c 1
 394 328 358 344 346 354 c 0
 311 387 308 420 308 436 c 0
 308 506 385 563 501 563 c 0
 604 563 692 523 692 452 c 0
 692 404 651 366 575 338 c 1
 635 313 655 305 676 288 c 0
 702 258 712 226 712 195 c 0
 712 115 632 51 499 51 c 0
 380 51 288 98 288 181 c 0
332 181 m 0
 332 120 405 75 501 75 c 0
 583 75 668 107 668 165 c 0
 668 209 621 229 587 244 c 1
 574 250 458 298 450 302 c 1
 370 272 332 229 332 181 c 0
354 469 m 0
 354 453 363 430 406 412 c 2
 546 352 l 1
 607 377 646 409 646 451 c 0
 646 504 580 541 499 541 c 0
 429 541 354 517 354 469 c 0
EndSplineSet
EndChar
StartChar: uF1F8F
Encoding: 991119 991119 1722
Width: 1000
Flags: MW
LayerCount: 2
Fore
SplineSet
49 300 m 0
 49 384 61 495 112 605 c 0
 171 732 261 800 271 800 c 0
 277 800 281 797 281 790 c 0
 281 787 281 785 268 773 c 0
 145 648 107 474 107 300 c 0
 107 223 115 137 139 54 c 0
 162 -28 202 -106 264 -168 c 0
 281 -185 281 -187 281 -190 c 0
 281 -197 277 -200 271 -200 c 0
 261 -200 175 -135 115 -12 c 0
 60 101 49 222 49 300 c 0
720 -190 m 0
 720 -187 720 -185 733 -173 c 0
 857 -47 894 129 894 300 c 0
 894 509 837 668 739 767 c 0
 720 785 720 787 720 790 c 0
 720 796 724 800 730 800 c 0
 740 800 826 735 886 612 c 0
 941 499 952 378 952 300 c 0
 952 216 940 105 889 -5 c 0
 830 -132 740 -200 730 -200 c 0
 724 -200 720 -196 720 -190 c 0
300 396 m 0
 300 451 318 486 350 518 c 1
 387 550 442 563 504 563 c 0
 628 563 700 476 700 312 c 0
 700 143 590 51 445 51 c 0
 406 51 376 59 356 71 c 0
 332 85 320 108 320 135 c 0
 320 164 342 174 358 174 c 0
 377 174 395 160 395 136 c 0
 395 118 384 99 357 99 c 1
 361 94 367 91 373 88 c 0
 396 76 429 75 444 75 c 0
 490 75 545 92 581 134 c 0
 606 164 623 211 623 279 c 2
 623 301 l 1
 595 255 550 231 490 231 c 0
 369 231 300 300 300 396 c 0
377 395 m 0
 377 357 378 321 396 294 c 0
 424 254 468 250 492 250 c 0
 586 250 622 324 622 382 c 0
 622 414 618 461 605 485 c 0
 589 513 557 541 504 541 c 0
 463 541 424 532 398 498 c 0
 376 471 377 435 377 395 c 0
EndSplineSet
EndChar
StartChar: uF1F90
Encoding: 991120 991120 1723
Width: 1000
VWidth: 1000
Flags: MW
LayerCount: 2
Fore
SplineSet
49 300 m 0
 49 384 61 495 112 605 c 0
 171 732 261 800 271 800 c 0
 277 800 281 797 281 790 c 0
 281 787 281 785 268 773 c 0
 145 648 107 474 107 300 c 0
 107 223 115 137 139 54 c 0
 162 -28 202 -106 264 -168 c 0
 281 -185 281 -187 281 -190 c 0
 281 -197 277 -200 271 -200 c 0
 261 -200 175 -135 115 -12 c 0
 60 101 49 222 49 300 c 0
720 -190 m 0
 720 -187 720 -185 733 -173 c 0
 857 -47 894 129 894 300 c 0
 894 509 837 668 739 767 c 0
 720 785 720 787 720 790 c 0
 720 796 724 800 730 800 c 0
 740 800 826 735 886 612 c 0
 941 499 952 378 952 300 c 0
 952 216 940 105 889 -5 c 0
 830 -132 740 -200 730 -200 c 0
 724 -200 720 -196 720 -190 c 0
535 305 m 0
 535 362 537 428 566 482 c 1
 595 542 646 563 694 563 c 0
 730 563 785 549 816 489 c 0
 848 433 851 363 851 305 c 0
 851 248 848 181 818 128 c 0
 788 68 736 51 693 51 c 0
 652 51 602 67 572 120 c 0
 537 177 535 251 535 305 c 0
603 315 m 0
 603 272 602 200 610 156 c 0
 622 88 665 70 693 70 c 0
 723 70 766 89 776 160 c 0
 783 206 783 263 783 315 c 0
 783 366 784 428 775 466 c 0
 761 530 718 544 693 544 c 0
 675 544 621 538 609 454 c 0
 603 414 603 365 603 315 c 0
195 489 m 1
 195 515 l 1
 198 515 l 1
 222 515 284 517 329 558 c 0
 332 561 332 561 336 563 c 1
 353 563 354 560 354 542 c 2
 354 119 l 1
 354 98 378 92 429 92 c 1
 447 92 l 1
 447 65 l 1
 421 67 354 68 324 68 c 0
 294 68 226 67 200 65 c 1
 200 92 l 1
 218 92 l 1
 269 92 293 99 293 119 c 1
 293 507 l 1
 257 491 214 489 198 489 c 1
 195 489 l 1
EndSplineSet
EndChar
StartChar: uF1F91
Encoding: 991121 991121 1724
Width: 1000
VWidth: 1000
Flags: MW
LayerCount: 2
Fore
SplineSet
49 300 m 0
 49 384 61 495 112 605 c 0
 171 732 261 800 271 800 c 0
 277 800 281 797 281 790 c 0
 281 787 281 785 268 773 c 0
 145 648 107 474 107 300 c 0
 107 223 115 137 139 54 c 0
 162 -28 202 -106 264 -168 c 0
 281 -185 281 -187 281 -190 c 0
 281 -197 277 -200 271 -200 c 0
 261 -200 175 -135 115 -12 c 0
 60 101 49 222 49 300 c 0
720 -190 m 0
 720 -187 720 -185 733 -173 c 0
 857 -47 894 129 894 300 c 0
 894 509 837 668 739 767 c 0
 720 785 720 787 720 790 c 0
 720 796 724 800 730 800 c 0
 740 800 826 735 886 612 c 0
 941 499 952 378 952 300 c 0
 952 216 940 105 889 -5 c 0
 830 -132 740 -200 730 -200 c 0
 724 -200 720 -196 720 -190 c 0
565 492 m 1
 565 518 l 1
 568 518 l 1
 592 518 655 519 700 560 c 0
 703 563 703 564 707 566 c 1
 724 566 724 562 724 544 c 2
 724 121 l 1
 724 100 748 94 799 94 c 1
 817 94 l 1
 817 68 l 1
 791 70 724 70 694 70 c 0
 664 70 596 70 570 68 c 1
 570 94 l 1
 588 94 l 1
 639 94 663 101 663 121 c 1
 663 510 l 1
 627 494 584 492 568 492 c 1
 565 492 l 1
190 492 m 1
 190 518 l 1
 193 518 l 1
 217 518 279 519 324 560 c 0
 327 563 328 564 332 566 c 1
 349 566 348 562 348 544 c 2
 348 121 l 1
 348 100 373 94 424 94 c 1
 442 94 l 1
 442 68 l 1
 416 70 349 70 319 70 c 0
 289 70 221 70 195 68 c 1
 195 94 l 1
 213 94 l 1
 264 94 288 101 288 121 c 1
 288 510 l 1
 252 494 209 492 193 492 c 1
 190 492 l 1
EndSplineSet
EndChar
StartChar: uF1F92
Encoding: 991122 991122 1725
Width: 1000
Flags: MW
LayerCount: 2
Fore
SplineSet
49 300 m 0
 49 384 61 495 112 605 c 0
 171 732 261 800 271 800 c 0
 277 800 281 797 281 790 c 0
 281 787 281 785 268 773 c 0
 145 648 107 474 107 300 c 0
 107 223 115 137 139 54 c 0
 162 -28 202 -106 264 -168 c 0
 281 -185 281 -187 281 -190 c 0
 281 -197 277 -200 271 -200 c 0
 261 -200 175 -135 115 -12 c 0
 60 101 49 222 49 300 c 0
720 -190 m 0
 720 -187 720 -185 733 -173 c 0
 857 -47 894 129 894 300 c 0
 894 509 837 668 739 767 c 0
 720 785 720 787 720 790 c 0
 720 796 724 800 730 800 c 0
 740 800 826 735 886 612 c 0
 941 499 952 378 952 300 c 0
 952 216 940 105 889 -5 c 0
 830 -132 740 -200 730 -200 c 0
 724 -200 720 -196 720 -190 c 0
542 68 m 1
 542 72 542 78 542 80 c 2
 542 90 544 91 550 98 c 2
 690 258 l 2
 732 306 767 362 767 420 c 0
 767 480 736 540 671 540 c 0
 632 540 596 516 578 475 c 1
 580 475 582 475 587 475 c 0
 610 473 624 456 624 433 c 0
 624 400 598 390 583 390 c 0
 577 390 542 393 542 435 c 0
 542 502 598 566 682 566 c 0
 774 566 842 506 842 420 c 0
 842 346 797 308 691 214 c 1
 684 208 616 142 608 135 c 1
 733 135 l 2
 747 135 797 134 803 140 c 1
 811 150 816 188 820 208 c 1
 842 208 l 1
 820 68 l 1
 542 68 l 1
193 492 m 1
 193 518 l 1
 196 518 l 1
 220 518 283 519 328 560 c 0
 331 563 331 564 335 566 c 1
 352 566 352 562 352 544 c 2
 352 121 l 1
 352 100 377 94 428 94 c 1
 446 94 l 1
 446 68 l 1
 420 70 352 70 322 70 c 0
 292 70 224 70 198 68 c 1
 198 94 l 1
 216 94 l 1
 267 94 292 101 292 121 c 1
 292 510 l 1
 256 494 212 492 196 492 c 1
 193 492 l 1
EndSplineSet
EndChar
StartChar: uF1F94
Encoding: 991124 991124 1727
Width: 1000
VWidth: 1000
Flags: MW
LayerCount: 2
Fore
SplineSet
49 300 m 0
 49 384 61 495 112 605 c 0
 171 732 261 800 271 800 c 0
 277 800 281 797 281 790 c 0
 281 787 281 785 268 773 c 0
 145 648 107 474 107 300 c 0
 107 223 115 137 139 54 c 0
 162 -28 202 -106 264 -168 c 0
 281 -185 281 -187 281 -190 c 0
 281 -197 277 -200 271 -200 c 0
 261 -200 175 -135 115 -12 c 0
 60 101 49 222 49 300 c 0
720 -190 m 0
 720 -187 720 -185 733 -173 c 0
 857 -47 894 129 894 300 c 0
 894 509 837 668 739 767 c 0
 720 785 720 787 720 790 c 0
 720 796 724 800 730 800 c 0
 740 800 826 735 886 612 c 0
 941 499 952 378 952 300 c 0
 952 216 940 105 889 -5 c 0
 830 -132 740 -200 730 -200 c 0
 724 -200 720 -196 720 -190 c 0
528 191 m 1
 528 218 l 1
 758 563 l 2
 764 573 766 572 775 572 c 0
 789 572 789 568 789 552 c 2
 789 218 l 1
 861 218 l 1
 861 191 l 1
 789 191 l 1
 789 122 l 1
 789 102 805 95 847 95 c 1
 858 95 l 1
 858 69 l 1
 829 71 786 71 756 71 c 0
 725 71 682 71 652 69 c 1
 652 95 l 1
 664 95 l 1
 706 95 725 102 725 122 c 1
 725 191 l 1
 528 191 l 1
552 218 m 1
 730 218 l 1
 730 485 l 1
 552 218 l 1
196 492 m 1
 196 518 l 1
 199 518 l 1
 223 518 285 520 330 561 c 0
 333 564 334 564 338 566 c 1
 355 566 355 564 355 546 c 2
 355 122 l 1
 355 101 379 95 430 95 c 1
 448 95 l 1
 448 69 l 1
 422 71 355 71 325 71 c 0
 295 71 228 71 202 69 c 1
 202 95 l 1
 220 95 l 1
 271 95 294 102 294 122 c 1
 294 510 l 1
 258 494 215 492 199 492 c 1
 196 492 l 1
EndSplineSet
EndChar
StartChar: uF1F95
Encoding: 991125 991125 1728
Width: 1000
VWidth: 1000
Flags: MW
LayerCount: 2
Fore
SplineSet
49 300 m 0
 49 384 61 495 112 605 c 0
 171 732 261 800 271 800 c 0
 277 800 281 797 281 790 c 0
 281 787 281 785 268 773 c 0
 145 648 107 474 107 300 c 0
 107 223 115 137 139 54 c 0
 162 -28 202 -106 264 -168 c 0
 281 -185 281 -187 281 -190 c 0
 281 -197 277 -200 271 -200 c 0
 261 -200 175 -135 115 -12 c 0
 60 101 49 222 49 300 c 0
720 -190 m 0
 720 -187 720 -185 733 -173 c 0
 857 -47 894 129 894 300 c 0
 894 509 837 668 739 767 c 0
 720 785 720 787 720 790 c 0
 720 796 724 800 730 800 c 0
 740 800 826 735 886 612 c 0
 941 499 952 378 952 300 c 0
 952 216 940 105 889 -5 c 0
 830 -132 740 -200 730 -200 c 0
 724 -200 720 -196 720 -190 c 0
542 186 m 0
 542 223 570 229 580 229 c 0
 603 229 619 212 619 188 c 0
 619 168 607 150 583 149 c 0
 577 149 573 149 571 150 c 1
 588 106 629 75 674 75 c 0
 706 75 734 92 750 118 c 1
 769 149 768 192 768 220 c 0
 768 258 766 290 754 317 c 0
 748 331 731 359 696 359 c 0
 644 359 613 327 601 309 c 0
 598 305 596 302 590 302 c 0
 579 302 578 308 578 322 c 2
 578 544 l 2
 578 556 578 562 586 562 c 0
 588 562 590 562 596 560 c 0
 626 546 661 539 696 539 c 0
 740 539 776 552 797 561 c 0
 802 563 803 563 804 563 c 0
 810 563 812 558 812 554 c 0
 812 542 758 469 665 469 c 0
 641 469 621 474 605 478 c 1
 605 343 l 1
 633 369 666 379 698 379 c 0
 783 379 842 304 842 216 c 0
 842 122 767 51 676 51 c 0
 593 51 542 122 542 186 c 0
193 489 m 1
 193 515 l 1
 196 515 l 1
 220 515 283 517 328 558 c 0
 331 561 331 561 335 563 c 1
 352 563 352 560 352 542 c 2
 352 119 l 1
 352 98 377 92 428 92 c 1
 446 92 l 1
 446 65 l 1
 420 67 352 68 322 68 c 0
 292 68 224 67 198 65 c 1
 198 92 l 1
 216 92 l 1
 267 92 292 99 292 119 c 1
 292 507 l 1
 256 491 212 489 196 489 c 1
 193 489 l 1
EndSplineSet
EndChar
StartChar: uF1F99
Encoding: 991129 991129 1732
Width: 1000
VWidth: 1000
Flags: MW
LayerCount: 2
Fore
SplineSet
49 300 m 0
 49 384 61 495 112 605 c 0
 171 732 261 800 271 800 c 0
 277 800 281 797 281 790 c 0
 281 787 281 785 268 773 c 0
 145 648 107 474 107 300 c 0
 107 223 115 137 139 54 c 0
 162 -28 202 -106 264 -168 c 0
 281 -185 281 -187 281 -190 c 0
 281 -197 277 -200 271 -200 c 0
 261 -200 175 -135 115 -12 c 0
 60 101 49 222 49 300 c 0
720 -190 m 0
 720 -187 720 -185 733 -173 c 0
 857 -47 894 129 894 300 c 0
 894 509 837 668 739 767 c 0
 720 785 720 787 720 790 c 0
 720 796 724 800 730 800 c 0
 740 800 826 735 886 612 c 0
 941 499 952 378 952 300 c 0
 952 216 940 105 889 -5 c 0
 830 -132 740 -200 730 -200 c 0
 724 -200 720 -196 720 -190 c 0
537 396 m 0
 537 451 554 486 585 518 c 1
 616 550 653 563 695 563 c 0
 784 563 848 476 848 312 c 0
 848 143 754 51 660 51 c 0
 594 51 556 85 556 135 c 0
 556 164 576 174 592 174 c 0
 610 174 628 160 628 136 c 0
 628 118 617 99 590 99 c 1
 610 76 647 75 660 75 c 0
 691 75 725 92 748 134 c 0
 765 164 776 211 776 279 c 2
 776 301 l 1
 757 255 725 231 685 231 c 0
 602 231 537 300 537 396 c 0
610 395 m 0
 610 357 609 321 622 294 c 0
 641 254 672 250 688 250 c 0
 751 250 774 324 774 382 c 0
 774 414 773 461 764 485 c 0
 754 513 731 541 696 541 c 0
 668 541 642 532 624 498 c 0
 609 471 610 435 610 395 c 0
194 489 m 1
 194 515 l 1
 198 515 l 1
 222 515 284 517 329 558 c 0
 332 561 332 561 336 563 c 1
 353 563 353 560 353 542 c 2
 353 119 l 1
 353 98 378 92 429 92 c 1
 447 92 l 1
 447 65 l 1
 421 67 354 68 324 68 c 0
 294 68 226 67 200 65 c 1
 200 92 l 1
 218 92 l 1
 269 92 293 99 293 119 c 1
 293 507 l 1
 257 491 214 489 198 489 c 1
 194 489 l 1
EndSplineSet
EndChar
StartChar: uF1F9A
Encoding: 991130 991130 1733
Width: 1000
VWidth: 1000
Flags: MW
LayerCount: 2
Fore
SplineSet
49 300 m 0
 49 384 61 495 112 605 c 0
 171 732 261 800 271 800 c 0
 277 800 281 797 281 790 c 0
 281 787 281 785 268 773 c 0
 145 648 107 474 107 300 c 0
 107 223 115 137 139 54 c 0
 162 -28 202 -106 264 -168 c 0
 281 -185 281 -187 281 -190 c 0
 281 -197 277 -200 271 -200 c 0
 261 -200 175 -135 115 -12 c 0
 60 101 49 222 49 300 c 0
720 -190 m 0
 720 -187 720 -185 733 -173 c 0
 857 -47 894 129 894 300 c 0
 894 509 837 668 739 767 c 0
 720 785 720 787 720 790 c 0
 720 796 724 800 730 800 c 0
 740 800 826 735 886 612 c 0
 941 499 952 378 952 300 c 0
 952 216 940 105 889 -5 c 0
 830 -132 740 -200 730 -200 c 0
 724 -200 720 -196 720 -190 c 0
530 305 m 0
 530 362 533 428 562 482 c 1
 591 542 641 563 689 563 c 0
 725 563 780 549 811 489 c 0
 843 433 846 363 846 305 c 0
 846 248 843 181 813 128 c 0
 783 68 731 51 688 51 c 0
 647 51 598 67 568 120 c 0
 533 177 530 251 530 305 c 0
598 315 m 0
 598 272 598 200 606 156 c 0
 618 88 660 70 688 70 c 0
 718 70 762 89 772 160 c 0
 779 206 779 263 779 315 c 0
 779 366 779 428 770 466 c 0
 756 530 713 544 688 544 c 0
 670 544 616 538 604 454 c 0
 598 414 598 365 598 315 c 0
164 65 m 1
 164 69 164 76 164 78 c 2
 164 88 166 89 172 96 c 2
 313 255 l 2
 355 303 390 360 390 418 c 0
 390 478 357 537 292 537 c 0
 253 537 218 513 200 472 c 1
 202 472 204 472 209 472 c 0
 232 470 246 453 246 430 c 0
 246 397 221 387 206 387 c 0
 200 387 164 390 164 432 c 0
 164 499 220 563 304 563 c 0
 396 563 463 504 463 418 c 0
 463 344 419 306 313 212 c 1
 306 206 238 139 230 132 c 1
 354 132 l 2
 368 132 419 132 425 138 c 1
 433 148 437 185 441 205 c 1
 463 205 l 1
 442 65 l 1
 164 65 l 1
EndSplineSet
EndChar
StartChar: uF1FA6
Encoding: 991142 991142 22
Width: 1000
Flags: MW
LayerCount: 2
Fore
SplineSet
537 68 m 1
 537 72 537 78 537 80 c 2
 537 90 540 91 546 98 c 2
 687 258 l 2
 729 306 763 362 763 420 c 0
 763 480 731 540 666 540 c 0
 627 540 592 516 574 475 c 1
 576 475 577 475 582 475 c 0
 605 473 620 456 620 433 c 0
 620 400 594 390 579 390 c 0
 573 390 537 393 537 435 c 0
 537 502 594 566 678 566 c 0
 770 566 837 506 837 420 c 0
 837 346 792 308 686 214 c 1
 679 208 611 142 603 135 c 1
 728 135 l 2
 742 135 792 134 798 140 c 1
 806 150 811 188 815 208 c 1
 837 208 l 1
 816 68 l 1
 537 68 l 1
162 68 m 1
 162 72 162 78 162 80 c 2
 162 90 165 91 171 98 c 2
 312 258 l 2
 354 306 388 362 388 420 c 0
 388 480 356 540 291 540 c 0
 252 540 217 516 199 475 c 1
 201 475 203 475 208 475 c 0
 231 473 245 456 245 433 c 0
 245 400 219 390 204 390 c 0
 198 390 162 393 162 435 c 0
 162 502 219 566 303 566 c 0
 395 566 462 506 462 420 c 0
 462 346 418 308 312 214 c 1
 305 208 236 142 228 135 c 1
 353 135 l 2
 367 135 417 134 423 140 c 1
 431 150 436 188 440 208 c 1
 462 208 l 1
 441 68 l 1
 162 68 l 1
50 300 m 0
 50 555 246 770 500 770 c 0
 741 770 950 566 950 300 c 0
 950 46 754 -170 500 -170 c 0
 259 -170 50 34 50 300 c 0
95 299 m 0
 95 67 276 -125 499 -125 c 0
 721 -125 905 62 905 300 c 0
 905 533 725 725 501 725 c 0
 282 725 95 542 95 299 c 0
EndSplineSet
EndChar
StartChar: uF1FA8
Encoding: 991144 991144 24
Width: 1000
VWidth: 1000
Flags: MW
LayerCount: 2
Fore
SplineSet
524 191 m 1
 524 218 l 1
 754 563 l 2
 760 573 761 572 770 572 c 0
 784 572 784 568 784 552 c 2
 784 218 l 1
 856 218 l 1
 856 191 l 1
 784 191 l 1
 784 122 l 1
 784 102 801 95 843 95 c 1
 855 95 l 1
 855 69 l 1
 826 71 782 71 752 71 c 0
 721 71 677 71 647 69 c 1
 647 95 l 1
 659 95 l 1
 701 95 720 102 720 122 c 1
 720 191 l 1
 524 191 l 1
548 218 m 1
 726 218 l 1
 726 485 l 1
 548 218 l 1
165 69 m 1
 165 73 165 80 165 82 c 2
 165 92 167 92 173 99 c 2
 314 258 l 2
 356 306 391 364 391 422 c 0
 391 482 359 540 294 540 c 0
 255 540 219 517 201 476 c 1
 203 476 205 476 210 476 c 0
 233 474 248 457 248 434 c 0
 248 401 222 390 207 390 c 0
 201 390 165 394 165 436 c 0
 165 503 221 566 305 566 c 0
 397 566 464 508 464 422 c 0
 464 348 420 310 314 216 c 1
 307 210 239 143 231 136 c 1
 356 136 l 2
 370 136 420 135 426 141 c 1
 434 151 439 188 443 208 c 1
 464 208 l 1
 444 69 l 1
 165 69 l 1
50 300 m 0
 50 555 246 770 500 770 c 0
 741 770 950 566 950 300 c 0
 950 46 754 -170 500 -170 c 0
 259 -170 50 34 50 300 c 0
95 299 m 0
 95 67 276 -125 499 -125 c 0
 721 -125 905 62 905 300 c 0
 905 533 725 725 501 725 c 0
 282 725 95 542 95 299 c 0
EndSplineSet
EndChar
StartChar: uF1FAA
Encoding: 991146 991146 26
Width: 1000
VWidth: 1000
Flags: MW
LayerCount: 2
Fore
SplineSet
532 303 m 0
 532 475 636 563 730 563 c 0
 794 563 825 524 825 479 c 0
 825 450 804 440 788 440 c 0
 770 440 753 454 753 478 c 0
 753 509 778 513 792 514 c 1
 776 538 747 541 731 541 c 0
 705 541 664 527 637 483 c 0
 620 456 605 410 605 331 c 2
 605 314 l 1
 623 355 654 384 696 384 c 0
 778 384 844 317 844 219 c 0
 844 120 775 51 690 51 c 0
 646 51 598 70 566 130 c 1
 544 172 532 230 532 303 c 0
606 232 m 0
 606 218 607 159 620 127 c 0
 624 116 645 75 689 75 c 0
 710 75 741 82 759 122 c 0
 771 148 771 184 771 220 c 0
 771 258 772 294 759 321 c 0
 740 361 709 365 693 365 c 0
 633 365 606 299 606 232 c 0
163 65 m 1
 163 69 163 76 163 78 c 2
 163 88 166 89 172 96 c 2
 313 255 l 2
 355 303 389 360 389 418 c 0
 389 478 357 537 292 537 c 0
 253 537 218 513 200 472 c 1
 202 472 203 472 208 472 c 0
 231 470 246 453 246 430 c 0
 246 397 220 387 205 387 c 0
 199 387 163 390 163 432 c 0
 163 499 220 563 304 563 c 0
 396 563 463 504 463 418 c 0
 463 344 418 306 312 212 c 1
 305 206 237 139 229 132 c 1
 354 132 l 2
 368 132 418 132 424 138 c 1
 432 148 437 185 441 205 c 1
 463 205 l 1
 442 65 l 1
 163 65 l 1
50 300 m 0
 50 555 246 770 500 770 c 0
 741 770 950 566 950 300 c 0
 950 46 754 -170 500 -170 c 0
 259 -170 50 34 50 300 c 0
95 299 m 0
 95 67 276 -125 499 -125 c 0
 721 -125 905 62 905 300 c 0
 905 533 725 725 501 725 c 0
 282 725 95 542 95 299 c 0
EndSplineSet
EndChar
StartChar: uF1FAC
Encoding: 991148 991148 28
Width: 1000
Flags: MW
LayerCount: 2
Fore
SplineSet
532 181 m 0
 532 251 587 292 634 316 c 1
 616 328 592 344 584 354 c 0
 555 387 553 420 553 436 c 0
 553 506 609 563 688 563 c 0
 758 563 823 523 823 452 c 0
 823 404 791 366 739 338 c 1
 779 313 793 305 808 288 c 0
 834 258 844 226 844 195 c 0
 844 115 778 51 688 51 c 0
 608 51 532 98 532 181 c 0
575 181 m 0
 575 120 624 75 688 75 c 0
 744 75 802 107 802 165 c 0
 802 209 769 229 746 244 c 1
 737 250 661 298 655 302 c 1
 601 272 575 229 575 181 c 0
590 469 m 0
 590 453 597 430 625 412 c 2
 719 352 l 1
 760 377 786 409 786 451 c 0
 786 504 743 541 688 541 c 0
 642 541 590 517 590 469 c 0
163 65 m 1
 163 69 163 76 163 78 c 2
 163 88 166 89 172 96 c 2
 313 255 l 2
 355 303 389 360 389 418 c 0
 389 478 357 537 292 537 c 0
 253 537 218 513 200 472 c 1
 202 472 203 472 208 472 c 0
 231 470 246 453 246 430 c 0
 246 397 220 387 205 387 c 0
 199 387 163 390 163 432 c 0
 163 499 220 563 304 563 c 0
 396 563 463 504 463 418 c 0
 463 344 418 306 312 212 c 1
 305 206 237 139 229 132 c 1
 354 132 l 2
 368 132 418 132 424 138 c 1
 432 148 437 185 441 205 c 1
 463 205 l 1
 442 65 l 1
 163 65 l 1
50 300 m 0
 50 555 246 770 500 770 c 0
 741 770 950 566 950 300 c 0
 950 46 754 -170 500 -170 c 0
 259 -170 50 34 50 300 c 0
95 299 m 0
 95 67 276 -125 499 -125 c 0
 721 -125 905 62 905 300 c 0
 905 533 725 725 501 725 c 0
 282 725 95 542 95 299 c 0
EndSplineSet
EndChar
StartChar: uF1FAF
Encoding: 991151 991151 31
Width: 1000
Flags: MW
LayerCount: 2
Fore
SplineSet
560 489 m 1
 560 515 l 1
 563 515 l 1
 587 515 649 517 694 558 c 0
 697 561 697 561 701 563 c 1
 718 563 719 560 719 542 c 2
 719 119 l 1
 719 98 743 92 794 92 c 1
 812 92 l 1
 812 65 l 1
 786 67 718 68 688 68 c 0
 658 68 590 67 564 65 c 1
 564 92 l 1
 582 92 l 1
 633 92 658 99 658 119 c 1
 658 507 l 1
 622 491 579 489 563 489 c 1
 560 489 l 1
152 168 m 0
 152 202 176 214 196 214 c 0
 220 214 240 198 240 169 c 0
 240 140 218 123 193 124 c 1
 221 86 272 75 300 75 c 0
 342 75 381 111 381 196 c 0
 381 261 360 317 296 317 c 2
 264 317 l 2
 251 317 246 317 246 327 c 0
 246 334 250 335 256 336 c 0
 260 336 275 338 286 339 c 0
 306 340 330 345 349 377 c 1
 369 409 369 452 369 460 c 0
 369 517 338 541 301 541 c 0
 276 541 231 533 208 500 c 1
 217 500 252 498 252 458 c 0
 252 434 236 417 212 417 c 0
 189 417 172 433 172 460 c 0
 172 518 228 563 304 563 c 0
 381 563 443 520 443 459 c 0
 443 399 400 348 342 329 c 1
 424 311 464 253 464 196 c 0
 464 122 400 51 302 51 c 0
 220 51 152 100 152 168 c 0
50 300 m 0
 50 555 246 770 500 770 c 0
 741 770 950 566 950 300 c 0
 950 46 754 -170 500 -170 c 0
 259 -170 50 34 50 300 c 0
95 299 m 0
 95 67 276 -125 499 -125 c 0
 721 -125 905 62 905 300 c 0
 905 533 725 725 501 725 c 0
 282 725 95 542 95 299 c 0
EndSplineSet
EndChar
StartChar: uF1FB1
Encoding: 991153 991153 1735
Width: 1000
VWidth: 1000
Flags: MW
LayerCount: 2
Fore
SplineSet
49 300 m 0
 49 384 61 495 112 605 c 0
 171 732 261 800 271 800 c 0
 277 800 281 797 281 790 c 0
 281 787 281 785 268 773 c 0
 145 648 107 474 107 300 c 0
 107 223 115 137 139 54 c 0
 162 -28 202 -106 264 -168 c 0
 281 -185 281 -187 281 -190 c 0
 281 -197 277 -200 271 -200 c 0
 261 -200 175 -135 115 -12 c 0
 60 101 49 222 49 300 c 0
720 -190 m 0
 720 -187 720 -185 733 -173 c 0
 857 -47 894 129 894 300 c 0
 894 509 837 668 739 767 c 0
 720 785 720 787 720 790 c 0
 720 796 724 800 730 800 c 0
 740 800 826 735 886 612 c 0
 941 499 952 378 952 300 c 0
 952 216 940 105 889 -5 c 0
 830 -132 740 -200 730 -200 c 0
 724 -200 720 -196 720 -190 c 0
309 542 m 1
 309 568 l 1
 424 576 l 1
 424 343 l 1
 438 357 471 389 528 389 c 0
 620 389 691 314 691 218 c 0
 691 119 614 48 519 48 c 0
 460 48 428 87 418 101 c 1
 403 75 389 56 388 55 c 1
 366 55 l 1
 366 503 l 2
 366 538 359 542 309 542 c 1
425 138 m 1
 425 128 426 126 434 114 c 1
 450 90 477 68 515 68 c 0
 551 68 580 89 598 114 c 1
 620 147 621 189 621 219 c 0
 621 250 619 292 600 323 c 0
 583 350 557 369 522 369 c 0
 498 369 459 359 432 321 c 1
 426 312 425 311 425 301 c 1
 425 138 l 1
EndSplineSet
EndChar
StartChar: uF1FB3
Encoding: 991155 991155 1737
Width: 1000
VWidth: 1000
Flags: MW
LayerCount: 2
Fore
SplineSet
49 300 m 0
 49 384 61 495 112 605 c 0
 171 732 261 800 271 800 c 0
 277 800 281 797 281 790 c 0
 281 787 281 785 268 773 c 0
 145 648 107 474 107 300 c 0
 107 223 115 137 139 54 c 0
 162 -28 202 -106 264 -168 c 0
 281 -185 281 -187 281 -190 c 0
 281 -197 277 -200 271 -200 c 0
 261 -200 175 -135 115 -12 c 0
 60 101 49 222 49 300 c 0
720 -190 m 0
 720 -187 720 -185 733 -173 c 0
 857 -47 894 129 894 300 c 0
 894 509 837 668 739 767 c 0
 720 785 720 787 720 790 c 0
 720 796 724 800 730 800 c 0
 740 800 826 735 886 612 c 0
 941 499 952 378 952 300 c 0
 952 216 940 105 889 -5 c 0
 830 -132 740 -200 730 -200 c 0
 724 -200 720 -196 720 -190 c 0
309 218 m 0
 309 317 387 389 481 389 c 0
 517 389 550 373 576 345 c 1
 576 503 l 2
 576 538 570 542 520 542 c 1
 520 568 l 1
 634 576 l 1
 634 121 l 2
 634 86 641 82 691 82 c 1
 691 55 l 1
 575 48 l 1
 575 95 l 1
 555 72 520 48 472 48 c 0
 380 48 309 122 309 218 c 0
379 218 m 0
 379 187 380 144 400 113 c 0
 417 87 443 68 478 68 c 0
 516 68 549 90 568 120 c 1
 574 130 575 131 575 141 c 1
 575 304 l 1
 575 314 574 314 568 324 c 1
 547 355 515 369 485 369 c 0
 449 369 420 349 402 324 c 0
 380 291 379 248 379 218 c 0
EndSplineSet
EndChar
StartChar: uF1FB4
Encoding: 991156 991156 1738
Width: 1000
Flags: MW
LayerCount: 2
Fore
SplineSet
49 300 m 0
 49 384 61 495 112 605 c 0
 171 732 261 800 271 800 c 0
 277 800 281 797 281 790 c 0
 281 787 281 785 268 773 c 0
 145 648 107 474 107 300 c 0
 107 223 115 137 139 54 c 0
 162 -28 202 -106 264 -168 c 0
 281 -185 281 -187 281 -190 c 0
 281 -197 277 -200 271 -200 c 0
 261 -200 175 -135 115 -12 c 0
 60 101 49 222 49 300 c 0
720 -190 m 0
 720 -187 720 -185 733 -173 c 0
 857 -47 894 129 894 300 c 0
 894 509 837 668 739 767 c 0
 720 785 720 787 720 790 c 0
 720 796 724 800 730 800 c 0
 740 800 826 735 886 612 c 0
 941 499 952 378 952 300 c 0
 952 216 940 105 889 -5 c 0
 830 -132 740 -200 730 -200 c 0
 724 -200 720 -196 720 -190 c 0
347 221 m 0
 347 315 415 392 510 392 c 0
 551 392 583 380 606 360 c 0
 640 330 653 283 653 243 c 0
 653 226 648 226 632 226 c 2
 419 226 l 1
 419 200 419 150 442 115 c 0
 459 89 487 69 525 69 c 0
 543 69 604 75 628 142 c 0
 630 150 632 154 640 154 c 0
 644 154 653 154 653 144 c 0
 653 130 618 47 520 47 c 0
 425 47 347 121 347 221 c 0
419 244 m 1
 598 244 l 1
 598 272 590 373 510 373 c 0
 492 373 464 365 442 332 c 0
 428 311 421 282 419 244 c 1
EndSplineSet
EndChar
StartChar: uF1FB5
Encoding: 991157 991157 1739
Width: 1000
Flags: MW
LayerCount: 2
Fore
SplineSet
49 300 m 0
 49 384 61 495 112 605 c 0
 171 732 261 800 271 800 c 0
 277 800 281 797 281 790 c 0
 281 787 281 785 268 773 c 0
 145 648 107 474 107 300 c 0
 107 223 115 137 139 54 c 0
 162 -28 202 -106 264 -168 c 0
 281 -185 281 -187 281 -190 c 0
 281 -197 277 -200 271 -200 c 0
 261 -200 175 -135 115 -12 c 0
 60 101 49 222 49 300 c 0
720 -190 m 0
 720 -187 720 -185 733 -173 c 0
 857 -47 894 129 894 300 c 0
 894 509 837 668 739 767 c 0
 720 785 720 787 720 790 c 0
 720 796 724 800 730 800 c 0
 740 800 826 735 886 612 c 0
 941 499 952 378 952 300 c 0
 952 216 940 105 889 -5 c 0
 830 -132 740 -200 730 -200 c 0
 724 -200 720 -196 720 -190 c 0
392 357 m 1
 392 383 l 1
 450 383 l 1
 450 468 l 2
 450 549 518 586 576 586 c 0
 620 586 648 559 648 530 c 0
 648 509 634 494 612 494 c 0
 592 494 576 509 576 530 c 0
 576 548 588 558 598 562 c 1
 588 566 578 566 576 566 c 0
 546 566 505 538 505 468 c 2
 505 383 l 1
 594 383 l 1
 594 357 l 1
 508 357 l 1
 508 111 l 1
 508 101 508 93 514 89 c 1
 520 86 546 84 566 84 c 1
 578 84 l 1
 578 58 l 1
 549 60 511 60 481 60 c 0
 457 60 421 59 393 58 c 1
 393 84 l 1
 413 84 438 84 444 88 c 1
 450 91 450 98 450 110 c 1
 450 357 l 1
 392 357 l 1
EndSplineSet
EndChar
StartChar: uF1FB6
Encoding: 991158 991158 1740
Width: 1000
VWidth: 1000
Flags: MW
LayerCount: 2
Fore
SplineSet
49 300 m 0
 49 384 61 495 112 605 c 0
 171 732 261 800 271 800 c 0
 277 800 281 797 281 790 c 0
 281 787 281 785 268 773 c 0
 145 648 107 474 107 300 c 0
 107 223 115 137 139 54 c 0
 162 -28 202 -106 264 -168 c 0
 281 -185 281 -187 281 -190 c 0
 281 -197 277 -200 271 -200 c 0
 261 -200 175 -135 115 -12 c 0
 60 101 49 222 49 300 c 0
720 -190 m 0
 720 -187 720 -185 733 -173 c 0
 857 -47 894 129 894 300 c 0
 894 509 837 668 739 767 c 0
 720 785 720 787 720 790 c 0
 720 796 724 800 730 800 c 0
 740 800 826 735 886 612 c 0
 941 499 952 378 952 300 c 0
 952 216 940 105 889 -5 c 0
 830 -132 740 -200 730 -200 c 0
 724 -200 720 -196 720 -190 c 0
322 3 m 0
 322 37 354 66 390 76 c 1
 365 93 357 123 357 143 c 0
 357 167 368 192 381 207 c 1
 361 223 345 252 345 284 c 0
 345 340 393 394 473 394 c 0
 499 394 530 388 558 367 c 1
 590 397 624 402 638 402 c 0
 668 402 678 377 678 363 c 0
 678 346 665 338 654 338 c 0
 640 338 629 348 629 362 c 0
 629 370 633 378 639 381 c 1
 637 382 634 382 632 382 c 0
 619 382 595 378 570 356 c 1
 587 340 602 314 602 284 c 0
 602 228 553 174 473 174 c 0
 458 174 424 176 394 196 c 1
 383 183 384 168 384 164 c 0
 384 142 396 118 422 114 c 0
 427 113 461 114 480 114 c 0
 532 114 576 113 616 92 c 0
 657 70 666 29 666 4 c 0
 666 -52 593 -93 494 -93 c 0
 388 -93 322 -47 322 3 c 0
368 3 m 0
 368 -35 416 -72 496 -72 c 0
 576 -72 622 -34 622 3 c 0
 622 63 537 62 483 62 c 2
 429 62 l 1
 402 60 368 40 368 3 c 0
407 284 m 0
 407 263 408 194 473 194 c 0
 503 194 520 212 527 222 c 0
 538 240 538 264 538 284 c 0
 538 305 538 374 473 374 c 0
 444 374 427 357 420 347 c 0
 408 329 407 304 407 284 c 0
EndSplineSet
EndChar
StartChar: uF1FB7
Encoding: 991159 991159 1741
Width: 1000
VWidth: 1000
Flags: MW
LayerCount: 2
Fore
SplineSet
49 300 m 0
 49 384 61 495 112 605 c 0
 171 732 261 800 271 800 c 0
 277 800 281 797 281 790 c 0
 281 787 281 785 268 773 c 0
 145 648 107 474 107 300 c 0
 107 223 115 137 139 54 c 0
 162 -28 202 -106 264 -168 c 0
 281 -185 281 -187 281 -190 c 0
 281 -197 277 -200 271 -200 c 0
 261 -200 175 -135 115 -12 c 0
 60 101 49 222 49 300 c 0
720 -190 m 0
 720 -187 720 -185 733 -173 c 0
 857 -47 894 129 894 300 c 0
 894 509 837 668 739 767 c 0
 720 785 720 787 720 790 c 0
 720 796 724 800 730 800 c 0
 740 800 826 735 886 612 c 0
 941 499 952 378 952 300 c 0
 952 216 940 105 889 -5 c 0
 830 -132 740 -200 730 -200 c 0
 724 -200 720 -196 720 -190 c 0
305 57 m 1
 305 83 l 1
 326 83 350 84 356 88 c 1
 360 91 362 97 362 108 c 1
 362 505 l 2
 362 540 355 544 305 544 c 1
 305 570 l 1
 419 577 l 1
 419 318 l 1
 420 318 l 1
 433 345 467 390 532 390 c 0
 575 390 602 377 614 362 c 0
 636 338 638 313 638 256 c 2
 638 100 l 1
 639 84 666 83 695 83 c 1
 695 57 l 1
 670 58 630 59 608 59 c 0
 586 59 546 58 521 57 c 1
 521 83 l 1
 542 83 566 84 572 88 c 1
 576 91 578 97 578 108 c 1
 578 290 l 2
 578 336 567 371 525 371 c 0
 477 371 422 330 422 251 c 2
 422 108 l 1
 422 97 423 90 428 87 c 1
 434 83 458 83 479 83 c 1
 479 57 l 1
 454 58 414 59 392 59 c 0
 370 59 330 58 305 57 c 1
EndSplineSet
EndChar
StartChar: uF1FB9
Encoding: 991161 991161 1743
Width: 1000
VWidth: 1000
Flags: MW
LayerCount: 2
Fore
SplineSet
49 300 m 0
 49 384 61 495 112 605 c 0
 171 732 261 800 271 800 c 0
 277 800 281 797 281 790 c 0
 281 787 281 785 268 773 c 0
 145 648 107 474 107 300 c 0
 107 223 115 137 139 54 c 0
 162 -28 202 -106 264 -168 c 0
 281 -185 281 -187 281 -190 c 0
 281 -197 277 -200 271 -200 c 0
 261 -200 175 -135 115 -12 c 0
 60 101 49 222 49 300 c 0
720 -190 m 0
 720 -187 720 -185 733 -173 c 0
 857 -47 894 129 894 300 c 0
 894 509 837 668 739 767 c 0
 720 785 720 787 720 790 c 0
 720 796 724 800 730 800 c 0
 740 800 826 735 886 612 c 0
 941 499 952 378 952 300 c 0
 952 216 940 105 889 -5 c 0
 830 -132 740 -200 730 -200 c 0
 724 -200 720 -196 720 -190 c 0
362 -37 m 0
 362 -15 377 1 400 1 c 0
 422 1 437 -15 437 -37 c 0
 437 -55 425 -67 413 -72 c 1
 431 -80 445 -79 451 -79 c 0
 498 -79 506 -18 506 17 c 2
 506 314 l 2
 506 334 504 346 488 350 c 0
 478 353 464 353 444 353 c 1
 444 379 l 1
 564 387 l 1
 564 17 l 2
 564 -54 510 -99 452 -99 c 0
 404 -99 362 -77 362 -37 c 0
474 516 m 0
 474 540 495 561 519 561 c 0
 543 561 564 540 564 516 c 0
 564 492 543 471 519 471 c 0
 495 471 474 492 474 516 c 0
EndSplineSet
EndChar
StartChar: uF1FBA
Encoding: 991162 991162 1744
Width: 1000
VWidth: 1000
Flags: MW
LayerCount: 2
Fore
SplineSet
49 300 m 0
 49 384 61 495 112 605 c 0
 171 732 261 800 271 800 c 0
 277 800 281 797 281 790 c 0
 281 787 281 785 268 773 c 0
 145 648 107 474 107 300 c 0
 107 223 115 137 139 54 c 0
 162 -28 202 -106 264 -168 c 0
 281 -185 281 -187 281 -190 c 0
 281 -197 277 -200 271 -200 c 0
 261 -200 175 -135 115 -12 c 0
 60 101 49 222 49 300 c 0
720 -190 m 0
 720 -187 720 -185 733 -173 c 0
 857 -47 894 129 894 300 c 0
 894 509 837 668 739 767 c 0
 720 785 720 787 720 790 c 0
 720 796 724 800 730 800 c 0
 740 800 826 735 886 612 c 0
 941 499 952 378 952 300 c 0
 952 216 940 105 889 -5 c 0
 830 -132 740 -200 730 -200 c 0
 724 -200 720 -196 720 -190 c 0
312 57 m 1
 312 83 l 1
 332 83 356 83 362 87 c 1
 368 90 369 96 369 108 c 1
 369 505 l 2
 369 540 362 544 312 544 c 1
 312 570 l 1
 426 577 l 1
 426 221 l 1
 542 318 l 1
 546 322 554 329 554 340 c 1
 552 349 546 355 531 356 c 1
 531 382 l 1
 543 381 591 380 616 380 c 0
 637 380 648 380 670 382 c 1
 670 356 l 1
 646 355 620 352 582 322 c 1
 576 318 512 265 512 263 c 1
 512 261 515 259 516 257 c 1
 618 117 l 2
 638 90 650 85 673 83 c 2
 676 83 684 83 688 83 c 1
 688 57 l 1
 665 59 642 59 619 59 c 0
 606 59 556 58 535 57 c 1
 535 83 l 1
 548 83 562 86 562 98 c 0
 562 102 553 116 546 126 c 1
 525 158 497 192 471 229 c 1
 467 227 430 194 424 190 c 1
 424 108 l 1
 424 97 425 90 430 87 c 1
 436 83 461 83 482 83 c 1
 482 57 l 1
 453 59 421 59 397 59 c 0
 374 59 338 58 312 57 c 1
EndSplineSet
EndChar
StartChar: uF1FBC
Encoding: 991164 991164 1746
Width: 1000
Flags: MW
LayerCount: 2
Fore
SplineSet
49 300 m 0
 49 384 61 495 112 605 c 0
 171 732 261 800 271 800 c 0
 277 800 281 797 281 790 c 0
 281 787 281 785 268 773 c 0
 145 648 107 474 107 300 c 0
 107 223 115 137 139 54 c 0
 162 -28 202 -106 264 -168 c 0
 281 -185 281 -187 281 -190 c 0
 281 -197 277 -200 271 -200 c 0
 261 -200 175 -135 115 -12 c 0
 60 101 49 222 49 300 c 0
720 -190 m 0
 720 -187 720 -185 733 -173 c 0
 857 -47 894 129 894 300 c 0
 894 509 837 668 739 767 c 0
 720 785 720 787 720 790 c 0
 720 796 724 800 730 800 c 0
 740 800 826 735 886 612 c 0
 941 499 952 378 952 300 c 0
 952 216 940 105 889 -5 c 0
 830 -132 740 -200 730 -200 c 0
 724 -200 720 -196 720 -190 c 0
198 55 m 1
 198 82 l 1
 218 82 241 82 247 86 c 1
 253 89 254 95 254 107 c 1
 254 316 l 2
 254 351 248 354 198 354 c 1
 198 380 l 1
 308 389 l 1
 308 309 l 1
 330 355 367 389 425 389 c 0
 457 389 517 381 528 315 c 1
 543 345 576 389 640 389 c 0
 683 389 711 375 723 361 c 0
 745 337 746 312 746 254 c 2
 746 99 l 1
 747 83 773 82 802 82 c 1
 802 55 l 1
 777 56 738 58 716 58 c 0
 694 58 654 56 629 55 c 1
 629 82 l 1
 648 82 672 82 678 85 c 1
 684 88 686 94 686 107 c 1
 686 289 l 2
 686 336 676 369 634 369 c 0
 586 369 530 329 530 250 c 2
 530 107 l 1
 530 95 532 88 538 85 c 1
 544 82 566 82 586 82 c 1
 586 55 l 1
 561 56 522 58 500 58 c 0
 478 58 439 56 414 55 c 1
 414 82 l 1
 436 82 459 82 465 88 c 1
 468 91 470 97 470 107 c 1
 470 289 l 2
 470 336 460 369 418 369 c 0
 370 369 314 329 314 250 c 2
 314 107 l 1
 314 94 316 87 323 84 c 1
 329 81 353 82 371 82 c 1
 371 55 l 1
 346 56 306 58 284 58 c 0
 262 58 223 56 198 55 c 1
EndSplineSet
EndChar
StartChar: uF1FBD
Encoding: 991165 991165 1747
Width: 1000
Flags: MW
LayerCount: 2
Fore
SplineSet
49 300 m 0
 49 384 61 495 112 605 c 0
 171 732 261 800 271 800 c 0
 277 800 281 797 281 790 c 0
 281 787 281 785 268 773 c 0
 145 648 107 474 107 300 c 0
 107 223 115 137 139 54 c 0
 162 -28 202 -106 264 -168 c 0
 281 -185 281 -187 281 -190 c 0
 281 -197 277 -200 271 -200 c 0
 261 -200 175 -135 115 -12 c 0
 60 101 49 222 49 300 c 0
720 -190 m 0
 720 -187 720 -185 733 -173 c 0
 857 -47 894 129 894 300 c 0
 894 509 837 668 739 767 c 0
 720 785 720 787 720 790 c 0
 720 796 724 800 730 800 c 0
 740 800 826 735 886 612 c 0
 941 499 952 378 952 300 c 0
 952 216 940 105 889 -5 c 0
 830 -132 740 -200 730 -200 c 0
 724 -200 720 -196 720 -190 c 0
305 55 m 1
 305 82 l 1
 326 82 350 82 356 86 c 1
 360 89 362 96 362 107 c 1
 362 316 l 2
 362 351 355 354 305 354 c 1
 305 380 l 1
 417 389 l 1
 417 309 l 1
 438 353 473 389 532 389 c 0
 575 389 601 375 613 361 c 0
 635 337 638 312 638 254 c 2
 638 99 l 1
 639 83 666 82 695 82 c 1
 695 55 l 1
 670 56 630 58 608 58 c 0
 586 58 546 56 521 55 c 1
 521 82 l 1
 543 82 567 82 573 88 c 1
 576 91 578 97 578 107 c 1
 578 289 l 2
 578 335 567 369 525 369 c 0
 477 369 422 329 422 250 c 2
 422 107 l 1
 422 96 423 89 428 86 c 1
 434 82 458 82 479 82 c 1
 479 55 l 1
 454 56 414 58 392 58 c 0
 370 58 330 56 305 55 c 1
EndSplineSet
EndChar
StartChar: uF1FC1
Encoding: 991169 991169 1751
Width: 1000
Flags: MW
LayerCount: 2
Fore
SplineSet
49 300 m 0
 49 384 61 495 112 605 c 0
 171 732 261 800 271 800 c 0
 277 800 281 797 281 790 c 0
 281 787 281 785 268 773 c 0
 145 648 107 474 107 300 c 0
 107 223 115 137 139 54 c 0
 162 -28 202 -106 264 -168 c 0
 281 -185 281 -187 281 -190 c 0
 281 -197 277 -200 271 -200 c 0
 261 -200 175 -135 115 -12 c 0
 60 101 49 222 49 300 c 0
720 -190 m 0
 720 -187 720 -185 733 -173 c 0
 857 -47 894 129 894 300 c 0
 894 509 837 668 739 767 c 0
 720 785 720 787 720 790 c 0
 720 796 724 800 730 800 c 0
 740 800 826 735 886 612 c 0
 941 499 952 378 952 300 c 0
 952 216 940 105 889 -5 c 0
 830 -132 740 -200 730 -200 c 0
 724 -200 720 -196 720 -190 c 0
388 55 m 1
 388 82 l 1
 409 82 433 82 439 86 c 1
 443 89 444 96 444 107 c 1
 444 316 l 2
 444 351 438 354 388 354 c 1
 388 380 l 1
 497 389 l 1
 497 305 l 1
 509 341 536 389 590 389 c 0
 624 389 652 367 652 339 c 0
 652 313 633 302 617 302 c 0
 599 302 582 314 582 338 c 0
 582 358 596 368 598 369 c 1
 596 370 594 369 590 369 c 0
 530 368 502 296 502 228 c 2
 502 108 l 1
 502 98 502 92 508 88 c 1
 514 84 540 82 561 82 c 1
 573 82 l 1
 573 55 l 1
 544 57 506 58 476 58 c 0
 452 58 416 56 388 55 c 1
EndSplineSet
EndChar
StartChar: uF1FC2
Encoding: 991170 991170 1752
Width: 1000
Flags: MW
LayerCount: 2
Fore
SplineSet
49 300 m 0
 49 384 61 495 112 605 c 0
 171 732 261 800 271 800 c 0
 277 800 281 797 281 790 c 0
 281 787 281 785 268 773 c 0
 145 648 107 474 107 300 c 0
 107 223 115 137 139 54 c 0
 162 -28 202 -106 264 -168 c 0
 281 -185 281 -187 281 -190 c 0
 281 -197 277 -200 271 -200 c 0
 261 -200 175 -135 115 -12 c 0
 60 101 49 222 49 300 c 0
720 -190 m 0
 720 -187 720 -185 733 -173 c 0
 857 -47 894 129 894 300 c 0
 894 509 837 668 739 767 c 0
 720 785 720 787 720 790 c 0
 720 796 724 800 730 800 c 0
 740 800 826 735 886 612 c 0
 941 499 952 378 952 300 c 0
 952 216 940 105 889 -5 c 0
 830 -132 740 -200 730 -200 c 0
 724 -200 720 -196 720 -190 c 0
372 66 m 2
 372 161 l 2
 372 176 373 180 385 180 c 0
 393 180 395 178 397 168 c 1
 410 112 435 67 502 67 c 0
 550 67 587 90 587 132 c 0
 587 184 527 195 508 198 c 0
 453 208 431 213 405 235 c 0
 386 250 372 271 372 298 c 0
 372 354 423 392 497 392 c 0
 513 392 543 391 569 373 c 1
 573 375 581 381 583 384 c 0
 594 392 594 392 598 392 c 0
 608 392 608 387 608 374 c 2
 608 302 l 2
 608 287 608 283 596 283 c 0
 590 283 587 284 586 292 c 0
 585 308 581 334 562 353 c 0
 548 366 528 375 497 375 c 0
 445 375 413 351 413 320 c 0
 413 278 464 269 502 262 c 0
 540 255 568 250 594 226 c 1
 607 214 628 192 628 154 c 0
 628 86 572 47 502 47 c 0
 486 47 451 48 418 78 c 1
 407 67 404 64 402 62 c 0
 388 49 386 47 382 47 c 0
 372 47 372 53 372 66 c 2
EndSplineSet
EndChar
StartChar: uF1FC3
Encoding: 991171 991171 1753
Width: 1000
Flags: MW
LayerCount: 2
Fore
SplineSet
49 300 m 0
 49 384 61 495 112 605 c 0
 171 732 261 800 271 800 c 0
 277 800 281 797 281 790 c 0
 281 787 281 785 268 773 c 0
 145 648 107 474 107 300 c 0
 107 223 115 137 139 54 c 0
 162 -28 202 -106 264 -168 c 0
 281 -185 281 -187 281 -190 c 0
 281 -197 277 -200 271 -200 c 0
 261 -200 175 -135 115 -12 c 0
 60 101 49 222 49 300 c 0
720 -190 m 0
 720 -187 720 -185 733 -173 c 0
 857 -47 894 129 894 300 c 0
 894 509 837 668 739 767 c 0
 720 785 720 787 720 790 c 0
 720 796 724 800 730 800 c 0
 740 800 826 735 886 612 c 0
 941 499 952 378 952 300 c 0
 952 216 940 105 889 -5 c 0
 830 -132 740 -200 730 -200 c 0
 724 -200 720 -196 720 -190 c 0
398 356 m 1
 398 375 l 1
 472 378 497 457 498 522 c 1
 522 522 l 1
 522 382 l 1
 629 382 l 1
 629 356 l 1
 522 356 l 1
 522 148 l 2
 522 134 522 70 570 70 c 0
 596 70 619 96 619 151 c 2
 619 191 l 1
 642 191 l 1
 642 149 l 2
 642 99 618 49 564 49 c 0
 530 49 461 60 461 149 c 2
 461 356 l 1
 398 356 l 1
EndSplineSet
EndChar
StartChar: uF1FC4
Encoding: 991172 991172 1754
Width: 1000
Flags: MW
LayerCount: 2
Fore
SplineSet
49 300 m 0
 49 384 61 495 112 605 c 0
 171 732 261 800 271 800 c 0
 277 800 281 797 281 790 c 0
 281 787 281 785 268 773 c 0
 145 648 107 474 107 300 c 0
 107 223 115 137 139 54 c 0
 162 -28 202 -106 264 -168 c 0
 281 -185 281 -187 281 -190 c 0
 281 -197 277 -200 271 -200 c 0
 261 -200 175 -135 115 -12 c 0
 60 101 49 222 49 300 c 0
720 -190 m 0
 720 -187 720 -185 733 -173 c 0
 857 -47 894 129 894 300 c 0
 894 509 837 668 739 767 c 0
 720 785 720 787 720 790 c 0
 720 796 724 800 730 800 c 0
 740 800 826 735 886 612 c 0
 941 499 952 378 952 300 c 0
 952 216 940 105 889 -5 c 0
 830 -132 740 -200 730 -200 c 0
 724 -200 720 -196 720 -190 c 0
305 354 m 1
 305 380 l 1
 422 387 l 1
 422 136 l 2
 422 112 423 93 437 80 c 0
 447 71 462 66 487 66 c 0
 542 66 578 114 578 178 c 2
 578 314 l 2
 578 349 571 354 521 354 c 1
 521 380 l 1
 638 387 l 1
 638 119 l 2
 638 84 645 80 695 80 c 1
 695 54 l 1
 581 47 l 1
 581 112 l 1
 556 63 517 47 481 47 c 0
 449 47 425 52 407 61 c 0
 368 81 362 123 362 166 c 2
 362 294 l 2
 362 352 360 354 305 354 c 1
EndSplineSet
EndChar
StartChar: uF1FC5
Encoding: 991173 991173 1755
Width: 1000
VWidth: 1000
Flags: MW
LayerCount: 2
Fore
SplineSet
49 300 m 0
 49 384 61 495 112 605 c 0
 171 732 261 800 271 800 c 0
 277 800 281 797 281 790 c 0
 281 787 281 785 268 773 c 0
 145 648 107 474 107 300 c 0
 107 223 115 137 139 54 c 0
 162 -28 202 -106 264 -168 c 0
 281 -185 281 -187 281 -190 c 0
 281 -197 277 -200 271 -200 c 0
 261 -200 175 -135 115 -12 c 0
 60 101 49 222 49 300 c 0
720 -190 m 0
 720 -187 720 -185 733 -173 c 0
 857 -47 894 129 894 300 c 0
 894 509 837 668 739 767 c 0
 720 785 720 787 720 790 c 0
 720 796 724 800 730 800 c 0
 740 800 826 735 886 612 c 0
 941 499 952 378 952 300 c 0
 952 216 940 105 889 -5 c 0
 830 -132 740 -200 730 -200 c 0
 724 -200 720 -196 720 -190 c 0
311 352 m 1
 311 379 l 1
 335 377 366 377 386 377 c 0
 399 377 449 378 472 379 c 1
 472 352 l 1
 462 352 428 353 428 338 c 1
 428 336 429 336 432 328 c 1
 518 120 l 1
 598 310 l 2
 601 318 602 320 602 326 c 0
 602 338 590 351 566 352 c 1
 566 379 l 1
 580 378 615 377 633 377 c 0
 651 377 671 377 689 379 c 1
 689 352 l 1
 639 351 630 326 624 311 c 2
 519 61 l 2
 515 51 511 46 500 46 c 0
 490 46 487 49 482 61 c 2
 368 332 l 1
 365 340 361 345 355 348 c 1
 349 351 329 352 311 352 c 1
EndSplineSet
EndChar
StartChar: uF1FC6
Encoding: 991174 991174 1756
Width: 1000
VWidth: 1000
Flags: MW
LayerCount: 2
Fore
SplineSet
49 300 m 0
 49 384 61 495 112 605 c 0
 171 732 261 800 271 800 c 0
 277 800 281 797 281 790 c 0
 281 787 281 785 268 773 c 0
 145 648 107 474 107 300 c 0
 107 223 115 137 139 54 c 0
 162 -28 202 -106 264 -168 c 0
 281 -185 281 -187 281 -190 c 0
 281 -197 277 -200 271 -200 c 0
 261 -200 175 -135 115 -12 c 0
 60 101 49 222 49 300 c 0
720 -190 m 0
 720 -187 720 -185 733 -173 c 0
 857 -47 894 129 894 300 c 0
 894 509 837 668 739 767 c 0
 720 785 720 787 720 790 c 0
 720 796 724 800 730 800 c 0
 740 800 826 735 886 612 c 0
 941 499 952 378 952 300 c 0
 952 216 940 105 889 -5 c 0
 830 -132 740 -200 730 -200 c 0
 724 -200 720 -196 720 -190 c 0
235 352 m 1
 235 379 l 1
 262 377 298 377 306 377 c 0
 326 377 368 378 392 379 c 1
 392 352 l 1
 381 352 348 352 348 337 c 1
 348 335 347 335 350 328 c 1
 423 128 l 1
 487 301 l 1
 487 301 488 302 488 303 c 1
 484 314 478 332 471 344 c 1
 465 352 445 352 424 352 c 1
 424 379 l 1
 444 377 469 377 493 377 c 0
 512 377 551 378 573 379 c 1
 573 352 l 1
 562 352 529 352 529 337 c 1
 529 334 530 334 532 327 c 1
 609 118 l 1
 680 310 l 2
 683 318 684 319 684 323 c 0
 684 341 662 351 640 352 c 1
 640 379 l 1
 654 378 688 377 710 377 c 0
 726 377 749 377 765 379 c 1
 765 352 l 1
 735 351 718 343 706 312 c 2
 613 62 l 2
 609 53 608 46 596 46 c 0
 584 46 581 53 577 62 c 2
 500 270 l 1
 423 62 l 2
 419 51 416 46 404 46 c 0
 392 46 391 53 387 64 c 2
 287 333 l 1
 280 351 263 352 235 352 c 1
EndSplineSet
EndChar
StartChar: uF1FC8
Encoding: 991176 991176 1758
Width: 1000
Flags: MW
LayerCount: 2
Fore
SplineSet
49 300 m 0
 49 384 61 495 112 605 c 0
 171 732 261 800 271 800 c 0
 277 800 281 797 281 790 c 0
 281 787 281 785 268 773 c 0
 145 648 107 474 107 300 c 0
 107 223 115 137 139 54 c 0
 162 -28 202 -106 264 -168 c 0
 281 -185 281 -187 281 -190 c 0
 281 -197 277 -200 271 -200 c 0
 261 -200 175 -135 115 -12 c 0
 60 101 49 222 49 300 c 0
720 -190 m 0
 720 -187 720 -185 733 -173 c 0
 857 -47 894 129 894 300 c 0
 894 509 837 668 739 767 c 0
 720 785 720 787 720 790 c 0
 720 796 724 800 730 800 c 0
 740 800 826 735 886 612 c 0
 941 499 952 378 952 300 c 0
 952 216 940 105 889 -5 c 0
 830 -132 740 -200 730 -200 c 0
 724 -200 720 -196 720 -190 c 0
310 -31 m 0
 310 -7 328 4 344 4 c 0
 363 4 379 -9 379 -30 c 0
 379 -46 370 -61 351 -64 c 1
 363 -75 376 -75 382 -75 c 0
 431 -75 454 -24 470 16 c 1
 473 24 485 50 488 58 c 1
 368 338 l 1
 360 358 338 358 311 358 c 1
 311 385 l 1
 335 383 366 382 386 382 c 0
 396 382 451 384 472 385 c 1
 472 358 l 1
 462 358 430 359 430 344 c 1
 430 342 432 339 434 333 c 1
 519 132 l 1
 598 316 l 2
 601 323 603 326 603 332 c 0
 603 348 585 357 567 358 c 1
 567 385 l 1
 583 384 619 382 634 382 c 0
 652 382 673 383 690 385 c 1
 690 358 l 1
 669 358 640 356 624 318 c 2
 484 -8 l 2
 466 -51 432 -94 382 -94 c 0
 342 -94 310 -66 310 -31 c 0
EndSplineSet
EndChar
StartChar: uF1FC9
Encoding: 991177 991177 1759
Width: 1000
VWidth: 1000
Flags: MW
LayerCount: 2
Fore
SplineSet
49 300 m 0
 49 384 61 495 112 605 c 0
 171 732 261 800 271 800 c 0
 277 800 281 797 281 790 c 0
 281 787 281 785 268 773 c 0
 145 648 107 474 107 300 c 0
 107 223 115 137 139 54 c 0
 162 -28 202 -106 264 -168 c 0
 281 -185 281 -187 281 -190 c 0
 281 -197 277 -200 271 -200 c 0
 261 -200 175 -135 115 -12 c 0
 60 101 49 222 49 300 c 0
720 -190 m 0
 720 -187 720 -185 733 -173 c 0
 857 -47 894 129 894 300 c 0
 894 509 837 668 739 767 c 0
 720 785 720 787 720 790 c 0
 720 796 724 800 730 800 c 0
 740 800 826 735 886 612 c 0
 941 499 952 378 952 300 c 0
 952 216 940 105 889 -5 c 0
 830 -132 740 -200 730 -200 c 0
 724 -200 720 -196 720 -190 c 0
355 66 m 0
 355 71 354 72 361 80 c 2
 571 361 l 1
 491 361 l 2
 410 361 392 332 388 256 c 1
 366 256 l 1
 374 380 l 1
 622 380 l 2
 636 380 643 380 643 368 c 0
 643 364 644 363 637 355 c 2
 428 76 l 1
 511 76 l 2
 601 76 615 112 622 197 c 1
 644 197 l 1
 632 54 l 1
 376 54 l 2
 362 54 355 54 355 66 c 0
EndSplineSet
EndChar
StartChar: uF2020
Encoding: 991264 991264 0
Width: 1000
Flags: MW
LayerCount: 2
Fore
SplineSet
305 305 m 0
 305 362 308 428 338 482 c 1
 368 542 430 563 501 563 c 0
 554 563 626 549 658 489 c 0
 692 433 695 363 695 305 c 0
 695 248 692 181 660 128 c 0
 628 68 563 51 499 51 c 0
 438 51 375 67 344 120 c 0
 307 177 305 251 305 305 c 0
376 315 m 0
 376 272 376 200 384 156 c 0
 398 88 457 70 499 70 c 0
 544 70 604 89 616 160 c 0
 624 206 624 263 624 315 c 0
 624 366 624 428 614 466 c 0
 599 530 536 544 499 544 c 0
 473 544 395 538 382 454 c 0
 376 414 376 365 376 315 c 0
50 300 m 0
 50 555 246 770 500 770 c 0
 741 770 950 566 950 300 c 0
 950 46 754 -170 500 -170 c 0
 259 -170 50 34 50 300 c 0
95 299 m 0
 95 67 276 -125 499 -125 c 0
 721 -125 905 62 905 300 c 0
 905 533 725 725 501 725 c 0
 282 725 95 542 95 299 c 0
EndSplineSet
EndChar
StartChar: uF2023
Encoding: 991267 991267 1783
Width: 1000
Flags: MW
LayerCount: 2
Fore
SplineSet
49 300 m 0
 49 384 61 495 112 605 c 0
 171 732 261 800 271 800 c 0
 277 800 281 797 281 790 c 0
 281 787 281 785 268 773 c 0
 145 648 107 474 107 300 c 0
 107 223 115 137 139 54 c 0
 162 -28 202 -106 264 -168 c 0
 281 -185 281 -187 281 -190 c 0
 281 -197 277 -200 271 -200 c 0
 261 -200 175 -135 115 -12 c 0
 60 101 49 222 49 300 c 0
720 -190 m 0
 720 -187 720 -185 733 -173 c 0
 857 -47 894 129 894 300 c 0
 894 509 837 668 739 767 c 0
 720 785 720 787 720 790 c 0
 720 796 724 800 730 800 c 0
 740 800 826 735 886 612 c 0
 941 499 952 378 952 300 c 0
 952 216 940 105 889 -5 c 0
 830 -132 740 -200 730 -200 c 0
 724 -200 720 -196 720 -190 c 0
305 305 m 0
 305 362 308 428 338 482 c 1
 368 542 430 563 501 563 c 0
 554 563 626 549 658 489 c 0
 692 433 695 363 695 305 c 0
 695 248 692 181 660 128 c 0
 628 68 563 51 499 51 c 0
 438 51 375 67 344 120 c 0
 307 177 305 251 305 305 c 0
376 315 m 0
 376 272 376 200 384 156 c 0
 398 88 457 70 499 70 c 0
 544 70 604 89 616 160 c 0
 624 206 624 263 624 315 c 0
 624 366 624 428 614 466 c 0
 599 530 536 544 499 544 c 0
 473 544 395 538 382 454 c 0
 376 414 376 365 376 315 c 0
EndSplineSet
EndChar
StartChar: uF205E
Encoding: 991326 991326 328
Width: 1000
VWidth: 1000
Flags: MW
LayerCount: 2
Fore
SplineSet
50 300 m 0
 50 555 246 770 500 770 c 0
 741 770 950 566 950 300 c 0
 950 46 754 -170 500 -170 c 0
 259 -170 50 34 50 300 c 0
365 492 m 1
 369 492 l 1
 385 492 430 494 472 510 c 1
 472 121 l 1
 472 111 470 104 464 100 c 1
 457 96 417 94 389 94 c 1
 371 94 l 1
 371 68 l 1
 399 70 471 70 504 70 c 0
 537 70 607 70 635 68 c 1
 635 94 l 1
 617 94 l 1
 594 94 554 95 546 98 c 1
 537 102 536 110 536 121 c 1
 536 544 l 2
 536 562 536 566 518 566 c 1
 514 564 513 563 510 560 c 0
 461 519 393 518 369 518 c 1
 365 518 l 1
 365 492 l 1
EndSplineSet
EndChar
StartChar: uF205F
Encoding: 991327 991327 329
Width: 1000
VWidth: 1000
Flags: MW
LayerCount: 2
Fore
SplineSet
50 300 m 0
 50 555 246 770 500 770 c 0
 741 770 950 566 950 300 c 0
 950 46 754 -170 500 -170 c 0
 259 -170 50 34 50 300 c 0
316 68 m 1
 663 68 l 1
 684 208 l 1
 661 208 l 1
 657 188 653 150 643 140 c 1
 637 134 581 135 559 135 c 2
 408 135 l 1
 419 142 509 208 519 214 c 1
 660 308 684 346 684 420 c 0
 684 506 612 566 484 566 c 0
 426 566 383 547 355 520 c 0
 340 506 328 491 322 474 c 0
 318 462 316 448 316 435 c 0
 316 393 352 390 358 390 c 0
 374 390 403 400 403 433 c 0
 403 456 387 473 364 475 c 0
 359 475 356 475 354 475 c 1
 359 487 367 499 375 507 c 0
 397 528 428 540 468 540 c 0
 565 540 603 480 603 420 c 0
 603 362 583 306 520 258 c 2
 324 98 l 2
 316 92 316 90 316 80 c 2
 316 78 316 72 316 68 c 1
EndSplineSet
EndChar
StartChar: uF2061
Encoding: 991329 991329 331
Width: 1000
VWidth: 1000
Flags: MW
LayerCount: 2
Fore
SplineSet
50 300 m 0
 50 555 246 770 500 770 c 0
 741 770 950 566 950 300 c 0
 950 46 754 -170 500 -170 c 0
 259 -170 50 34 50 300 c 0
302 191 m 1
 555 191 l 1
 555 122 l 1
 555 114 554 107 549 103 c 1
 541 97 499 95 464 95 c 1
 446 95 l 1
 446 69 l 1
 490 71 555 71 589 71 c 0
 621 71 666 71 696 69 c 1
 696 95 l 1
 685 95 l 1
 666 95 637 97 631 100 c 1
 623 104 624 111 624 122 c 1
 624 191 l 1
 698 191 l 1
 698 218 l 1
 624 218 l 1
 624 552 l 2
 624 568 623 572 609 572 c 0
 600 572 599 573 592 563 c 2
 302 218 l 1
 302 191 l 1
327 218 m 1
 562 485 l 1
 562 218 l 1
 327 218 l 1
EndSplineSet
EndChar
StartChar: uF269D
Encoding: 992925 992925 1785
Width: 1000
VWidth: 1000
Flags: MW
LayerCount: 2
Fore
SplineSet
49 300 m 0
 49 384 61 495 112 605 c 0
 171 732 261 800 271 800 c 0
 277 800 281 797 281 790 c 0
 281 787 281 785 268 773 c 0
 145 648 107 474 107 300 c 0
 107 223 115 137 139 54 c 0
 162 -28 202 -106 264 -168 c 0
 281 -185 281 -187 281 -190 c 0
 281 -197 277 -200 271 -200 c 0
 261 -200 175 -135 115 -12 c 0
 60 101 49 222 49 300 c 0
720 -190 m 0
 720 -187 720 -185 733 -173 c 0
 857 -47 894 129 894 300 c 0
 894 509 837 668 739 767 c 0
 720 785 720 787 720 790 c 0
 720 796 724 800 730 800 c 0
 740 800 826 735 886 612 c 0
 941 499 952 378 952 300 c 0
 952 216 940 105 889 -5 c 0
 830 -132 740 -200 730 -200 c 0
 724 -200 720 -196 720 -190 c 0
560 489 m 1
 560 515 l 1
 562 515 l 1
 586 515 649 517 694 558 c 0
 697 561 697 561 701 563 c 1
 718 563 718 560 718 542 c 2
 718 119 l 1
 718 98 743 92 794 92 c 1
 812 92 l 1
 812 65 l 1
 786 67 718 68 688 68 c 0
 658 68 590 67 564 65 c 1
 564 92 l 1
 582 92 l 1
 633 92 658 99 658 119 c 1
 658 507 l 1
 622 491 578 489 562 489 c 1
 560 489 l 1
149 305 m 0
 149 362 152 428 181 482 c 1
 210 542 260 563 308 563 c 0
 344 563 399 549 430 489 c 0
 462 433 466 363 466 305 c 0
 466 248 462 181 432 128 c 0
 402 68 350 51 307 51 c 0
 266 51 217 67 187 120 c 0
 152 177 149 251 149 305 c 0
217 315 m 0
 217 272 217 200 225 156 c 0
 237 88 279 70 307 70 c 0
 337 70 380 89 390 160 c 0
 397 206 397 263 397 315 c 0
 397 366 398 428 389 466 c 0
 375 530 332 544 307 544 c 0
 289 544 235 538 223 454 c 0
 217 414 217 365 217 315 c 0
EndSplineSet
EndChar
StartChar: uF269F
Encoding: 992927 992927 1787
Width: 1000
Flags: MW
LayerCount: 2
Fore
SplineSet
49 300 m 0
 49 384 61 495 112 605 c 0
 171 732 261 800 271 800 c 0
 277 800 281 797 281 790 c 0
 281 787 281 785 268 773 c 0
 145 648 107 474 107 300 c 0
 107 223 115 137 139 54 c 0
 162 -28 202 -106 264 -168 c 0
 281 -185 281 -187 281 -190 c 0
 281 -197 277 -200 271 -200 c 0
 261 -200 175 -135 115 -12 c 0
 60 101 49 222 49 300 c 0
720 -190 m 0
 720 -187 720 -185 733 -173 c 0
 857 -47 894 129 894 300 c 0
 894 509 837 668 739 767 c 0
 720 785 720 787 720 790 c 0
 720 796 724 800 730 800 c 0
 740 800 826 735 886 612 c 0
 941 499 952 378 952 300 c 0
 952 216 940 105 889 -5 c 0
 830 -132 740 -200 730 -200 c 0
 724 -200 720 -196 720 -190 c 0
531 168 m 0
 531 202 555 214 575 214 c 0
 599 214 619 198 619 169 c 0
 619 140 598 123 573 124 c 1
 601 86 651 75 679 75 c 0
 721 75 760 111 760 196 c 0
 760 261 739 317 675 317 c 2
 643 317 l 2
 630 317 625 317 625 327 c 0
 625 334 629 335 635 336 c 0
 639 336 654 338 665 339 c 0
 685 340 709 345 728 377 c 1
 748 409 748 452 748 460 c 0
 748 517 717 541 680 541 c 0
 655 541 610 533 587 500 c 1
 596 500 632 498 632 458 c 0
 632 434 616 417 592 417 c 0
 569 417 551 433 551 460 c 0
 551 518 607 563 683 563 c 0
 760 563 822 520 822 459 c 0
 822 399 778 348 720 329 c 1
 802 311 842 253 842 196 c 0
 842 122 779 51 681 51 c 0
 599 51 531 100 531 168 c 0
154 305 m 0
 154 362 157 428 186 482 c 1
 215 542 264 563 312 563 c 0
 348 563 404 549 435 489 c 0
 467 433 470 363 470 305 c 0
 470 248 467 181 437 128 c 0
 407 68 354 51 311 51 c 0
 270 51 222 67 192 120 c 0
 157 177 154 251 154 305 c 0
222 315 m 0
 222 272 221 200 229 156 c 0
 241 88 283 70 311 70 c 0
 341 70 385 89 395 160 c 0
 402 206 402 263 402 315 c 0
 402 366 403 428 394 466 c 0
 380 530 336 544 311 544 c 0
 293 544 239 538 227 454 c 0
 221 414 222 365 222 315 c 0
EndSplineSet
EndChar
StartChar: uF26A0
Encoding: 992928 992928 1788
Width: 1000
Flags: MW
LayerCount: 2
Fore
SplineSet
49 300 m 0
 49 384 61 495 112 605 c 0
 171 732 261 800 271 800 c 0
 277 800 281 797 281 790 c 0
 281 787 281 785 268 773 c 0
 145 648 107 474 107 300 c 0
 107 223 115 137 139 54 c 0
 162 -28 202 -106 264 -168 c 0
 281 -185 281 -187 281 -190 c 0
 281 -197 277 -200 271 -200 c 0
 261 -200 175 -135 115 -12 c 0
 60 101 49 222 49 300 c 0
720 -190 m 0
 720 -187 720 -185 733 -173 c 0
 857 -47 894 129 894 300 c 0
 894 509 837 668 739 767 c 0
 720 785 720 787 720 790 c 0
 720 796 724 800 730 800 c 0
 740 800 826 735 886 612 c 0
 941 499 952 378 952 300 c 0
 952 216 940 105 889 -5 c 0
 830 -132 740 -200 730 -200 c 0
 724 -200 720 -196 720 -190 c 0
522 189 m 1
 522 215 l 1
 752 561 l 2
 758 571 760 571 769 571 c 0
 783 571 783 566 783 550 c 2
 783 215 l 1
 854 215 l 1
 854 189 l 1
 783 189 l 1
 783 119 l 1
 783 99 799 93 841 93 c 1
 853 93 l 1
 853 67 l 1
 824 69 780 69 750 69 c 0
 719 69 676 69 646 67 c 1
 646 93 l 1
 658 93 l 1
 700 93 719 99 719 119 c 1
 719 189 l 1
 522 189 l 1
546 215 m 1
 724 215 l 1
 724 483 l 1
 546 215 l 1
156 306 m 0
 156 363 158 429 187 483 c 1
 216 543 266 564 314 564 c 0
 350 564 405 550 436 490 c 0
 468 434 471 364 471 306 c 0
 471 249 469 182 439 129 c 0
 409 69 356 52 313 52 c 0
 272 52 223 68 193 121 c 0
 158 178 156 252 156 306 c 0
224 316 m 0
 224 273 223 202 231 158 c 0
 243 90 285 71 313 71 c 0
 343 71 387 91 397 162 c 0
 404 208 404 264 404 316 c 0
 404 367 405 429 396 467 c 0
 382 531 338 545 313 545 c 0
 295 545 241 538 229 454 c 0
 223 414 224 366 224 316 c 0
EndSplineSet
EndChar
StartChar: uF26A1
Encoding: 992929 992929 1789
Width: 1000
Flags: MW
LayerCount: 2
Fore
SplineSet
49 300 m 0
 49 384 61 495 112 605 c 0
 171 732 261 800 271 800 c 0
 277 800 281 797 281 790 c 0
 281 787 281 785 268 773 c 0
 145 648 107 474 107 300 c 0
 107 223 115 137 139 54 c 0
 162 -28 202 -106 264 -168 c 0
 281 -185 281 -187 281 -190 c 0
 281 -197 277 -200 271 -200 c 0
 261 -200 175 -135 115 -12 c 0
 60 101 49 222 49 300 c 0
720 -190 m 0
 720 -187 720 -185 733 -173 c 0
 857 -47 894 129 894 300 c 0
 894 509 837 668 739 767 c 0
 720 785 720 787 720 790 c 0
 720 796 724 800 730 800 c 0
 740 800 826 735 886 612 c 0
 941 499 952 378 952 300 c 0
 952 216 940 105 889 -5 c 0
 830 -132 740 -200 730 -200 c 0
 724 -200 720 -196 720 -190 c 0
536 186 m 0
 536 223 565 229 575 229 c 0
 598 229 613 212 613 188 c 0
 613 168 601 150 577 149 c 0
 571 149 567 149 565 150 c 1
 582 106 624 75 669 75 c 0
 701 75 727 92 743 118 c 1
 762 149 762 192 762 220 c 0
 762 258 761 290 749 317 c 0
 743 331 725 359 690 359 c 0
 638 359 607 327 595 309 c 0
 592 305 590 302 584 302 c 0
 573 302 573 308 573 322 c 2
 573 544 l 2
 573 556 573 562 581 562 c 0
 583 562 584 562 590 560 c 0
 620 546 655 539 690 539 c 0
 734 539 770 552 791 561 c 0
 796 563 797 563 798 563 c 0
 804 563 806 558 806 554 c 0
 806 542 752 469 659 469 c 0
 635 469 616 474 600 478 c 1
 600 343 l 1
 628 369 660 379 692 379 c 0
 777 379 835 304 835 216 c 0
 835 122 762 51 671 51 c 0
 588 51 536 122 536 186 c 0
153 305 m 0
 153 362 155 428 184 482 c 1
 213 542 263 563 311 563 c 0
 347 563 402 549 433 489 c 0
 465 433 468 363 468 305 c 0
 468 248 466 181 436 128 c 0
 406 68 353 51 310 51 c 0
 269 51 220 67 190 120 c 0
 155 177 153 251 153 305 c 0
220 315 m 0
 220 272 220 200 228 156 c 0
 240 88 282 70 310 70 c 0
 340 70 384 89 394 160 c 0
 401 206 401 263 401 315 c 0
 401 366 402 428 393 466 c 0
 379 530 335 544 310 544 c 0
 292 544 238 538 226 454 c 0
 220 414 220 365 220 315 c 0
EndSplineSet
EndChar
StartChar: uF26A2
Encoding: 992930 992930 1790
Width: 1000
Flags: MW
LayerCount: 2
Fore
SplineSet
49 300 m 0
 49 384 61 495 112 605 c 0
 171 732 261 800 271 800 c 0
 277 800 281 797 281 790 c 0
 281 787 281 785 268 773 c 0
 145 648 107 474 107 300 c 0
 107 223 115 137 139 54 c 0
 162 -28 202 -106 264 -168 c 0
 281 -185 281 -187 281 -190 c 0
 281 -197 277 -200 271 -200 c 0
 261 -200 175 -135 115 -12 c 0
 60 101 49 222 49 300 c 0
720 -190 m 0
 720 -187 720 -185 733 -173 c 0
 857 -47 894 129 894 300 c 0
 894 509 837 668 739 767 c 0
 720 785 720 787 720 790 c 0
 720 796 724 800 730 800 c 0
 740 800 826 735 886 612 c 0
 941 499 952 378 952 300 c 0
 952 216 940 105 889 -5 c 0
 830 -132 740 -200 730 -200 c 0
 724 -200 720 -196 720 -190 c 0
531 303 m 0
 531 475 634 563 728 563 c 0
 792 563 824 524 824 479 c 0
 824 450 804 440 788 440 c 0
 770 440 751 454 751 478 c 0
 751 509 778 513 792 514 c 1
 776 538 746 541 730 541 c 0
 704 541 662 527 635 483 c 0
 618 456 604 410 604 331 c 2
 604 314 l 1
 622 355 652 384 694 384 c 0
 776 384 842 317 842 219 c 0
 842 120 773 51 688 51 c 0
 644 51 596 70 564 130 c 1
 542 172 531 230 531 303 c 0
605 232 m 0
 605 218 605 159 618 127 c 0
 622 116 644 75 688 75 c 0
 709 75 740 82 758 122 c 0
 770 148 770 184 770 220 c 0
 770 258 770 294 757 321 c 0
 738 361 708 365 692 365 c 0
 632 365 605 299 605 232 c 0
154 305 m 0
 154 362 157 428 186 482 c 1
 215 542 264 563 312 563 c 0
 348 563 404 549 435 489 c 0
 467 433 470 363 470 305 c 0
 470 248 467 181 437 128 c 0
 407 68 354 51 311 51 c 0
 270 51 222 67 192 120 c 0
 157 177 154 251 154 305 c 0
222 315 m 0
 222 272 221 200 229 156 c 0
 241 88 283 70 311 70 c 0
 341 70 385 89 395 160 c 0
 402 206 402 263 402 315 c 0
 402 366 403 428 394 466 c 0
 380 530 336 544 311 544 c 0
 293 544 239 538 227 454 c 0
 221 414 222 365 222 315 c 0
EndSplineSet
EndChar
StartChar: uF26A8
Encoding: 992936 992936 1796
Width: 1000
VWidth: 1000
Flags: MW
LayerCount: 2
Fore
SplineSet
49 300 m 0
 49 384 61 495 112 605 c 0
 171 732 261 800 271 800 c 0
 277 800 281 797 281 790 c 0
 281 787 281 785 268 773 c 0
 145 648 107 474 107 300 c 0
 107 223 115 137 139 54 c 0
 162 -28 202 -106 264 -168 c 0
 281 -185 281 -187 281 -190 c 0
 281 -197 277 -200 271 -200 c 0
 261 -200 175 -135 115 -12 c 0
 60 101 49 222 49 300 c 0
720 -190 m 0
 720 -187 720 -185 733 -173 c 0
 857 -47 894 129 894 300 c 0
 894 509 837 668 739 767 c 0
 720 785 720 787 720 790 c 0
 720 796 724 800 730 800 c 0
 740 800 826 735 886 612 c 0
 941 499 952 378 952 300 c 0
 952 216 940 105 889 -5 c 0
 830 -132 740 -200 730 -200 c 0
 724 -200 720 -196 720 -190 c 0
532 168 m 0
 532 202 556 214 576 214 c 0
 600 214 620 198 620 169 c 0
 620 140 599 123 574 124 c 1
 602 86 652 75 680 75 c 0
 722 75 761 111 761 196 c 0
 761 261 740 317 676 317 c 2
 644 317 l 2
 631 317 626 317 626 327 c 0
 626 334 630 335 636 336 c 0
 640 336 656 338 667 339 c 0
 687 340 710 345 729 377 c 1
 749 409 749 452 749 460 c 0
 749 517 718 541 681 541 c 0
 656 541 612 533 589 500 c 1
 598 500 633 498 633 458 c 0
 633 434 617 417 593 417 c 0
 570 417 553 433 553 460 c 0
 553 518 608 563 684 563 c 0
 761 563 823 520 823 459 c 0
 823 399 779 348 721 329 c 1
 803 311 844 253 844 196 c 0
 844 122 781 51 683 51 c 0
 601 51 532 100 532 168 c 0
163 65 m 1
 163 69 163 76 163 78 c 2
 163 88 166 89 172 96 c 2
 313 255 l 2
 355 303 389 360 389 418 c 0
 389 478 357 537 292 537 c 0
 253 537 218 513 200 472 c 1
 202 472 203 472 208 472 c 0
 231 470 246 453 246 430 c 0
 246 397 220 387 205 387 c 0
 199 387 163 390 163 432 c 0
 163 499 220 563 304 563 c 0
 396 563 463 504 463 418 c 0
 463 344 418 306 312 212 c 1
 305 206 237 139 229 132 c 1
 354 132 l 2
 368 132 418 132 424 138 c 1
 432 148 437 185 441 205 c 1
 463 205 l 1
 442 65 l 1
 163 65 l 1
EndSplineSet
EndChar
StartChar: uF26A9
Encoding: 992937 992937 1797
Width: 1000
VWidth: 1000
Flags: MW
LayerCount: 2
Fore
SplineSet
49 300 m 0
 49 384 61 495 112 605 c 0
 171 732 261 800 271 800 c 0
 277 800 281 797 281 790 c 0
 281 787 281 785 268 773 c 0
 145 648 107 474 107 300 c 0
 107 223 115 137 139 54 c 0
 162 -28 202 -106 264 -168 c 0
 281 -185 281 -187 281 -190 c 0
 281 -197 277 -200 271 -200 c 0
 261 -200 175 -135 115 -12 c 0
 60 101 49 222 49 300 c 0
720 -190 m 0
 720 -187 720 -185 733 -173 c 0
 857 -47 894 129 894 300 c 0
 894 509 837 668 739 767 c 0
 720 785 720 787 720 790 c 0
 720 796 724 800 730 800 c 0
 740 800 826 735 886 612 c 0
 941 499 952 378 952 300 c 0
 952 216 940 105 889 -5 c 0
 830 -132 740 -200 730 -200 c 0
 724 -200 720 -196 720 -190 c 0
524 191 m 1
 524 218 l 1
 754 563 l 2
 760 573 761 572 770 572 c 0
 784 572 784 568 784 552 c 2
 784 218 l 1
 856 218 l 1
 856 191 l 1
 784 191 l 1
 784 122 l 1
 784 102 801 95 843 95 c 1
 855 95 l 1
 855 69 l 1
 826 71 782 71 752 71 c 0
 721 71 677 71 647 69 c 1
 647 95 l 1
 659 95 l 1
 701 95 720 102 720 122 c 1
 720 191 l 1
 524 191 l 1
548 218 m 1
 726 218 l 1
 726 485 l 1
 548 218 l 1
165 69 m 1
 165 73 165 80 165 82 c 2
 165 92 167 92 173 99 c 2
 314 258 l 2
 356 306 391 364 391 422 c 0
 391 482 359 540 294 540 c 0
 255 540 219 517 201 476 c 1
 203 476 205 476 210 476 c 0
 233 474 248 457 248 434 c 0
 248 401 222 390 207 390 c 0
 201 390 165 394 165 436 c 0
 165 503 221 566 305 566 c 0
 397 566 464 508 464 422 c 0
 464 348 420 310 314 216 c 1
 307 210 239 143 231 136 c 1
 356 136 l 2
 370 136 420 135 426 141 c 1
 434 151 439 188 443 208 c 1
 464 208 l 1
 444 69 l 1
 165 69 l 1
EndSplineSet
EndChar
StartChar: uF26AA
Encoding: 992938 992938 1798
Width: 1000
Flags: MW
LayerCount: 2
Fore
SplineSet
49 300 m 0
 49 384 61 495 112 605 c 0
 171 732 261 800 271 800 c 0
 277 800 281 797 281 790 c 0
 281 787 281 785 268 773 c 0
 145 648 107 474 107 300 c 0
 107 223 115 137 139 54 c 0
 162 -28 202 -106 264 -168 c 0
 281 -185 281 -187 281 -190 c 0
 281 -197 277 -200 271 -200 c 0
 261 -200 175 -135 115 -12 c 0
 60 101 49 222 49 300 c 0
720 -190 m 0
 720 -187 720 -185 733 -173 c 0
 857 -47 894 129 894 300 c 0
 894 509 837 668 739 767 c 0
 720 785 720 787 720 790 c 0
 720 796 724 800 730 800 c 0
 740 800 826 735 886 612 c 0
 941 499 952 378 952 300 c 0
 952 216 940 105 889 -5 c 0
 830 -132 740 -200 730 -200 c 0
 724 -200 720 -196 720 -190 c 0
537 186 m 0
 537 223 566 229 576 229 c 0
 599 229 615 212 615 188 c 0
 615 168 602 150 578 149 c 0
 572 149 568 149 566 150 c 1
 583 106 625 75 670 75 c 0
 702 75 729 92 745 118 c 1
 764 149 764 192 764 220 c 0
 764 258 762 290 750 317 c 0
 744 331 727 359 692 359 c 0
 640 359 609 327 597 309 c 0
 594 305 592 302 586 302 c 0
 575 302 574 308 574 322 c 2
 574 544 l 2
 574 556 574 562 582 562 c 0
 584 562 585 562 591 560 c 0
 621 546 657 539 692 539 c 0
 736 539 772 552 793 561 c 0
 798 563 799 563 800 563 c 0
 806 563 807 558 807 554 c 0
 807 542 753 469 660 469 c 0
 636 469 616 474 600 478 c 1
 600 343 l 1
 628 369 661 379 693 379 c 0
 778 379 837 304 837 216 c 0
 837 122 763 51 672 51 c 0
 589 51 537 122 537 186 c 0
162 65 m 1
 162 69 162 76 162 78 c 2
 162 88 165 89 171 96 c 2
 312 255 l 2
 354 303 388 360 388 418 c 0
 388 478 356 537 291 537 c 0
 252 537 217 513 199 472 c 1
 201 472 203 472 208 472 c 0
 231 470 245 453 245 430 c 0
 245 397 219 387 204 387 c 0
 198 387 162 390 162 432 c 0
 162 499 219 563 303 563 c 0
 395 563 462 504 462 418 c 0
 462 344 418 306 312 212 c 1
 305 206 236 139 228 132 c 1
 353 132 l 2
 367 132 417 132 423 138 c 1
 431 148 436 185 440 205 c 1
 462 205 l 1
 441 65 l 1
 162 65 l 1
EndSplineSet
EndChar
StartChar: uF26AB
Encoding: 992939 992939 1799
Width: 1000
VWidth: 1000
Flags: MW
LayerCount: 2
Fore
SplineSet
49 300 m 0
 49 384 61 495 112 605 c 0
 171 732 261 800 271 800 c 0
 277 800 281 797 281 790 c 0
 281 787 281 785 268 773 c 0
 145 648 107 474 107 300 c 0
 107 223 115 137 139 54 c 0
 162 -28 202 -106 264 -168 c 0
 281 -185 281 -187 281 -190 c 0
 281 -197 277 -200 271 -200 c 0
 261 -200 175 -135 115 -12 c 0
 60 101 49 222 49 300 c 0
720 -190 m 0
 720 -187 720 -185 733 -173 c 0
 857 -47 894 129 894 300 c 0
 894 509 837 668 739 767 c 0
 720 785 720 787 720 790 c 0
 720 796 724 800 730 800 c 0
 740 800 826 735 886 612 c 0
 941 499 952 378 952 300 c 0
 952 216 940 105 889 -5 c 0
 830 -132 740 -200 730 -200 c 0
 724 -200 720 -196 720 -190 c 0
532 303 m 0
 532 475 636 563 730 563 c 0
 794 563 825 524 825 479 c 0
 825 450 804 440 788 440 c 0
 770 440 753 454 753 478 c 0
 753 509 778 513 792 514 c 1
 776 538 747 541 731 541 c 0
 705 541 664 527 637 483 c 0
 620 456 605 410 605 331 c 2
 605 314 l 1
 623 355 654 384 696 384 c 0
 778 384 844 317 844 219 c 0
 844 120 775 51 690 51 c 0
 646 51 598 70 566 130 c 1
 544 172 532 230 532 303 c 0
606 232 m 0
 606 218 607 159 620 127 c 0
 624 116 645 75 689 75 c 0
 710 75 741 82 759 122 c 0
 771 148 771 184 771 220 c 0
 771 258 772 294 759 321 c 0
 740 361 709 365 693 365 c 0
 633 365 606 299 606 232 c 0
163 65 m 1
 163 69 163 76 163 78 c 2
 163 88 166 89 172 96 c 2
 313 255 l 2
 355 303 389 360 389 418 c 0
 389 478 357 537 292 537 c 0
 253 537 218 513 200 472 c 1
 202 472 203 472 208 472 c 0
 231 470 246 453 246 430 c 0
 246 397 220 387 205 387 c 0
 199 387 163 390 163 432 c 0
 163 499 220 563 304 563 c 0
 396 563 463 504 463 418 c 0
 463 344 418 306 312 212 c 1
 305 206 237 139 229 132 c 1
 354 132 l 2
 368 132 418 132 424 138 c 1
 432 148 437 185 441 205 c 1
 463 205 l 1
 442 65 l 1
 163 65 l 1
EndSplineSet
EndChar
StartChar: uF26AC
Encoding: 992940 992940 1800
Width: 1000
VWidth: 1000
Flags: MW
LayerCount: 2
Fore
SplineSet
49 300 m 0
 49 384 61 495 112 605 c 0
 171 732 261 800 271 800 c 0
 277 800 281 797 281 790 c 0
 281 787 281 785 268 773 c 0
 145 648 107 474 107 300 c 0
 107 223 115 137 139 54 c 0
 162 -28 202 -106 264 -168 c 0
 281 -185 281 -187 281 -190 c 0
 281 -197 277 -200 271 -200 c 0
 261 -200 175 -135 115 -12 c 0
 60 101 49 222 49 300 c 0
720 -190 m 0
 720 -187 720 -185 733 -173 c 0
 857 -47 894 129 894 300 c 0
 894 509 837 668 739 767 c 0
 720 785 720 787 720 790 c 0
 720 796 724 800 730 800 c 0
 740 800 826 735 886 612 c 0
 941 499 952 378 952 300 c 0
 952 216 940 105 889 -5 c 0
 830 -132 740 -200 730 -200 c 0
 724 -200 720 -196 720 -190 c 0
546 410 m 1
 570 574 l 1
 592 574 l 1
 594 565 595 558 615 554 c 1
 628 552 669 550 698 550 c 2
 868 550 l 1
 868 532 868 530 861 521 c 2
 760 381 l 2
 730 339 719 279 715 254 c 0
 709 215 707 174 707 134 c 2
 707 96 l 2
 707 78 699 52 671 52 c 0
 645 52 634 77 634 96 c 0
 634 181 665 285 732 382 c 1
 744 401 798 474 804 483 c 1
 659 483 l 2
 649 483 592 482 586 478 c 0
 578 471 571 433 568 410 c 1
 546 410 l 1
167 67 m 1
 167 71 167 78 167 80 c 2
 167 90 169 91 175 98 c 2
 316 256 l 2
 358 304 393 362 393 420 c 0
 393 480 361 538 296 538 c 0
 257 538 221 516 203 475 c 1
 205 475 207 474 212 474 c 0
 235 472 250 455 250 432 c 0
 250 399 224 389 209 389 c 0
 203 389 167 392 167 434 c 0
 167 501 223 564 307 564 c 0
 399 564 466 506 466 420 c 0
 466 346 422 308 316 214 c 1
 309 208 241 141 233 134 c 1
 358 134 l 2
 372 134 422 134 428 140 c 1
 436 150 440 186 444 206 c 1
 466 206 l 1
 446 67 l 1
 167 67 l 1
EndSplineSet
EndChar
StartChar: uF26AE
Encoding: 992942 992942 1802
Width: 1000
VWidth: 1000
Flags: MW
LayerCount: 2
Fore
SplineSet
49 300 m 0
 49 384 61 495 112 605 c 0
 171 732 261 800 271 800 c 0
 277 800 281 797 281 790 c 0
 281 787 281 785 268 773 c 0
 145 648 107 474 107 300 c 0
 107 223 115 137 139 54 c 0
 162 -28 202 -106 264 -168 c 0
 281 -185 281 -187 281 -190 c 0
 281 -197 277 -200 271 -200 c 0
 261 -200 175 -135 115 -12 c 0
 60 101 49 222 49 300 c 0
720 -190 m 0
 720 -187 720 -185 733 -173 c 0
 857 -47 894 129 894 300 c 0
 894 509 837 668 739 767 c 0
 720 785 720 787 720 790 c 0
 720 796 724 800 730 800 c 0
 740 800 826 735 886 612 c 0
 941 499 952 378 952 300 c 0
 952 216 940 105 889 -5 c 0
 830 -132 740 -200 730 -200 c 0
 724 -200 720 -196 720 -190 c 0
532 396 m 0
 532 451 549 486 580 518 c 1
 611 550 649 563 691 563 c 0
 780 563 844 476 844 312 c 0
 844 143 750 51 656 51 c 0
 590 51 551 85 551 135 c 0
 551 164 572 174 588 174 c 0
 606 174 623 160 623 136 c 0
 623 118 613 99 586 99 c 1
 606 76 642 75 655 75 c 0
 686 75 721 92 744 134 c 0
 761 164 771 211 771 279 c 2
 771 301 l 1
 752 255 721 231 681 231 c 0
 598 231 532 300 532 396 c 0
605 395 m 0
 605 357 605 321 618 294 c 0
 637 254 667 250 683 250 c 0
 746 250 770 324 770 382 c 0
 770 414 768 461 759 485 c 0
 749 513 726 541 691 541 c 0
 663 541 638 532 620 498 c 0
 605 471 605 435 605 395 c 0
163 65 m 1
 163 69 163 76 163 78 c 2
 163 88 166 89 172 96 c 2
 313 255 l 2
 355 303 389 360 389 418 c 0
 389 478 357 537 292 537 c 0
 253 537 218 513 200 472 c 1
 202 472 203 472 208 472 c 0
 231 470 246 453 246 430 c 0
 246 397 220 387 205 387 c 0
 199 387 163 390 163 432 c 0
 163 499 220 563 304 563 c 0
 396 563 463 504 463 418 c 0
 463 344 418 306 312 212 c 1
 305 206 237 139 229 132 c 1
 354 132 l 2
 368 132 418 132 424 138 c 1
 432 148 437 185 441 205 c 1
 463 205 l 1
 442 65 l 1
 163 65 l 1
EndSplineSet
EndChar
StartChar: uF26AF
Encoding: 992943 992943 1803
Width: 1000
Flags: MW
LayerCount: 2
Fore
SplineSet
49 300 m 0
 49 384 61 495 112 605 c 0
 171 732 261 800 271 800 c 0
 277 800 281 797 281 790 c 0
 281 787 281 785 268 773 c 0
 145 648 107 474 107 300 c 0
 107 223 115 137 139 54 c 0
 162 -28 202 -106 264 -168 c 0
 281 -185 281 -187 281 -190 c 0
 281 -197 277 -200 271 -200 c 0
 261 -200 175 -135 115 -12 c 0
 60 101 49 222 49 300 c 0
720 -190 m 0
 720 -187 720 -185 733 -173 c 0
 857 -47 894 129 894 300 c 0
 894 509 837 668 739 767 c 0
 720 785 720 787 720 790 c 0
 720 796 724 800 730 800 c 0
 740 800 826 735 886 612 c 0
 941 499 952 378 952 300 c 0
 952 216 940 105 889 -5 c 0
 830 -132 740 -200 730 -200 c 0
 724 -200 720 -196 720 -190 c 0
530 305 m 0
 530 362 532 428 561 482 c 1
 590 542 640 563 688 563 c 0
 724 563 779 549 810 489 c 0
 842 433 845 363 845 305 c 0
 845 248 843 181 813 128 c 0
 783 68 730 51 687 51 c 0
 646 51 597 67 567 120 c 0
 532 177 530 251 530 305 c 0
598 315 m 0
 598 272 597 200 605 156 c 0
 617 88 659 70 687 70 c 0
 717 70 761 89 771 160 c 0
 778 206 778 263 778 315 c 0
 778 366 779 428 770 466 c 0
 756 530 712 544 687 544 c 0
 669 544 615 538 603 454 c 0
 597 414 598 365 598 315 c 0
157 168 m 0
 157 202 181 214 201 214 c 0
 225 214 245 198 245 169 c 0
 245 140 223 123 198 124 c 1
 226 86 277 75 305 75 c 0
 347 75 386 111 386 196 c 0
 386 261 365 317 301 317 c 2
 268 317 l 2
 255 317 250 317 250 327 c 0
 250 334 255 335 261 336 c 0
 265 336 280 338 291 339 c 0
 311 340 335 345 354 377 c 1
 374 409 374 452 374 460 c 0
 374 517 343 541 306 541 c 0
 281 541 236 533 213 500 c 1
 222 500 258 498 258 458 c 0
 258 434 241 417 217 417 c 0
 194 417 177 433 177 460 c 0
 177 518 233 563 309 563 c 0
 386 563 448 520 448 459 c 0
 448 399 404 348 346 329 c 1
 428 311 468 253 468 196 c 0
 468 122 405 51 307 51 c 0
 225 51 157 100 157 168 c 0
EndSplineSet
EndChar
StartChar: uF26B1
Encoding: 992945 992945 1805
Width: 1000
Flags: MW
LayerCount: 2
Fore
SplineSet
49 300 m 0
 49 384 61 495 112 605 c 0
 171 732 261 800 271 800 c 0
 277 800 281 797 281 790 c 0
 281 787 281 785 268 773 c 0
 145 648 107 474 107 300 c 0
 107 223 115 137 139 54 c 0
 162 -28 202 -106 264 -168 c 0
 281 -185 281 -187 281 -190 c 0
 281 -197 277 -200 271 -200 c 0
 261 -200 175 -135 115 -12 c 0
 60 101 49 222 49 300 c 0
720 -190 m 0
 720 -187 720 -185 733 -173 c 0
 857 -47 894 129 894 300 c 0
 894 509 837 668 739 767 c 0
 720 785 720 787 720 790 c 0
 720 796 724 800 730 800 c 0
 740 800 826 735 886 612 c 0
 941 499 952 378 952 300 c 0
 952 216 940 105 889 -5 c 0
 830 -132 740 -200 730 -200 c 0
 724 -200 720 -196 720 -190 c 0
536 65 m 1
 536 69 536 76 536 78 c 2
 536 88 539 89 545 96 c 2
 686 255 l 2
 728 303 762 360 762 418 c 0
 762 478 730 537 665 537 c 0
 626 537 591 513 573 472 c 1
 575 472 577 472 582 472 c 0
 605 470 619 453 619 430 c 0
 619 397 593 387 578 387 c 0
 572 387 536 390 536 432 c 0
 536 499 593 563 677 563 c 0
 769 563 836 504 836 418 c 0
 836 344 792 306 686 212 c 1
 679 206 610 139 602 132 c 1
 727 132 l 2
 741 132 791 132 797 138 c 1
 805 148 810 185 814 205 c 1
 836 205 l 1
 815 65 l 1
 536 65 l 1
155 168 m 0
 155 202 179 214 199 214 c 0
 223 214 243 198 243 169 c 0
 243 140 222 123 197 124 c 1
 225 86 276 75 304 75 c 0
 346 75 384 111 384 196 c 0
 384 261 363 317 299 317 c 2
 267 317 l 2
 254 317 249 317 249 327 c 0
 249 334 254 335 260 336 c 0
 264 336 279 338 290 339 c 0
 310 340 333 345 352 377 c 1
 372 409 372 452 372 460 c 0
 372 517 341 541 304 541 c 0
 279 541 235 533 212 500 c 1
 221 500 256 498 256 458 c 0
 256 434 240 417 216 417 c 0
 193 417 176 433 176 460 c 0
 176 518 231 563 307 563 c 0
 384 563 446 520 446 459 c 0
 446 399 402 348 344 329 c 1
 426 311 467 253 467 196 c 0
 467 122 404 51 306 51 c 0
 224 51 155 100 155 168 c 0
EndSplineSet
EndChar
StartChar: uF26B4
Encoding: 992948 992948 1808
Width: 1000
VWidth: 1000
Flags: MW
LayerCount: 2
Fore
SplineSet
49 300 m 0
 49 384 61 495 112 605 c 0
 171 732 261 800 271 800 c 0
 277 800 281 797 281 790 c 0
 281 787 281 785 268 773 c 0
 145 648 107 474 107 300 c 0
 107 223 115 137 139 54 c 0
 162 -28 202 -106 264 -168 c 0
 281 -185 281 -187 281 -190 c 0
 281 -197 277 -200 271 -200 c 0
 261 -200 175 -135 115 -12 c 0
 60 101 49 222 49 300 c 0
720 -190 m 0
 720 -187 720 -185 733 -173 c 0
 857 -47 894 129 894 300 c 0
 894 509 837 668 739 767 c 0
 720 785 720 787 720 790 c 0
 720 796 724 800 730 800 c 0
 740 800 826 735 886 612 c 0
 941 499 952 378 952 300 c 0
 952 216 940 105 889 -5 c 0
 830 -132 740 -200 730 -200 c 0
 724 -200 720 -196 720 -190 c 0
536 186 m 0
 536 223 565 229 575 229 c 0
 598 229 614 212 614 188 c 0
 614 168 601 150 577 149 c 0
 571 149 568 149 566 150 c 1
 583 106 625 75 670 75 c 0
 702 75 728 92 744 118 c 1
 763 149 763 192 763 220 c 0
 763 258 761 290 749 317 c 0
 743 331 725 359 690 359 c 0
 638 359 608 327 596 309 c 0
 593 305 591 302 585 302 c 0
 574 302 574 308 574 322 c 2
 574 544 l 2
 574 556 573 562 581 562 c 0
 583 562 584 562 590 560 c 0
 620 546 655 539 690 539 c 0
 734 539 771 552 792 561 c 0
 797 563 798 563 799 563 c 0
 805 563 806 558 806 554 c 0
 806 542 753 469 660 469 c 0
 636 469 616 474 600 478 c 1
 600 343 l 1
 628 369 660 379 692 379 c 0
 777 379 836 304 836 216 c 0
 836 122 762 51 671 51 c 0
 588 51 536 122 536 186 c 0
155 168 m 0
 155 202 179 214 199 214 c 0
 223 214 243 198 243 169 c 0
 243 140 222 123 197 124 c 1
 225 86 276 75 304 75 c 0
 346 75 384 111 384 196 c 0
 384 261 363 317 299 317 c 2
 267 317 l 2
 254 317 249 317 249 327 c 0
 249 334 254 335 260 336 c 0
 264 336 279 338 290 339 c 0
 310 340 333 345 352 377 c 1
 372 409 372 452 372 460 c 0
 372 517 341 541 304 541 c 0
 279 541 235 533 212 500 c 1
 221 500 256 498 256 458 c 0
 256 434 240 417 216 417 c 0
 193 417 176 433 176 460 c 0
 176 518 231 563 307 563 c 0
 384 563 446 520 446 459 c 0
 446 399 402 348 344 329 c 1
 426 311 467 253 467 196 c 0
 467 122 404 51 306 51 c 0
 224 51 155 100 155 168 c 0
EndSplineSet
EndChar
StartChar: uF26B6
Encoding: 992950 992950 1810
Width: 1000
Flags: MW
LayerCount: 2
Fore
SplineSet
49 300 m 0
 49 384 61 495 112 605 c 0
 171 732 261 800 271 800 c 0
 277 800 281 797 281 790 c 0
 281 787 281 785 268 773 c 0
 145 648 107 474 107 300 c 0
 107 223 115 137 139 54 c 0
 162 -28 202 -106 264 -168 c 0
 281 -185 281 -187 281 -190 c 0
 281 -197 277 -200 271 -200 c 0
 261 -200 175 -135 115 -12 c 0
 60 101 49 222 49 300 c 0
720 -190 m 0
 720 -187 720 -185 733 -173 c 0
 857 -47 894 129 894 300 c 0
 894 509 837 668 739 767 c 0
 720 785 720 787 720 790 c 0
 720 796 724 800 730 800 c 0
 740 800 826 735 886 612 c 0
 941 499 952 378 952 300 c 0
 952 216 940 105 889 -5 c 0
 830 -132 740 -200 730 -200 c 0
 724 -200 720 -196 720 -190 c 0
545 410 m 1
 570 574 l 1
 592 574 l 1
 594 565 594 558 614 554 c 1
 627 552 668 550 697 550 c 2
 867 550 l 1
 867 532 867 530 860 521 c 2
 759 381 l 2
 729 339 718 279 714 254 c 0
 708 215 706 174 706 134 c 2
 706 96 l 2
 706 78 698 52 670 52 c 0
 644 52 634 77 634 96 c 0
 634 181 664 285 731 382 c 1
 743 401 797 474 803 483 c 1
 658 483 l 2
 648 483 592 482 586 478 c 0
 578 471 570 433 567 410 c 1
 545 410 l 1
160 169 m 0
 160 203 184 216 204 216 c 0
 228 216 248 199 248 170 c 0
 248 141 226 125 201 126 c 1
 229 88 280 76 308 76 c 0
 350 76 388 112 388 197 c 0
 388 262 368 318 304 318 c 2
 272 318 l 2
 259 318 254 318 254 328 c 0
 254 335 258 337 264 338 c 0
 268 338 283 339 294 340 c 0
 314 341 338 346 357 378 c 1
 377 410 377 454 377 462 c 0
 377 519 346 543 309 543 c 0
 284 543 239 535 216 502 c 1
 225 502 261 500 261 460 c 0
 261 436 244 418 220 418 c 0
 197 418 180 434 180 461 c 0
 180 519 236 564 312 564 c 0
 389 564 451 522 451 461 c 0
 451 401 407 350 349 331 c 1
 431 313 471 254 471 197 c 0
 471 123 408 52 310 52 c 0
 228 52 160 101 160 169 c 0
EndSplineSet
EndChar
StartChar: uF26BB
Encoding: 992955 992955 1815
Width: 1000
Flags: MW
LayerCount: 2
Fore
SplineSet
49 300 m 0
 49 384 61 495 112 605 c 0
 171 732 261 800 271 800 c 0
 277 800 281 797 281 790 c 0
 281 787 281 785 268 773 c 0
 145 648 107 474 107 300 c 0
 107 223 115 137 139 54 c 0
 162 -28 202 -106 264 -168 c 0
 281 -185 281 -187 281 -190 c 0
 281 -197 277 -200 271 -200 c 0
 261 -200 175 -135 115 -12 c 0
 60 101 49 222 49 300 c 0
720 -190 m 0
 720 -187 720 -185 733 -173 c 0
 857 -47 894 129 894 300 c 0
 894 509 837 668 739 767 c 0
 720 785 720 787 720 790 c 0
 720 796 724 800 730 800 c 0
 740 800 826 735 886 612 c 0
 941 499 952 378 952 300 c 0
 952 216 940 105 889 -5 c 0
 830 -132 740 -200 730 -200 c 0
 724 -200 720 -196 720 -190 c 0
535 69 m 1
 535 73 535 80 535 82 c 2
 535 92 537 92 543 99 c 2
 684 258 l 2
 726 306 761 364 761 422 c 0
 761 482 728 540 663 540 c 0
 624 540 589 517 571 476 c 1
 573 476 575 476 580 476 c 0
 603 474 617 457 617 434 c 0
 617 401 591 390 576 390 c 0
 570 390 535 394 535 436 c 0
 535 503 591 566 675 566 c 0
 767 566 834 508 834 422 c 0
 834 348 790 310 684 216 c 1
 677 210 608 143 600 136 c 1
 726 136 l 2
 740 136 790 135 796 141 c 1
 804 151 808 188 812 208 c 1
 834 208 l 1
 813 69 l 1
 535 69 l 1
143 191 m 1
 143 218 l 1
 372 563 l 2
 378 573 381 572 390 572 c 0
 404 572 403 568 403 552 c 2
 403 218 l 1
 475 218 l 1
 475 191 l 1
 403 191 l 1
 403 122 l 1
 403 102 420 95 462 95 c 1
 474 95 l 1
 474 69 l 1
 445 71 401 71 371 71 c 0
 340 71 297 71 267 69 c 1
 267 95 l 1
 279 95 l 1
 321 95 340 102 340 122 c 1
 340 191 l 1
 143 191 l 1
167 218 m 1
 345 218 l 1
 345 485 l 1
 167 218 l 1
EndSplineSet
EndChar
StartChar: uF26BC
Encoding: 992956 992956 1816
Width: 1000
VWidth: 1000
Flags: MW
LayerCount: 2
Fore
SplineSet
49 300 m 0
 49 384 61 495 112 605 c 0
 171 732 261 800 271 800 c 0
 277 800 281 797 281 790 c 0
 281 787 281 785 268 773 c 0
 145 648 107 474 107 300 c 0
 107 223 115 137 139 54 c 0
 162 -28 202 -106 264 -168 c 0
 281 -185 281 -187 281 -190 c 0
 281 -197 277 -200 271 -200 c 0
 261 -200 175 -135 115 -12 c 0
 60 101 49 222 49 300 c 0
720 -190 m 0
 720 -187 720 -185 733 -173 c 0
 857 -47 894 129 894 300 c 0
 894 509 837 668 739 767 c 0
 720 785 720 787 720 790 c 0
 720 796 724 800 730 800 c 0
 740 800 826 735 886 612 c 0
 941 499 952 378 952 300 c 0
 952 216 940 105 889 -5 c 0
 830 -132 740 -200 730 -200 c 0
 724 -200 720 -196 720 -190 c 0
530 168 m 0
 530 202 554 216 574 216 c 0
 598 216 618 199 618 170 c 0
 618 141 596 124 571 125 c 1
 599 87 650 76 678 76 c 0
 720 76 758 111 758 196 c 0
 758 261 737 318 673 318 c 2
 641 318 l 2
 628 318 623 318 623 328 c 0
 623 335 628 337 634 338 c 0
 638 338 653 339 664 340 c 0
 684 341 708 346 727 378 c 1
 747 410 747 454 747 462 c 0
 747 519 716 543 679 543 c 0
 654 543 609 534 586 501 c 1
 595 501 630 500 630 460 c 0
 630 436 614 418 590 418 c 0
 567 418 550 433 550 460 c 0
 550 518 606 564 682 564 c 0
 759 564 821 521 821 460 c 0
 821 400 777 350 719 331 c 1
 801 313 841 253 841 196 c 0
 841 122 778 52 680 52 c 0
 598 52 530 100 530 168 c 0
144 189 m 1
 144 215 l 1
 374 561 l 2
 380 571 381 571 390 571 c 0
 404 571 404 566 404 550 c 2
 404 215 l 1
 476 215 l 1
 476 189 l 1
 404 189 l 1
 404 119 l 1
 404 99 421 93 463 93 c 1
 475 93 l 1
 475 67 l 1
 446 69 402 69 372 69 c 0
 341 69 298 69 268 67 c 1
 268 93 l 1
 280 93 l 1
 322 93 341 99 341 119 c 1
 341 189 l 1
 144 189 l 1
168 215 m 1
 346 215 l 1
 346 483 l 1
 168 215 l 1
EndSplineSet
EndChar
StartChar: uF26BD
Encoding: 992957 992957 1817
Width: 1000
VWidth: 1000
Flags: MW
LayerCount: 2
Fore
SplineSet
49 300 m 0
 49 384 61 495 112 605 c 0
 171 732 261 800 271 800 c 0
 277 800 281 797 281 790 c 0
 281 787 281 785 268 773 c 0
 145 648 107 474 107 300 c 0
 107 223 115 137 139 54 c 0
 162 -28 202 -106 264 -168 c 0
 281 -185 281 -187 281 -190 c 0
 281 -197 277 -200 271 -200 c 0
 261 -200 175 -135 115 -12 c 0
 60 101 49 222 49 300 c 0
720 -190 m 0
 720 -187 720 -185 733 -173 c 0
 857 -47 894 129 894 300 c 0
 894 509 837 668 739 767 c 0
 720 785 720 787 720 790 c 0
 720 796 724 800 730 800 c 0
 740 800 826 735 886 612 c 0
 941 499 952 378 952 300 c 0
 952 216 940 105 889 -5 c 0
 830 -132 740 -200 730 -200 c 0
 724 -200 720 -196 720 -190 c 0
521 191 m 1
 521 218 l 1
 750 563 l 2
 756 573 759 572 768 572 c 0
 782 572 781 568 781 552 c 2
 781 218 l 1
 853 218 l 1
 853 191 l 1
 781 191 l 1
 781 122 l 1
 781 102 798 95 840 95 c 1
 852 95 l 1
 852 69 l 1
 823 71 779 71 749 71 c 0
 718 71 675 71 645 69 c 1
 645 95 l 1
 656 95 l 1
 698 95 717 102 717 122 c 1
 717 191 l 1
 521 191 l 1
545 218 m 1
 723 218 l 1
 723 485 l 1
 545 218 l 1
146 191 m 1
 146 218 l 1
 376 563 l 2
 382 573 383 572 392 572 c 0
 406 572 406 568 406 552 c 2
 406 218 l 1
 478 218 l 1
 478 191 l 1
 406 191 l 1
 406 122 l 1
 406 102 423 95 465 95 c 1
 477 95 l 1
 477 69 l 1
 448 71 404 71 374 71 c 0
 343 71 300 71 270 69 c 1
 270 95 l 1
 281 95 l 1
 323 95 342 102 342 122 c 1
 342 191 l 1
 146 191 l 1
170 218 m 1
 348 218 l 1
 348 485 l 1
 170 218 l 1
EndSplineSet
EndChar
StartChar: uF26BE
Encoding: 992958 992958 1818
Width: 1000
VWidth: 1000
Flags: MW
LayerCount: 2
Fore
SplineSet
49 300 m 0
 49 384 61 495 112 605 c 0
 171 732 261 800 271 800 c 0
 277 800 281 797 281 790 c 0
 281 787 281 785 268 773 c 0
 145 648 107 474 107 300 c 0
 107 223 115 137 139 54 c 0
 162 -28 202 -106 264 -168 c 0
 281 -185 281 -187 281 -190 c 0
 281 -197 277 -200 271 -200 c 0
 261 -200 175 -135 115 -12 c 0
 60 101 49 222 49 300 c 0
720 -190 m 0
 720 -187 720 -185 733 -173 c 0
 857 -47 894 129 894 300 c 0
 894 509 837 668 739 767 c 0
 720 785 720 787 720 790 c 0
 720 796 724 800 730 800 c 0
 740 800 826 735 886 612 c 0
 941 499 952 378 952 300 c 0
 952 216 940 105 889 -5 c 0
 830 -132 740 -200 730 -200 c 0
 724 -200 720 -196 720 -190 c 0
535 187 m 0
 535 224 563 230 573 230 c 0
 596 230 612 214 612 190 c 0
 612 170 600 151 576 150 c 0
 570 150 566 149 564 150 c 1
 581 106 623 76 668 76 c 0
 700 76 726 92 742 118 c 1
 761 149 761 194 761 222 c 0
 761 260 760 291 748 318 c 0
 742 332 723 360 688 360 c 0
 636 360 606 328 594 310 c 0
 591 306 589 303 583 303 c 0
 572 303 572 310 572 324 c 2
 572 545 l 2
 572 557 571 564 579 564 c 0
 581 564 582 563 588 561 c 0
 618 547 653 540 688 540 c 0
 732 540 769 553 790 562 c 0
 795 564 796 564 797 564 c 0
 803 564 805 558 805 554 c 0
 805 542 751 470 658 470 c 0
 634 470 614 475 598 479 c 1
 598 344 l 1
 626 370 658 380 690 380 c 0
 775 380 834 306 834 218 c 0
 834 124 760 52 669 52 c 0
 586 52 535 123 535 187 c 0
143 189 m 1
 143 215 l 1
 372 561 l 2
 378 571 381 571 390 571 c 0
 404 571 403 566 403 550 c 2
 403 215 l 1
 475 215 l 1
 475 189 l 1
 403 189 l 1
 403 119 l 1
 403 99 420 93 462 93 c 1
 474 93 l 1
 474 67 l 1
 445 69 401 69 371 69 c 0
 340 69 297 69 267 67 c 1
 267 93 l 1
 279 93 l 1
 321 93 340 99 340 119 c 1
 340 189 l 1
 143 189 l 1
167 215 m 1
 345 215 l 1
 345 483 l 1
 167 215 l 1
EndSplineSet
EndChar
StartChar: uF26BF
Encoding: 992959 992959 1819
Width: 1000
VWidth: 1000
Flags: MW
LayerCount: 2
Fore
SplineSet
49 300 m 0
 49 384 61 495 112 605 c 0
 171 732 261 800 271 800 c 0
 277 800 281 797 281 790 c 0
 281 787 281 785 268 773 c 0
 145 648 107 474 107 300 c 0
 107 223 115 137 139 54 c 0
 162 -28 202 -106 264 -168 c 0
 281 -185 281 -187 281 -190 c 0
 281 -197 277 -200 271 -200 c 0
 261 -200 175 -135 115 -12 c 0
 60 101 49 222 49 300 c 0
720 -190 m 0
 720 -187 720 -185 733 -173 c 0
 857 -47 894 129 894 300 c 0
 894 509 837 668 739 767 c 0
 720 785 720 787 720 790 c 0
 720 796 724 800 730 800 c 0
 740 800 826 735 886 612 c 0
 941 499 952 378 952 300 c 0
 952 216 940 105 889 -5 c 0
 830 -132 740 -200 730 -200 c 0
 724 -200 720 -196 720 -190 c 0
530 304 m 0
 530 476 633 564 727 564 c 0
 791 564 822 525 822 480 c 0
 822 451 802 440 786 440 c 0
 768 440 750 454 750 478 c 0
 750 509 776 515 790 516 c 1
 774 540 744 543 728 543 c 0
 702 543 661 528 634 484 c 0
 617 457 602 411 602 332 c 2
 602 315 l 1
 620 356 650 385 692 385 c 0
 774 385 841 318 841 220 c 0
 841 121 771 52 686 52 c 0
 642 52 595 71 563 131 c 1
 541 173 530 231 530 304 c 0
604 233 m 0
 604 219 603 161 616 129 c 0
 620 118 642 76 686 76 c 0
 707 76 739 82 757 122 c 0
 769 148 768 185 768 221 c 0
 768 259 769 295 756 322 c 0
 737 362 706 366 690 366 c 0
 630 366 604 300 604 233 c 0
144 189 m 1
 144 215 l 1
 374 561 l 2
 380 571 381 571 390 571 c 0
 404 571 404 566 404 550 c 2
 404 215 l 1
 476 215 l 1
 476 189 l 1
 404 189 l 1
 404 119 l 1
 404 99 421 93 463 93 c 1
 475 93 l 1
 475 67 l 1
 446 69 402 69 372 69 c 0
 341 69 298 69 268 67 c 1
 268 93 l 1
 280 93 l 1
 322 93 341 99 341 119 c 1
 341 189 l 1
 144 189 l 1
168 215 m 1
 346 215 l 1
 346 483 l 1
 168 215 l 1
EndSplineSet
EndChar
StartChar: uF26C1
Encoding: 992961 992961 1821
Width: 1000
Flags: MW
LayerCount: 2
Fore
SplineSet
49 300 m 0
 49 384 61 495 112 605 c 0
 171 732 261 800 271 800 c 0
 277 800 281 797 281 790 c 0
 281 787 281 785 268 773 c 0
 145 648 107 474 107 300 c 0
 107 223 115 137 139 54 c 0
 162 -28 202 -106 264 -168 c 0
 281 -185 281 -187 281 -190 c 0
 281 -197 277 -200 271 -200 c 0
 261 -200 175 -135 115 -12 c 0
 60 101 49 222 49 300 c 0
720 -190 m 0
 720 -187 720 -185 733 -173 c 0
 857 -47 894 129 894 300 c 0
 894 509 837 668 739 767 c 0
 720 785 720 787 720 790 c 0
 720 796 724 800 730 800 c 0
 740 800 826 735 886 612 c 0
 941 499 952 378 952 300 c 0
 952 216 940 105 889 -5 c 0
 830 -132 740 -200 730 -200 c 0
 724 -200 720 -196 720 -190 c 0
530 182 m 0
 530 252 585 292 632 316 c 1
 614 328 589 346 581 356 c 0
 552 389 550 421 550 437 c 0
 550 507 607 564 686 564 c 0
 756 564 821 524 821 453 c 0
 821 405 788 367 736 339 c 1
 776 314 790 306 805 289 c 0
 831 259 841 227 841 196 c 0
 841 116 775 52 685 52 c 0
 605 52 530 99 530 182 c 0
572 182 m 0
 572 121 622 76 686 76 c 0
 742 76 799 108 799 166 c 0
 799 210 767 230 744 245 c 1
 735 251 658 299 652 303 c 1
 598 273 572 230 572 182 c 0
587 470 m 0
 587 454 594 432 622 414 c 2
 716 353 l 1
 757 378 784 411 784 453 c 0
 784 506 740 543 685 543 c 0
 639 543 587 518 587 470 c 0
144 189 m 1
 144 215 l 1
 374 561 l 2
 380 571 381 571 390 571 c 0
 404 571 404 566 404 550 c 2
 404 215 l 1
 476 215 l 1
 476 189 l 1
 404 189 l 1
 404 119 l 1
 404 99 421 93 463 93 c 1
 475 93 l 1
 475 67 l 1
 446 69 402 69 372 69 c 0
 341 69 298 69 268 67 c 1
 268 93 l 1
 280 93 l 1
 322 93 341 99 341 119 c 1
 341 189 l 1
 144 189 l 1
168 215 m 1
 346 215 l 1
 346 483 l 1
 168 215 l 1
EndSplineSet
EndChar
StartChar: uF26C2
Encoding: 992962 992962 1822
Width: 1000
Flags: MW
LayerCount: 2
Fore
SplineSet
49 300 m 0
 49 384 61 495 112 605 c 0
 171 732 261 800 271 800 c 0
 277 800 281 797 281 790 c 0
 281 787 281 785 268 773 c 0
 145 648 107 474 107 300 c 0
 107 223 115 137 139 54 c 0
 162 -28 202 -106 264 -168 c 0
 281 -185 281 -187 281 -190 c 0
 281 -197 277 -200 271 -200 c 0
 261 -200 175 -135 115 -12 c 0
 60 101 49 222 49 300 c 0
720 -190 m 0
 720 -187 720 -185 733 -173 c 0
 857 -47 894 129 894 300 c 0
 894 509 837 668 739 767 c 0
 720 785 720 787 720 790 c 0
 720 796 724 800 730 800 c 0
 740 800 826 735 886 612 c 0
 941 499 952 378 952 300 c 0
 952 216 940 105 889 -5 c 0
 830 -132 740 -200 730 -200 c 0
 724 -200 720 -196 720 -190 c 0
530 398 m 0
 530 453 547 487 578 519 c 1
 609 551 646 564 688 564 c 0
 777 564 841 478 841 314 c 0
 841 145 747 52 653 52 c 0
 587 52 548 86 548 136 c 0
 548 165 569 175 585 175 c 0
 603 175 620 162 620 138 c 0
 620 120 610 100 583 100 c 1
 603 77 639 76 652 76 c 0
 683 76 718 93 741 135 c 0
 758 165 768 212 768 280 c 2
 768 302 l 1
 749 256 718 232 678 232 c 0
 595 232 530 302 530 398 c 0
602 396 m 0
 602 358 602 322 615 295 c 0
 634 255 664 252 680 252 c 0
 743 252 767 326 767 384 c 0
 767 416 765 462 756 486 c 0
 746 514 723 543 688 543 c 0
 660 543 635 533 617 499 c 0
 602 472 602 436 602 396 c 0
144 189 m 1
 144 215 l 1
 374 561 l 2
 380 571 381 571 390 571 c 0
 404 571 404 566 404 550 c 2
 404 215 l 1
 476 215 l 1
 476 189 l 1
 404 189 l 1
 404 119 l 1
 404 99 421 93 463 93 c 1
 475 93 l 1
 475 67 l 1
 446 69 402 69 372 69 c 0
 341 69 298 69 268 67 c 1
 268 93 l 1
 280 93 l 1
 322 93 341 99 341 119 c 1
 341 189 l 1
 144 189 l 1
168 215 m 1
 346 215 l 1
 346 483 l 1
 168 215 l 1
EndSplineSet
EndChar
StartChar: uF26C4
Encoding: 992964 992964 1824
Width: 1000
Flags: MW
LayerCount: 2
Fore
SplineSet
49 300 m 0
 49 384 61 495 112 605 c 0
 171 732 261 800 271 800 c 0
 277 800 281 797 281 790 c 0
 281 787 281 785 268 773 c 0
 145 648 107 474 107 300 c 0
 107 223 115 137 139 54 c 0
 162 -28 202 -106 264 -168 c 0
 281 -185 281 -187 281 -190 c 0
 281 -197 277 -200 271 -200 c 0
 261 -200 175 -135 115 -12 c 0
 60 101 49 222 49 300 c 0
720 -190 m 0
 720 -187 720 -185 733 -173 c 0
 857 -47 894 129 894 300 c 0
 894 509 837 668 739 767 c 0
 720 785 720 787 720 790 c 0
 720 796 724 800 730 800 c 0
 740 800 826 735 886 612 c 0
 941 499 952 378 952 300 c 0
 952 216 940 105 889 -5 c 0
 830 -132 740 -200 730 -200 c 0
 724 -200 720 -196 720 -190 c 0
560 489 m 1
 560 515 l 1
 564 515 l 1
 588 515 650 517 695 558 c 0
 698 561 698 561 702 563 c 1
 719 563 720 560 720 542 c 2
 720 119 l 1
 720 98 743 92 794 92 c 1
 812 92 l 1
 812 65 l 1
 786 67 719 68 689 68 c 0
 659 68 591 67 565 65 c 1
 565 92 l 1
 583 92 l 1
 634 92 658 99 658 119 c 1
 658 507 l 1
 622 491 580 489 564 489 c 1
 560 489 l 1
159 186 m 0
 159 223 187 229 197 229 c 0
 220 229 236 212 236 188 c 0
 236 168 224 150 200 149 c 0
 194 149 190 149 188 150 c 1
 205 106 247 75 292 75 c 0
 324 75 350 92 366 118 c 1
 385 149 385 192 385 220 c 0
 385 258 384 290 372 317 c 0
 366 331 348 359 313 359 c 0
 261 359 230 327 218 309 c 0
 215 305 213 302 207 302 c 0
 196 302 196 308 196 322 c 2
 196 544 l 2
 196 556 196 562 204 562 c 0
 206 562 206 562 212 560 c 0
 242 546 278 539 313 539 c 0
 357 539 393 552 414 561 c 0
 419 563 420 563 421 563 c 0
 427 563 430 558 430 554 c 0
 430 542 375 469 282 469 c 0
 258 469 238 474 222 478 c 1
 222 343 l 1
 250 369 282 379 314 379 c 0
 399 379 458 304 458 216 c 0
 458 122 385 51 294 51 c 0
 211 51 159 122 159 186 c 0
EndSplineSet
EndChar
StartChar: uF26C5
Encoding: 992965 992965 1825
Width: 1000
VWidth: 1000
Flags: MW
LayerCount: 2
Fore
SplineSet
49 300 m 0
 49 384 61 495 112 605 c 0
 171 732 261 800 271 800 c 0
 277 800 281 797 281 790 c 0
 281 787 281 785 268 773 c 0
 145 648 107 474 107 300 c 0
 107 223 115 137 139 54 c 0
 162 -28 202 -106 264 -168 c 0
 281 -185 281 -187 281 -190 c 0
 281 -197 277 -200 271 -200 c 0
 261 -200 175 -135 115 -12 c 0
 60 101 49 222 49 300 c 0
720 -190 m 0
 720 -187 720 -185 733 -173 c 0
 857 -47 894 129 894 300 c 0
 894 509 837 668 739 767 c 0
 720 785 720 787 720 790 c 0
 720 796 724 800 730 800 c 0
 740 800 826 735 886 612 c 0
 941 499 952 378 952 300 c 0
 952 216 940 105 889 -5 c 0
 830 -132 740 -200 730 -200 c 0
 724 -200 720 -196 720 -190 c 0
537 65 m 1
 537 69 537 76 537 78 c 2
 537 88 540 89 546 96 c 2
 687 255 l 2
 729 303 763 360 763 418 c 0
 763 478 731 537 666 537 c 0
 627 537 592 513 574 472 c 1
 576 472 577 472 582 472 c 0
 605 470 620 453 620 430 c 0
 620 397 594 387 579 387 c 0
 573 387 537 390 537 432 c 0
 537 499 594 563 678 563 c 0
 770 563 837 504 837 418 c 0
 837 344 792 306 686 212 c 1
 679 206 611 139 603 132 c 1
 728 132 l 2
 742 132 792 132 798 138 c 1
 806 148 811 185 815 205 c 1
 837 205 l 1
 816 65 l 1
 537 65 l 1
162 186 m 0
 162 223 191 229 201 229 c 0
 224 229 240 212 240 188 c 0
 240 168 227 150 203 149 c 0
 197 149 194 149 192 150 c 1
 209 106 251 75 296 75 c 0
 328 75 354 92 370 118 c 1
 389 149 389 192 389 220 c 0
 389 258 387 290 375 317 c 0
 369 331 351 359 316 359 c 0
 264 359 234 327 222 309 c 0
 219 305 217 302 211 302 c 0
 200 302 200 308 200 322 c 2
 200 544 l 2
 200 556 199 562 207 562 c 0
 209 562 210 562 216 560 c 0
 246 546 281 539 316 539 c 0
 360 539 397 552 418 561 c 0
 423 563 424 563 425 563 c 0
 431 563 432 558 432 554 c 0
 432 542 379 469 286 469 c 0
 262 469 242 474 226 478 c 1
 226 343 l 1
 254 369 286 379 318 379 c 0
 403 379 462 304 462 216 c 0
 462 122 388 51 297 51 c 0
 214 51 162 122 162 186 c 0
EndSplineSet
EndChar
StartChar: uF26C7
Encoding: 992967 992967 1827
Width: 1000
VWidth: 1000
Flags: MW
LayerCount: 2
Fore
SplineSet
49 300 m 0
 49 384 61 495 112 605 c 0
 171 732 261 800 271 800 c 0
 277 800 281 797 281 790 c 0
 281 787 281 785 268 773 c 0
 145 648 107 474 107 300 c 0
 107 223 115 137 139 54 c 0
 162 -28 202 -106 264 -168 c 0
 281 -185 281 -187 281 -190 c 0
 281 -197 277 -200 271 -200 c 0
 261 -200 175 -135 115 -12 c 0
 60 101 49 222 49 300 c 0
720 -190 m 0
 720 -187 720 -185 733 -173 c 0
 857 -47 894 129 894 300 c 0
 894 509 837 668 739 767 c 0
 720 785 720 787 720 790 c 0
 720 796 724 800 730 800 c 0
 740 800 826 735 886 612 c 0
 941 499 952 378 952 300 c 0
 952 216 940 105 889 -5 c 0
 830 -132 740 -200 730 -200 c 0
 724 -200 720 -196 720 -190 c 0
524 189 m 1
 524 215 l 1
 754 561 l 2
 760 571 761 571 770 571 c 0
 784 571 784 566 784 550 c 2
 784 215 l 1
 856 215 l 1
 856 189 l 1
 784 189 l 1
 784 119 l 1
 784 99 801 93 843 93 c 1
 855 93 l 1
 855 67 l 1
 826 69 782 69 752 69 c 0
 721 69 677 69 647 67 c 1
 647 93 l 1
 659 93 l 1
 701 93 720 99 720 119 c 1
 720 189 l 1
 524 189 l 1
548 215 m 1
 726 215 l 1
 726 483 l 1
 548 215 l 1
165 187 m 0
 165 224 194 230 204 230 c 0
 227 230 242 214 242 190 c 0
 242 170 230 151 206 150 c 0
 200 150 196 149 194 150 c 1
 211 106 253 76 298 76 c 0
 330 76 357 92 373 118 c 1
 392 149 392 194 392 222 c 0
 392 260 390 291 378 318 c 0
 372 332 353 360 318 360 c 0
 266 360 237 328 225 310 c 0
 222 306 220 303 214 303 c 0
 203 303 202 310 202 324 c 2
 202 545 l 2
 202 557 202 564 210 564 c 0
 212 564 213 563 219 561 c 0
 249 547 285 540 320 540 c 0
 364 540 400 553 421 562 c 0
 426 564 427 564 428 564 c 0
 434 564 435 558 435 554 c 0
 435 542 381 470 288 470 c 0
 264 470 244 475 228 479 c 1
 228 344 l 1
 256 370 289 380 321 380 c 0
 406 380 464 306 464 218 c 0
 464 124 391 52 300 52 c 0
 217 52 165 123 165 187 c 0
EndSplineSet
EndChar
StartChar: uF26C8
Encoding: 992968 992968 1828
Width: 1000
VWidth: 1000
Flags: MW
LayerCount: 2
Fore
SplineSet
49 300 m 0
 49 384 61 495 112 605 c 0
 171 732 261 800 271 800 c 0
 277 800 281 797 281 790 c 0
 281 787 281 785 268 773 c 0
 145 648 107 474 107 300 c 0
 107 223 115 137 139 54 c 0
 162 -28 202 -106 264 -168 c 0
 281 -185 281 -187 281 -190 c 0
 281 -197 277 -200 271 -200 c 0
 261 -200 175 -135 115 -12 c 0
 60 101 49 222 49 300 c 0
720 -190 m 0
 720 -187 720 -185 733 -173 c 0
 857 -47 894 129 894 300 c 0
 894 509 837 668 739 767 c 0
 720 785 720 787 720 790 c 0
 720 796 724 800 730 800 c 0
 740 800 826 735 886 612 c 0
 941 499 952 378 952 300 c 0
 952 216 940 105 889 -5 c 0
 830 -132 740 -200 730 -200 c 0
 724 -200 720 -196 720 -190 c 0
537 186 m 0
 537 223 566 229 576 229 c 0
 599 229 615 212 615 188 c 0
 615 168 602 150 578 149 c 0
 572 149 568 149 566 150 c 1
 583 106 625 75 670 75 c 0
 702 75 729 92 745 118 c 1
 764 149 764 192 764 220 c 0
 764 258 762 290 750 317 c 0
 744 331 727 359 692 359 c 0
 640 359 609 327 597 309 c 0
 594 305 592 302 586 302 c 0
 575 302 574 308 574 322 c 2
 574 544 l 2
 574 556 574 562 582 562 c 0
 584 562 585 562 591 560 c 0
 621 546 657 539 692 539 c 0
 736 539 772 552 793 561 c 0
 798 563 799 563 800 563 c 0
 806 563 807 558 807 554 c 0
 807 542 753 469 660 469 c 0
 636 469 616 474 600 478 c 1
 600 343 l 1
 628 369 661 379 693 379 c 0
 778 379 837 304 837 216 c 0
 837 122 763 51 672 51 c 0
 589 51 537 122 537 186 c 0
162 186 m 0
 162 223 191 229 201 229 c 0
 224 229 240 212 240 188 c 0
 240 168 227 150 203 149 c 0
 197 149 194 149 192 150 c 1
 209 106 251 75 296 75 c 0
 328 75 354 92 370 118 c 1
 389 149 389 192 389 220 c 0
 389 258 387 290 375 317 c 0
 369 331 351 359 316 359 c 0
 264 359 234 327 222 309 c 0
 219 305 217 302 211 302 c 0
 200 302 200 308 200 322 c 2
 200 544 l 2
 200 556 199 562 207 562 c 0
 209 562 210 562 216 560 c 0
 246 546 281 539 316 539 c 0
 360 539 397 552 418 561 c 0
 423 563 424 563 425 563 c 0
 431 563 432 558 432 554 c 0
 432 542 379 469 286 469 c 0
 262 469 242 474 226 478 c 1
 226 343 l 1
 254 369 286 379 318 379 c 0
 403 379 462 304 462 216 c 0
 462 122 388 51 297 51 c 0
 214 51 162 122 162 186 c 0
EndSplineSet
EndChar
StartChar: uF26C9
Encoding: 992969 992969 1829
Width: 1000
VWidth: 1000
Flags: MW
LayerCount: 2
Fore
SplineSet
49 300 m 0
 49 384 61 495 112 605 c 0
 171 732 261 800 271 800 c 0
 277 800 281 797 281 790 c 0
 281 787 281 785 268 773 c 0
 145 648 107 474 107 300 c 0
 107 223 115 137 139 54 c 0
 162 -28 202 -106 264 -168 c 0
 281 -185 281 -187 281 -190 c 0
 281 -197 277 -200 271 -200 c 0
 261 -200 175 -135 115 -12 c 0
 60 101 49 222 49 300 c 0
720 -190 m 0
 720 -187 720 -185 733 -173 c 0
 857 -47 894 129 894 300 c 0
 894 509 837 668 739 767 c 0
 720 785 720 787 720 790 c 0
 720 796 724 800 730 800 c 0
 740 800 826 735 886 612 c 0
 941 499 952 378 952 300 c 0
 952 216 940 105 889 -5 c 0
 830 -132 740 -200 730 -200 c 0
 724 -200 720 -196 720 -190 c 0
532 303 m 0
 532 475 636 563 730 563 c 0
 794 563 825 524 825 479 c 0
 825 450 804 440 788 440 c 0
 770 440 753 454 753 478 c 0
 753 509 778 513 792 514 c 1
 776 538 747 541 731 541 c 0
 705 541 664 527 637 483 c 0
 620 456 605 410 605 331 c 2
 605 314 l 1
 623 355 654 384 696 384 c 0
 778 384 844 317 844 219 c 0
 844 120 775 51 690 51 c 0
 646 51 598 70 566 130 c 1
 544 172 532 230 532 303 c 0
606 232 m 0
 606 218 607 159 620 127 c 0
 624 116 645 75 689 75 c 0
 710 75 741 82 759 122 c 0
 771 148 771 184 771 220 c 0
 771 258 772 294 759 321 c 0
 740 361 709 365 693 365 c 0
 633 365 606 299 606 232 c 0
163 186 m 0
 163 223 192 229 202 229 c 0
 225 229 241 212 241 188 c 0
 241 168 228 150 204 149 c 0
 198 149 194 149 192 150 c 1
 209 106 251 75 296 75 c 0
 328 75 355 92 371 118 c 1
 390 149 390 192 390 220 c 0
 390 258 388 290 376 317 c 0
 370 331 353 359 318 359 c 0
 266 359 235 327 223 309 c 0
 220 305 218 302 212 302 c 0
 201 302 200 308 200 322 c 2
 200 544 l 2
 200 556 200 562 208 562 c 0
 210 562 211 562 217 560 c 0
 247 546 283 539 318 539 c 0
 362 539 398 552 419 561 c 0
 424 563 425 563 426 563 c 0
 432 563 433 558 433 554 c 0
 433 542 379 469 286 469 c 0
 262 469 242 474 226 478 c 1
 226 343 l 1
 254 369 287 379 319 379 c 0
 404 379 463 304 463 216 c 0
 463 122 389 51 298 51 c 0
 215 51 163 122 163 186 c 0
EndSplineSet
EndChar
StartChar: uF26CC
Encoding: 992972 992972 1832
Width: 1000
Flags: MW
LayerCount: 2
Fore
SplineSet
49 300 m 0
 49 384 61 495 112 605 c 0
 171 732 261 800 271 800 c 0
 277 800 281 797 281 790 c 0
 281 787 281 785 268 773 c 0
 145 648 107 474 107 300 c 0
 107 223 115 137 139 54 c 0
 162 -28 202 -106 264 -168 c 0
 281 -185 281 -187 281 -190 c 0
 281 -197 277 -200 271 -200 c 0
 261 -200 175 -135 115 -12 c 0
 60 101 49 222 49 300 c 0
720 -190 m 0
 720 -187 720 -185 733 -173 c 0
 857 -47 894 129 894 300 c 0
 894 509 837 668 739 767 c 0
 720 785 720 787 720 790 c 0
 720 796 724 800 730 800 c 0
 740 800 826 735 886 612 c 0
 941 499 952 378 952 300 c 0
 952 216 940 105 889 -5 c 0
 830 -132 740 -200 730 -200 c 0
 724 -200 720 -196 720 -190 c 0
532 396 m 0
 532 451 549 486 580 518 c 1
 611 550 649 563 691 563 c 0
 780 563 844 476 844 312 c 0
 844 143 750 51 656 51 c 0
 590 51 551 85 551 135 c 0
 551 164 572 174 588 174 c 0
 606 174 623 160 623 136 c 0
 623 118 613 99 586 99 c 1
 606 76 642 75 655 75 c 0
 686 75 721 92 744 134 c 0
 761 164 771 211 771 279 c 2
 771 301 l 1
 752 255 721 231 681 231 c 0
 598 231 532 300 532 396 c 0
605 395 m 0
 605 357 605 321 618 294 c 0
 637 254 667 250 683 250 c 0
 746 250 770 324 770 382 c 0
 770 414 768 461 759 485 c 0
 749 513 726 541 691 541 c 0
 663 541 638 532 620 498 c 0
 605 471 605 435 605 395 c 0
163 186 m 0
 163 223 192 229 202 229 c 0
 225 229 241 212 241 188 c 0
 241 168 228 150 204 149 c 0
 198 149 194 149 192 150 c 1
 209 106 251 75 296 75 c 0
 328 75 355 92 371 118 c 1
 390 149 390 192 390 220 c 0
 390 258 388 290 376 317 c 0
 370 331 353 359 318 359 c 0
 266 359 235 327 223 309 c 0
 220 305 218 302 212 302 c 0
 201 302 200 308 200 322 c 2
 200 544 l 2
 200 556 200 562 208 562 c 0
 210 562 211 562 217 560 c 0
 247 546 283 539 318 539 c 0
 362 539 398 552 419 561 c 0
 424 563 425 563 426 563 c 0
 432 563 433 558 433 554 c 0
 433 542 379 469 286 469 c 0
 262 469 242 474 226 478 c 1
 226 343 l 1
 254 369 287 379 319 379 c 0
 404 379 463 304 463 216 c 0
 463 122 389 51 298 51 c 0
 215 51 163 122 163 186 c 0
EndSplineSet
EndChar
StartChar: uF26CD
Encoding: 992973 992973 1833
Width: 1000
VWidth: 1000
Flags: MW
LayerCount: 2
Fore
SplineSet
49 300 m 0
 49 384 61 495 112 605 c 0
 171 732 261 800 271 800 c 0
 277 800 281 797 281 790 c 0
 281 787 281 785 268 773 c 0
 145 648 107 474 107 300 c 0
 107 223 115 137 139 54 c 0
 162 -28 202 -106 264 -168 c 0
 281 -185 281 -187 281 -190 c 0
 281 -197 277 -200 271 -200 c 0
 261 -200 175 -135 115 -12 c 0
 60 101 49 222 49 300 c 0
720 -190 m 0
 720 -187 720 -185 733 -173 c 0
 857 -47 894 129 894 300 c 0
 894 509 837 668 739 767 c 0
 720 785 720 787 720 790 c 0
 720 796 724 800 730 800 c 0
 740 800 826 735 886 612 c 0
 941 499 952 378 952 300 c 0
 952 216 940 105 889 -5 c 0
 830 -132 740 -200 730 -200 c 0
 724 -200 720 -196 720 -190 c 0
530 305 m 0
 530 362 532 428 561 482 c 1
 590 542 640 563 688 563 c 0
 724 563 779 549 810 489 c 0
 842 433 845 363 845 305 c 0
 845 248 843 181 813 128 c 0
 783 68 730 51 687 51 c 0
 646 51 597 67 567 120 c 0
 532 177 530 251 530 305 c 0
598 315 m 0
 598 272 597 200 605 156 c 0
 617 88 659 70 687 70 c 0
 717 70 761 89 771 160 c 0
 778 206 778 263 778 315 c 0
 778 366 779 428 770 466 c 0
 756 530 712 544 687 544 c 0
 669 544 615 538 603 454 c 0
 597 414 598 365 598 315 c 0
157 303 m 0
 157 475 260 563 354 563 c 0
 418 563 449 524 449 479 c 0
 449 450 430 440 414 440 c 0
 396 440 377 454 377 478 c 0
 377 509 404 513 418 514 c 1
 402 538 372 541 356 541 c 0
 330 541 288 527 261 483 c 0
 244 456 229 410 229 331 c 2
 229 314 l 1
 247 355 278 384 320 384 c 0
 402 384 468 317 468 219 c 0
 468 120 399 51 314 51 c 0
 270 51 222 70 190 130 c 1
 168 172 157 230 157 303 c 0
231 232 m 0
 231 218 231 159 244 127 c 0
 248 116 270 75 314 75 c 0
 335 75 366 82 384 122 c 0
 396 148 395 184 395 220 c 0
 395 258 396 294 383 321 c 0
 364 361 333 365 317 365 c 0
 257 365 231 299 231 232 c 0
EndSplineSet
EndChar
StartChar: uF26CE
Encoding: 992974 992974 1834
Width: 1000
Flags: MW
LayerCount: 2
Fore
SplineSet
49 300 m 0
 49 384 61 495 112 605 c 0
 171 732 261 800 271 800 c 0
 277 800 281 797 281 790 c 0
 281 787 281 785 268 773 c 0
 145 648 107 474 107 300 c 0
 107 223 115 137 139 54 c 0
 162 -28 202 -106 264 -168 c 0
 281 -185 281 -187 281 -190 c 0
 281 -197 277 -200 271 -200 c 0
 261 -200 175 -135 115 -12 c 0
 60 101 49 222 49 300 c 0
720 -190 m 0
 720 -187 720 -185 733 -173 c 0
 857 -47 894 129 894 300 c 0
 894 509 837 668 739 767 c 0
 720 785 720 787 720 790 c 0
 720 796 724 800 730 800 c 0
 740 800 826 735 886 612 c 0
 941 499 952 378 952 300 c 0
 952 216 940 105 889 -5 c 0
 830 -132 740 -200 730 -200 c 0
 724 -200 720 -196 720 -190 c 0
560 489 m 1
 560 515 l 1
 563 515 l 1
 587 515 649 517 694 558 c 0
 697 561 697 561 701 563 c 1
 718 563 719 560 719 542 c 2
 719 119 l 1
 719 98 743 92 794 92 c 1
 812 92 l 1
 812 65 l 1
 786 67 718 68 688 68 c 0
 658 68 590 67 564 65 c 1
 564 92 l 1
 582 92 l 1
 633 92 658 99 658 119 c 1
 658 507 l 1
 622 491 579 489 563 489 c 1
 560 489 l 1
152 303 m 0
 152 475 255 563 349 563 c 0
 413 563 444 524 444 479 c 0
 444 450 425 440 409 440 c 0
 391 440 372 454 372 478 c 0
 372 509 398 513 412 514 c 1
 396 538 366 541 350 541 c 0
 324 541 283 527 256 483 c 0
 239 456 225 410 225 331 c 2
 225 314 l 1
 243 355 273 384 315 384 c 0
 397 384 464 317 464 219 c 0
 464 120 394 51 309 51 c 0
 265 51 217 70 185 130 c 1
 163 172 152 230 152 303 c 0
226 232 m 0
 226 218 226 159 239 127 c 0
 243 116 264 75 308 75 c 0
 329 75 361 82 379 122 c 0
 391 148 390 184 390 220 c 0
 390 258 391 294 378 321 c 0
 359 361 328 365 312 365 c 0
 252 365 226 299 226 232 c 0
EndSplineSet
EndChar
StartChar: uF26CF
Encoding: 992975 992975 1835
Width: 1000
VWidth: 1000
Flags: MW
LayerCount: 2
Fore
SplineSet
49 300 m 0
 49 384 61 495 112 605 c 0
 171 732 261 800 271 800 c 0
 277 800 281 797 281 790 c 0
 281 787 281 785 268 773 c 0
 145 648 107 474 107 300 c 0
 107 223 115 137 139 54 c 0
 162 -28 202 -106 264 -168 c 0
 281 -185 281 -187 281 -190 c 0
 281 -197 277 -200 271 -200 c 0
 261 -200 175 -135 115 -12 c 0
 60 101 49 222 49 300 c 0
720 -190 m 0
 720 -187 720 -185 733 -173 c 0
 857 -47 894 129 894 300 c 0
 894 509 837 668 739 767 c 0
 720 785 720 787 720 790 c 0
 720 796 724 800 730 800 c 0
 740 800 826 735 886 612 c 0
 941 499 952 378 952 300 c 0
 952 216 940 105 889 -5 c 0
 830 -132 740 -200 730 -200 c 0
 724 -200 720 -196 720 -190 c 0
536 65 m 1
 536 69 536 76 536 78 c 2
 536 88 539 89 545 96 c 2
 686 255 l 2
 728 303 762 360 762 418 c 0
 762 478 730 537 665 537 c 0
 626 537 591 513 573 472 c 1
 575 472 577 472 582 472 c 0
 605 470 619 453 619 430 c 0
 619 397 593 387 578 387 c 0
 572 387 536 390 536 432 c 0
 536 499 593 563 677 563 c 0
 769 563 836 504 836 418 c 0
 836 344 792 306 686 212 c 1
 679 206 610 139 602 132 c 1
 727 132 l 2
 741 132 791 132 797 138 c 1
 805 148 810 185 814 205 c 1
 836 205 l 1
 815 65 l 1
 536 65 l 1
155 303 m 0
 155 475 259 563 353 563 c 0
 417 563 448 524 448 479 c 0
 448 450 428 440 412 440 c 0
 394 440 376 454 376 478 c 0
 376 509 402 513 416 514 c 1
 400 538 370 541 354 541 c 0
 328 541 287 527 260 483 c 0
 243 456 228 410 228 331 c 2
 228 314 l 1
 246 355 276 384 318 384 c 0
 400 384 467 317 467 219 c 0
 467 120 397 51 312 51 c 0
 268 51 221 70 189 130 c 1
 167 172 155 230 155 303 c 0
230 232 m 0
 230 218 229 159 242 127 c 0
 246 116 268 75 312 75 c 0
 333 75 364 82 382 122 c 0
 394 148 394 184 394 220 c 0
 394 258 395 294 382 321 c 0
 363 361 332 365 316 365 c 0
 256 365 230 299 230 232 c 0
EndSplineSet
EndChar
StartChar: uF26D0
Encoding: 992976 992976 1836
Width: 1000
Flags: MW
LayerCount: 2
Fore
SplineSet
49 300 m 0
 49 384 61 495 112 605 c 0
 171 732 261 800 271 800 c 0
 277 800 281 797 281 790 c 0
 281 787 281 785 268 773 c 0
 145 648 107 474 107 300 c 0
 107 223 115 137 139 54 c 0
 162 -28 202 -106 264 -168 c 0
 281 -185 281 -187 281 -190 c 0
 281 -197 277 -200 271 -200 c 0
 261 -200 175 -135 115 -12 c 0
 60 101 49 222 49 300 c 0
720 -190 m 0
 720 -187 720 -185 733 -173 c 0
 857 -47 894 129 894 300 c 0
 894 509 837 668 739 767 c 0
 720 785 720 787 720 790 c 0
 720 796 724 800 730 800 c 0
 740 800 826 735 886 612 c 0
 941 499 952 378 952 300 c 0
 952 216 940 105 889 -5 c 0
 830 -132 740 -200 730 -200 c 0
 724 -200 720 -196 720 -190 c 0
531 168 m 0
 531 202 555 214 575 214 c 0
 599 214 619 198 619 169 c 0
 619 140 598 123 573 124 c 1
 601 86 652 75 680 75 c 0
 722 75 760 111 760 196 c 0
 760 261 739 317 675 317 c 2
 643 317 l 2
 630 317 625 317 625 327 c 0
 625 334 630 335 636 336 c 0
 640 336 655 338 666 339 c 0
 686 340 709 345 728 377 c 1
 748 409 748 452 748 460 c 0
 748 517 717 541 680 541 c 0
 655 541 611 533 588 500 c 1
 597 500 632 498 632 458 c 0
 632 434 616 417 592 417 c 0
 569 417 552 433 552 460 c 0
 552 518 607 563 683 563 c 0
 760 563 822 520 822 459 c 0
 822 399 778 348 720 329 c 1
 802 311 843 253 843 196 c 0
 843 122 780 51 682 51 c 0
 600 51 531 100 531 168 c 0
156 303 m 0
 156 475 260 563 354 563 c 0
 418 563 449 524 449 479 c 0
 449 450 428 440 412 440 c 0
 394 440 377 454 377 478 c 0
 377 509 402 513 416 514 c 1
 400 538 371 541 355 541 c 0
 329 541 288 527 261 483 c 0
 244 456 229 410 229 331 c 2
 229 314 l 1
 247 355 278 384 320 384 c 0
 402 384 468 317 468 219 c 0
 468 120 399 51 314 51 c 0
 270 51 222 70 190 130 c 1
 168 172 156 230 156 303 c 0
230 232 m 0
 230 218 231 159 244 127 c 0
 248 116 269 75 313 75 c 0
 334 75 365 82 383 122 c 0
 395 148 395 184 395 220 c 0
 395 258 396 294 383 321 c 0
 364 361 333 365 317 365 c 0
 257 365 230 299 230 232 c 0
EndSplineSet
EndChar
StartChar: uF26D1
Encoding: 992977 992977 1837
Width: 1000
VWidth: 1000
Flags: MW
LayerCount: 2
Fore
SplineSet
49 300 m 0
 49 384 61 495 112 605 c 0
 171 732 261 800 271 800 c 0
 277 800 281 797 281 790 c 0
 281 787 281 785 268 773 c 0
 145 648 107 474 107 300 c 0
 107 223 115 137 139 54 c 0
 162 -28 202 -106 264 -168 c 0
 281 -185 281 -187 281 -190 c 0
 281 -197 277 -200 271 -200 c 0
 261 -200 175 -135 115 -12 c 0
 60 101 49 222 49 300 c 0
720 -190 m 0
 720 -187 720 -185 733 -173 c 0
 857 -47 894 129 894 300 c 0
 894 509 837 668 739 767 c 0
 720 785 720 787 720 790 c 0
 720 796 724 800 730 800 c 0
 740 800 826 735 886 612 c 0
 941 499 952 378 952 300 c 0
 952 216 940 105 889 -5 c 0
 830 -132 740 -200 730 -200 c 0
 724 -200 720 -196 720 -190 c 0
523 189 m 1
 523 215 l 1
 752 561 l 2
 758 571 760 571 769 571 c 0
 783 571 783 566 783 550 c 2
 783 215 l 1
 855 215 l 1
 855 189 l 1
 783 189 l 1
 783 119 l 1
 783 99 800 93 842 93 c 1
 854 93 l 1
 854 67 l 1
 825 69 781 69 751 69 c 0
 720 69 676 69 646 67 c 1
 646 93 l 1
 658 93 l 1
 700 93 719 99 719 119 c 1
 719 189 l 1
 523 189 l 1
547 215 m 1
 725 215 l 1
 725 483 l 1
 547 215 l 1
158 304 m 0
 158 476 261 564 355 564 c 0
 419 564 451 525 451 480 c 0
 451 451 430 440 414 440 c 0
 396 440 379 454 379 478 c 0
 379 509 404 515 418 516 c 1
 402 540 373 543 357 543 c 0
 331 543 290 528 263 484 c 0
 246 457 231 411 231 332 c 2
 231 315 l 1
 249 356 279 385 321 385 c 0
 403 385 469 318 469 220 c 0
 469 121 400 52 315 52 c 0
 271 52 224 71 192 131 c 1
 170 173 158 231 158 304 c 0
232 233 m 0
 232 219 233 161 246 129 c 0
 250 118 271 76 315 76 c 0
 336 76 367 82 385 122 c 0
 397 148 397 185 397 221 c 0
 397 259 397 295 384 322 c 0
 365 362 335 366 319 366 c 0
 259 366 232 300 232 233 c 0
EndSplineSet
EndChar
StartChar: uF26D3
Encoding: 992979 992979 1839
Width: 1000
VWidth: 1000
Flags: MW
LayerCount: 2
Fore
SplineSet
49 300 m 0
 49 384 61 495 112 605 c 0
 171 732 261 800 271 800 c 0
 277 800 281 797 281 790 c 0
 281 787 281 785 268 773 c 0
 145 648 107 474 107 300 c 0
 107 223 115 137 139 54 c 0
 162 -28 202 -106 264 -168 c 0
 281 -185 281 -187 281 -190 c 0
 281 -197 277 -200 271 -200 c 0
 261 -200 175 -135 115 -12 c 0
 60 101 49 222 49 300 c 0
720 -190 m 0
 720 -187 720 -185 733 -173 c 0
 857 -47 894 129 894 300 c 0
 894 509 837 668 739 767 c 0
 720 785 720 787 720 790 c 0
 720 796 724 800 730 800 c 0
 740 800 826 735 886 612 c 0
 941 499 952 378 952 300 c 0
 952 216 940 105 889 -5 c 0
 830 -132 740 -200 730 -200 c 0
 724 -200 720 -196 720 -190 c 0
531 303 m 0
 531 475 635 563 729 563 c 0
 793 563 824 524 824 479 c 0
 824 450 804 440 788 440 c 0
 770 440 752 454 752 478 c 0
 752 509 778 513 792 514 c 1
 776 538 746 541 730 541 c 0
 704 541 663 527 636 483 c 0
 619 456 604 410 604 331 c 2
 604 314 l 1
 622 355 652 384 694 384 c 0
 776 384 843 317 843 219 c 0
 843 120 773 51 688 51 c 0
 644 51 597 70 565 130 c 1
 543 172 531 230 531 303 c 0
606 232 m 0
 606 218 605 159 618 127 c 0
 622 116 644 75 688 75 c 0
 709 75 740 82 758 122 c 0
 770 148 770 184 770 220 c 0
 770 258 771 294 758 321 c 0
 739 361 708 365 692 365 c 0
 632 365 606 299 606 232 c 0
156 303 m 0
 156 475 260 563 354 563 c 0
 418 563 449 524 449 479 c 0
 449 450 428 440 412 440 c 0
 394 440 377 454 377 478 c 0
 377 509 402 513 416 514 c 1
 400 538 371 541 355 541 c 0
 329 541 288 527 261 483 c 0
 244 456 229 410 229 331 c 2
 229 314 l 1
 247 355 278 384 320 384 c 0
 402 384 468 317 468 219 c 0
 468 120 399 51 314 51 c 0
 270 51 222 70 190 130 c 1
 168 172 156 230 156 303 c 0
230 232 m 0
 230 218 231 159 244 127 c 0
 248 116 269 75 313 75 c 0
 334 75 365 82 383 122 c 0
 395 148 395 184 395 220 c 0
 395 258 396 294 383 321 c 0
 364 361 333 365 317 365 c 0
 257 365 230 299 230 232 c 0
EndSplineSet
EndChar
StartChar: uF26D4
Encoding: 992980 992980 1840
Width: 1000
VWidth: 1000
Flags: MW
LayerCount: 2
Fore
SplineSet
49 300 m 0
 49 384 61 495 112 605 c 0
 171 732 261 800 271 800 c 0
 277 800 281 797 281 790 c 0
 281 787 281 785 268 773 c 0
 145 648 107 474 107 300 c 0
 107 223 115 137 139 54 c 0
 162 -28 202 -106 264 -168 c 0
 281 -185 281 -187 281 -190 c 0
 281 -197 277 -200 271 -200 c 0
 261 -200 175 -135 115 -12 c 0
 60 101 49 222 49 300 c 0
720 -190 m 0
 720 -187 720 -185 733 -173 c 0
 857 -47 894 129 894 300 c 0
 894 509 837 668 739 767 c 0
 720 785 720 787 720 790 c 0
 720 796 724 800 730 800 c 0
 740 800 826 735 886 612 c 0
 941 499 952 378 952 300 c 0
 952 216 940 105 889 -5 c 0
 830 -132 740 -200 730 -200 c 0
 724 -200 720 -196 720 -190 c 0
545 410 m 1
 570 574 l 1
 592 574 l 1
 594 565 594 558 614 554 c 1
 627 552 668 550 697 550 c 2
 867 550 l 1
 867 532 867 530 860 521 c 2
 759 381 l 2
 729 339 718 279 714 254 c 0
 708 215 706 174 706 134 c 2
 706 96 l 2
 706 78 698 52 670 52 c 0
 644 52 634 77 634 96 c 0
 634 181 664 285 731 382 c 1
 743 401 797 474 803 483 c 1
 658 483 l 2
 648 483 592 482 586 478 c 0
 578 471 570 433 567 410 c 1
 545 410 l 1
160 304 m 0
 160 476 263 564 357 564 c 0
 421 564 452 525 452 480 c 0
 452 451 432 441 416 441 c 0
 398 441 380 455 380 479 c 0
 380 510 406 515 420 516 c 1
 404 540 375 543 359 543 c 0
 333 543 291 529 264 485 c 0
 247 458 232 412 232 333 c 2
 232 316 l 1
 250 357 280 386 322 386 c 0
 404 386 471 318 471 220 c 0
 471 121 402 52 317 52 c 0
 273 52 226 72 194 132 c 1
 172 174 160 231 160 304 c 0
234 234 m 0
 234 220 233 160 246 128 c 0
 250 117 273 76 317 76 c 0
 338 76 369 83 387 123 c 0
 399 149 399 186 399 222 c 0
 399 260 399 295 386 322 c 0
 367 362 336 366 320 366 c 0
 260 366 234 301 234 234 c 0
EndSplineSet
EndChar
StartChar: uF26D6
Encoding: 992982 992982 1842
Width: 1000
VWidth: 1000
Flags: MW
LayerCount: 2
Fore
SplineSet
49 300 m 0
 49 384 61 495 112 605 c 0
 171 732 261 800 271 800 c 0
 277 800 281 797 281 790 c 0
 281 787 281 785 268 773 c 0
 145 648 107 474 107 300 c 0
 107 223 115 137 139 54 c 0
 162 -28 202 -106 264 -168 c 0
 281 -185 281 -187 281 -190 c 0
 281 -197 277 -200 271 -200 c 0
 261 -200 175 -135 115 -12 c 0
 60 101 49 222 49 300 c 0
720 -190 m 0
 720 -187 720 -185 733 -173 c 0
 857 -47 894 129 894 300 c 0
 894 509 837 668 739 767 c 0
 720 785 720 787 720 790 c 0
 720 796 724 800 730 800 c 0
 740 800 826 735 886 612 c 0
 941 499 952 378 952 300 c 0
 952 216 940 105 889 -5 c 0
 830 -132 740 -200 730 -200 c 0
 724 -200 720 -196 720 -190 c 0
531 396 m 0
 531 451 548 486 579 518 c 1
 610 550 648 563 690 563 c 0
 779 563 843 476 843 312 c 0
 843 143 748 51 654 51 c 0
 588 51 550 85 550 135 c 0
 550 164 571 174 587 174 c 0
 605 174 622 160 622 136 c 0
 622 118 612 99 585 99 c 1
 605 76 641 75 654 75 c 0
 685 75 720 92 743 134 c 0
 760 164 770 211 770 279 c 2
 770 301 l 1
 751 255 720 231 680 231 c 0
 597 231 531 300 531 396 c 0
604 395 m 0
 604 357 603 321 616 294 c 0
 635 254 666 250 682 250 c 0
 745 250 769 324 769 382 c 0
 769 414 767 461 758 485 c 0
 748 513 725 541 690 541 c 0
 662 541 637 532 619 498 c 0
 604 471 604 435 604 395 c 0
156 303 m 0
 156 475 260 563 354 563 c 0
 418 563 449 524 449 479 c 0
 449 450 428 440 412 440 c 0
 394 440 377 454 377 478 c 0
 377 509 402 513 416 514 c 1
 400 538 371 541 355 541 c 0
 329 541 288 527 261 483 c 0
 244 456 229 410 229 331 c 2
 229 314 l 1
 247 355 278 384 320 384 c 0
 402 384 468 317 468 219 c 0
 468 120 399 51 314 51 c 0
 270 51 222 70 190 130 c 1
 168 172 156 230 156 303 c 0
230 232 m 0
 230 218 231 159 244 127 c 0
 248 116 269 75 313 75 c 0
 334 75 365 82 383 122 c 0
 395 148 395 184 395 220 c 0
 395 258 396 294 383 321 c 0
 364 361 333 365 317 365 c 0
 257 365 230 299 230 232 c 0
EndSplineSet
EndChar
StartChar: uF26D7
Encoding: 992983 992983 1843
Width: 1000
Flags: MW
LayerCount: 2
Fore
SplineSet
49 300 m 0
 49 384 61 495 112 605 c 0
 171 732 261 800 271 800 c 0
 277 800 281 797 281 790 c 0
 281 787 281 785 268 773 c 0
 145 648 107 474 107 300 c 0
 107 223 115 137 139 54 c 0
 162 -28 202 -106 264 -168 c 0
 281 -185 281 -187 281 -190 c 0
 281 -197 277 -200 271 -200 c 0
 261 -200 175 -135 115 -12 c 0
 60 101 49 222 49 300 c 0
720 -190 m 0
 720 -187 720 -185 733 -173 c 0
 857 -47 894 129 894 300 c 0
 894 509 837 668 739 767 c 0
 720 785 720 787 720 790 c 0
 720 796 724 800 730 800 c 0
 740 800 826 735 886 612 c 0
 941 499 952 378 952 300 c 0
 952 216 940 105 889 -5 c 0
 830 -132 740 -200 730 -200 c 0
 724 -200 720 -196 720 -190 c 0
531 307 m 0
 531 364 534 430 563 484 c 1
 592 544 642 564 690 564 c 0
 726 564 781 550 812 490 c 0
 844 434 847 365 847 307 c 0
 847 250 844 183 814 130 c 0
 784 70 732 52 689 52 c 0
 648 52 598 68 568 121 c 0
 533 178 531 253 531 307 c 0
599 316 m 0
 599 273 599 201 607 157 c 0
 619 89 661 72 689 72 c 0
 719 72 762 91 772 162 c 0
 779 208 780 264 780 316 c 0
 780 367 780 430 771 468 c 0
 757 532 714 546 689 546 c 0
 671 546 617 539 605 455 c 0
 599 415 599 366 599 316 c 0
169 410 m 1
 194 574 l 1
 214 574 l 1
 216 565 218 558 238 554 c 1
 251 552 291 550 320 550 c 2
 491 550 l 1
 491 532 491 530 484 521 c 2
 383 381 l 2
 353 339 342 279 338 254 c 0
 332 215 330 174 330 134 c 2
 330 96 l 2
 330 78 322 52 294 52 c 0
 268 52 258 77 258 96 c 0
 258 181 287 285 354 382 c 1
 366 401 420 474 426 483 c 1
 282 483 l 2
 272 483 215 482 209 478 c 0
 201 471 194 433 191 410 c 1
 169 410 l 1
EndSplineSet
EndChar
StartChar: uF26D8
Encoding: 992984 992984 1844
Width: 1000
VWidth: 1000
Flags: MW
LayerCount: 2
Fore
SplineSet
49 300 m 0
 49 384 61 495 112 605 c 0
 171 732 261 800 271 800 c 0
 277 800 281 797 281 790 c 0
 281 787 281 785 268 773 c 0
 145 648 107 474 107 300 c 0
 107 223 115 137 139 54 c 0
 162 -28 202 -106 264 -168 c 0
 281 -185 281 -187 281 -190 c 0
 281 -197 277 -200 271 -200 c 0
 261 -200 175 -135 115 -12 c 0
 60 101 49 222 49 300 c 0
720 -190 m 0
 720 -187 720 -185 733 -173 c 0
 857 -47 894 129 894 300 c 0
 894 509 837 668 739 767 c 0
 720 785 720 787 720 790 c 0
 720 796 724 800 730 800 c 0
 740 800 826 735 886 612 c 0
 941 499 952 378 952 300 c 0
 952 216 940 105 889 -5 c 0
 830 -132 740 -200 730 -200 c 0
 724 -200 720 -196 720 -190 c 0
562 490 m 1
 562 516 l 1
 564 516 l 1
 588 516 651 518 696 559 c 0
 699 562 699 562 703 564 c 1
 720 564 720 562 720 544 c 2
 720 120 l 1
 720 99 745 93 796 93 c 1
 814 93 l 1
 814 67 l 1
 788 69 720 69 690 69 c 0
 660 69 592 69 566 67 c 1
 566 93 l 1
 584 93 l 1
 635 93 660 100 660 120 c 1
 660 509 l 1
 624 493 580 490 564 490 c 1
 562 490 l 1
164 410 m 1
 189 574 l 1
 210 574 l 1
 212 565 213 558 233 554 c 1
 246 552 287 550 316 550 c 2
 486 550 l 1
 486 532 487 530 480 521 c 2
 378 381 l 2
 348 339 337 279 333 254 c 0
 327 215 325 174 325 134 c 2
 325 96 l 2
 325 78 316 52 288 52 c 0
 262 52 253 77 253 96 c 0
 253 181 282 285 349 382 c 1
 361 401 415 474 421 483 c 1
 277 483 l 2
 267 483 210 482 204 478 c 0
 196 471 189 433 186 410 c 1
 164 410 l 1
EndSplineSet
EndChar
StartChar: uF26D9
Encoding: 992985 992985 1845
Width: 1000
VWidth: 1000
Flags: MW
LayerCount: 2
Fore
SplineSet
49 300 m 0
 49 384 61 495 112 605 c 0
 171 732 261 800 271 800 c 0
 277 800 281 797 281 790 c 0
 281 787 281 785 268 773 c 0
 145 648 107 474 107 300 c 0
 107 223 115 137 139 54 c 0
 162 -28 202 -106 264 -168 c 0
 281 -185 281 -187 281 -190 c 0
 281 -197 277 -200 271 -200 c 0
 261 -200 175 -135 115 -12 c 0
 60 101 49 222 49 300 c 0
720 -190 m 0
 720 -187 720 -185 733 -173 c 0
 857 -47 894 129 894 300 c 0
 894 509 837 668 739 767 c 0
 720 785 720 787 720 790 c 0
 720 796 724 800 730 800 c 0
 740 800 826 735 886 612 c 0
 941 499 952 378 952 300 c 0
 952 216 940 105 889 -5 c 0
 830 -132 740 -200 730 -200 c 0
 724 -200 720 -196 720 -190 c 0
538 67 m 1
 538 71 538 78 538 80 c 2
 538 90 540 91 546 98 c 2
 687 256 l 2
 729 304 764 362 764 420 c 0
 764 480 732 538 667 538 c 0
 628 538 592 516 574 475 c 1
 576 475 579 474 584 474 c 0
 607 472 621 455 621 432 c 0
 621 399 595 389 580 389 c 0
 574 389 538 392 538 434 c 0
 538 501 594 564 678 564 c 0
 770 564 837 506 837 420 c 0
 837 346 793 308 687 214 c 1
 680 208 612 141 604 134 c 1
 729 134 l 2
 743 134 793 134 799 140 c 1
 807 150 812 186 816 206 c 1
 837 206 l 1
 816 67 l 1
 538 67 l 1
168 410 m 1
 192 574 l 1
 214 574 l 1
 216 565 217 558 237 554 c 1
 250 552 291 550 320 550 c 2
 489 550 l 1
 489 532 490 530 483 521 c 2
 381 381 l 2
 351 339 340 279 336 254 c 0
 330 215 329 174 329 134 c 2
 329 96 l 2
 329 78 320 52 292 52 c 0
 266 52 256 77 256 96 c 0
 256 181 286 285 353 382 c 1
 365 401 419 474 425 483 c 1
 281 483 l 2
 271 483 214 482 208 478 c 0
 200 471 192 433 189 410 c 1
 168 410 l 1
EndSplineSet
EndChar
StartChar: uF26DA
Encoding: 992986 992986 1846
Width: 1000
VWidth: 1000
Flags: MW
LayerCount: 2
Fore
SplineSet
49 300 m 0
 49 384 61 495 112 605 c 0
 171 732 261 800 271 800 c 0
 277 800 281 797 281 790 c 0
 281 787 281 785 268 773 c 0
 145 648 107 474 107 300 c 0
 107 223 115 137 139 54 c 0
 162 -28 202 -106 264 -168 c 0
 281 -185 281 -187 281 -190 c 0
 281 -197 277 -200 271 -200 c 0
 261 -200 175 -135 115 -12 c 0
 60 101 49 222 49 300 c 0
720 -190 m 0
 720 -187 720 -185 733 -173 c 0
 857 -47 894 129 894 300 c 0
 894 509 837 668 739 767 c 0
 720 785 720 787 720 790 c 0
 720 796 724 800 730 800 c 0
 740 800 826 735 886 612 c 0
 941 499 952 378 952 300 c 0
 952 216 940 105 889 -5 c 0
 830 -132 740 -200 730 -200 c 0
 724 -200 720 -196 720 -190 c 0
533 169 m 0
 533 203 557 216 577 216 c 0
 601 216 621 199 621 170 c 0
 621 141 600 125 575 126 c 1
 603 88 653 76 681 76 c 0
 723 76 762 112 762 197 c 0
 762 262 741 318 677 318 c 2
 645 318 l 2
 632 318 627 318 627 328 c 0
 627 335 631 337 637 338 c 0
 641 338 656 339 667 340 c 0
 687 341 711 346 730 378 c 1
 750 410 750 454 750 462 c 0
 750 519 719 543 682 543 c 0
 657 543 612 535 589 502 c 1
 598 502 634 500 634 460 c 0
 634 436 618 418 594 418 c 0
 571 418 553 434 553 461 c 0
 553 519 609 564 685 564 c 0
 762 564 824 522 824 461 c 0
 824 401 780 350 722 331 c 1
 804 313 844 254 844 197 c 0
 844 123 782 52 684 52 c 0
 602 52 533 101 533 169 c 0
169 410 m 1
 192 574 l 1
 214 574 l 1
 216 565 218 558 238 554 c 1
 251 552 291 550 320 550 c 2
 490 550 l 1
 490 532 491 530 484 521 c 2
 382 381 l 2
 352 339 341 279 337 254 c 0
 331 215 330 174 330 134 c 2
 330 96 l 2
 330 78 321 52 293 52 c 0
 267 52 258 77 258 96 c 0
 258 181 287 285 354 382 c 1
 366 401 420 474 426 483 c 1
 282 483 l 2
 272 483 215 482 209 478 c 0
 201 471 193 433 190 410 c 1
 169 410 l 1
EndSplineSet
EndChar
StartChar: uF26DB
Encoding: 992987 992987 1847
Width: 1000
Flags: MW
LayerCount: 2
Fore
SplineSet
49 300 m 0
 49 384 61 495 112 605 c 0
 171 732 261 800 271 800 c 0
 277 800 281 797 281 790 c 0
 281 787 281 785 268 773 c 0
 145 648 107 474 107 300 c 0
 107 223 115 137 139 54 c 0
 162 -28 202 -106 264 -168 c 0
 281 -185 281 -187 281 -190 c 0
 281 -197 277 -200 271 -200 c 0
 261 -200 175 -135 115 -12 c 0
 60 101 49 222 49 300 c 0
720 -190 m 0
 720 -187 720 -185 733 -173 c 0
 857 -47 894 129 894 300 c 0
 894 509 837 668 739 767 c 0
 720 785 720 787 720 790 c 0
 720 796 724 800 730 800 c 0
 740 800 826 735 886 612 c 0
 941 499 952 378 952 300 c 0
 952 216 940 105 889 -5 c 0
 830 -132 740 -200 730 -200 c 0
 724 -200 720 -196 720 -190 c 0
524 190 m 1
 524 216 l 1
 754 562 l 2
 760 572 762 571 771 571 c 0
 785 571 785 566 785 550 c 2
 785 216 l 1
 857 216 l 1
 857 190 l 1
 785 190 l 1
 785 120 l 1
 785 100 802 93 844 93 c 1
 855 93 l 1
 855 67 l 1
 826 69 782 69 752 69 c 0
 721 69 678 69 648 67 c 1
 648 93 l 1
 660 93 l 1
 702 93 721 100 721 120 c 1
 721 190 l 1
 524 190 l 1
548 216 m 1
 726 216 l 1
 726 484 l 1
 548 216 l 1
170 410 m 1
 194 574 l 1
 216 574 l 1
 218 565 219 559 239 555 c 1
 252 553 293 550 322 550 c 2
 492 550 l 1
 492 532 492 531 485 522 c 2
 384 381 l 2
 354 339 343 279 339 254 c 0
 333 215 331 174 331 134 c 2
 331 97 l 2
 331 79 323 52 295 52 c 0
 269 52 258 78 258 97 c 0
 258 182 289 286 356 383 c 1
 368 402 422 474 428 483 c 1
 283 483 l 2
 273 483 216 483 210 479 c 0
 202 472 195 433 192 410 c 1
 170 410 l 1
EndSplineSet
EndChar
StartChar: uF26DC
Encoding: 992988 992988 1848
Width: 1000
VWidth: 1000
Flags: MW
LayerCount: 2
Fore
SplineSet
49 300 m 0
 49 384 61 495 112 605 c 0
 171 732 261 800 271 800 c 0
 277 800 281 797 281 790 c 0
 281 787 281 785 268 773 c 0
 145 648 107 474 107 300 c 0
 107 223 115 137 139 54 c 0
 162 -28 202 -106 264 -168 c 0
 281 -185 281 -187 281 -190 c 0
 281 -197 277 -200 271 -200 c 0
 261 -200 175 -135 115 -12 c 0
 60 101 49 222 49 300 c 0
720 -190 m 0
 720 -187 720 -185 733 -173 c 0
 857 -47 894 129 894 300 c 0
 894 509 837 668 739 767 c 0
 720 785 720 787 720 790 c 0
 720 796 724 800 730 800 c 0
 740 800 826 735 886 612 c 0
 941 499 952 378 952 300 c 0
 952 216 940 105 889 -5 c 0
 830 -132 740 -200 730 -200 c 0
 724 -200 720 -196 720 -190 c 0
538 187 m 0
 538 224 567 230 577 230 c 0
 600 230 615 214 615 190 c 0
 615 170 603 151 579 150 c 0
 573 150 569 150 567 151 c 1
 584 107 626 76 671 76 c 0
 703 76 730 93 746 119 c 1
 765 150 765 195 765 223 c 0
 765 261 763 291 751 318 c 0
 745 332 727 361 692 361 c 0
 640 361 610 329 598 311 c 0
 595 307 593 304 587 304 c 0
 576 304 575 310 575 324 c 2
 575 545 l 2
 575 557 575 564 583 564 c 0
 585 564 586 563 592 561 c 0
 622 547 657 540 692 540 c 0
 736 540 773 553 794 562 c 0
 799 564 800 564 801 564 c 0
 807 564 808 559 808 555 c 0
 808 543 754 470 661 470 c 0
 637 470 618 476 602 480 c 1
 602 344 l 1
 630 370 662 380 694 380 c 0
 779 380 837 306 837 218 c 0
 837 124 764 52 673 52 c 0
 590 52 538 123 538 187 c 0
168 410 m 1
 192 574 l 1
 214 574 l 1
 216 565 217 558 237 554 c 1
 250 552 291 550 320 550 c 2
 489 550 l 1
 489 532 490 530 483 521 c 2
 381 381 l 2
 351 339 340 279 336 254 c 0
 330 215 329 174 329 134 c 2
 329 96 l 2
 329 78 320 52 292 52 c 0
 266 52 256 77 256 96 c 0
 256 181 286 285 353 382 c 1
 365 401 419 474 425 483 c 1
 281 483 l 2
 271 483 214 482 208 478 c 0
 200 471 192 433 189 410 c 1
 168 410 l 1
EndSplineSet
EndChar
StartChar: uF26DE
Encoding: 992990 992990 1850
Width: 1000
VWidth: 1000
Flags: MW
LayerCount: 2
Fore
SplineSet
49 300 m 0
 49 384 61 495 112 605 c 0
 171 732 261 800 271 800 c 0
 277 800 281 797 281 790 c 0
 281 787 281 785 268 773 c 0
 145 648 107 474 107 300 c 0
 107 223 115 137 139 54 c 0
 162 -28 202 -106 264 -168 c 0
 281 -185 281 -187 281 -190 c 0
 281 -197 277 -200 271 -200 c 0
 261 -200 175 -135 115 -12 c 0
 60 101 49 222 49 300 c 0
720 -190 m 0
 720 -187 720 -185 733 -173 c 0
 857 -47 894 129 894 300 c 0
 894 509 837 668 739 767 c 0
 720 785 720 787 720 790 c 0
 720 796 724 800 730 800 c 0
 740 800 826 735 886 612 c 0
 941 499 952 378 952 300 c 0
 952 216 940 105 889 -5 c 0
 830 -132 740 -200 730 -200 c 0
 724 -200 720 -196 720 -190 c 0
547 410 m 1
 572 574 l 1
 593 574 l 1
 595 565 596 558 616 554 c 1
 629 552 670 550 699 550 c 2
 869 550 l 1
 869 532 869 530 862 521 c 2
 761 381 l 2
 731 339 720 279 716 254 c 0
 710 215 708 174 708 134 c 2
 708 96 l 2
 708 78 700 52 672 52 c 0
 646 52 636 77 636 96 c 0
 636 181 665 285 732 382 c 1
 744 401 798 474 804 483 c 1
 660 483 l 2
 650 483 594 482 588 478 c 0
 580 471 572 433 569 410 c 1
 547 410 l 1
172 410 m 1
 196 574 l 1
 218 574 l 1
 220 565 221 558 241 554 c 1
 254 552 295 550 324 550 c 2
 494 550 l 1
 494 532 494 530 487 521 c 2
 386 381 l 2
 356 339 344 279 340 254 c 0
 334 215 333 174 333 134 c 2
 333 96 l 2
 333 78 325 52 297 52 c 0
 271 52 260 77 260 96 c 0
 260 181 290 285 357 382 c 1
 369 401 423 474 429 483 c 1
 285 483 l 2
 275 483 218 482 212 478 c 0
 204 471 197 433 194 410 c 1
 172 410 l 1
EndSplineSet
EndChar
StartChar: uF26DF
Encoding: 992991 992991 1851
Width: 1000
VWidth: 1000
Flags: MW
LayerCount: 2
Fore
SplineSet
49 300 m 0
 49 384 61 495 112 605 c 0
 171 732 261 800 271 800 c 0
 277 800 281 797 281 790 c 0
 281 787 281 785 268 773 c 0
 145 648 107 474 107 300 c 0
 107 223 115 137 139 54 c 0
 162 -28 202 -106 264 -168 c 0
 281 -185 281 -187 281 -190 c 0
 281 -197 277 -200 271 -200 c 0
 261 -200 175 -135 115 -12 c 0
 60 101 49 222 49 300 c 0
720 -190 m 0
 720 -187 720 -185 733 -173 c 0
 857 -47 894 129 894 300 c 0
 894 509 837 668 739 767 c 0
 720 785 720 787 720 790 c 0
 720 796 724 800 730 800 c 0
 740 800 826 735 886 612 c 0
 941 499 952 378 952 300 c 0
 952 216 940 105 889 -5 c 0
 830 -132 740 -200 730 -200 c 0
 724 -200 720 -196 720 -190 c 0
533 182 m 0
 533 252 588 293 635 317 c 1
 617 329 592 347 584 357 c 0
 555 390 553 422 553 438 c 0
 553 508 611 564 690 564 c 0
 760 564 824 525 824 454 c 0
 824 406 791 368 739 340 c 1
 779 315 794 307 809 290 c 0
 835 260 844 228 844 197 c 0
 844 117 778 52 688 52 c 0
 608 52 533 99 533 182 c 0
576 182 m 0
 576 121 626 76 690 76 c 0
 746 76 802 108 802 166 c 0
 802 210 770 231 747 246 c 1
 738 252 661 300 655 304 c 1
 601 274 576 230 576 182 c 0
590 470 m 0
 590 454 598 432 626 414 c 2
 720 353 l 1
 761 378 787 411 787 453 c 0
 787 506 743 543 688 543 c 0
 642 543 590 518 590 470 c 0
169 410 m 1
 192 574 l 1
 214 574 l 1
 216 565 218 558 238 554 c 1
 251 552 291 550 320 550 c 2
 490 550 l 1
 490 532 491 530 484 521 c 2
 382 381 l 2
 352 339 341 279 337 254 c 0
 331 215 330 174 330 134 c 2
 330 96 l 2
 330 78 321 52 293 52 c 0
 267 52 258 77 258 96 c 0
 258 181 287 285 354 382 c 1
 366 401 420 474 426 483 c 1
 282 483 l 2
 272 483 215 482 209 478 c 0
 201 471 193 433 190 410 c 1
 169 410 l 1
EndSplineSet
EndChar
StartChar: uF26E0
Encoding: 992992 992992 1852
Width: 1000
VWidth: 1000
Flags: MW
LayerCount: 2
Fore
SplineSet
49 300 m 0
 49 384 61 495 112 605 c 0
 171 732 261 800 271 800 c 0
 277 800 281 797 281 790 c 0
 281 787 281 785 268 773 c 0
 145 648 107 474 107 300 c 0
 107 223 115 137 139 54 c 0
 162 -28 202 -106 264 -168 c 0
 281 -185 281 -187 281 -190 c 0
 281 -197 277 -200 271 -200 c 0
 261 -200 175 -135 115 -12 c 0
 60 101 49 222 49 300 c 0
720 -190 m 0
 720 -187 720 -185 733 -173 c 0
 857 -47 894 129 894 300 c 0
 894 509 837 668 739 767 c 0
 720 785 720 787 720 790 c 0
 720 796 724 800 730 800 c 0
 740 800 826 735 886 612 c 0
 941 499 952 378 952 300 c 0
 952 216 940 105 889 -5 c 0
 830 -132 740 -200 730 -200 c 0
 724 -200 720 -196 720 -190 c 0
533 397 m 0
 533 452 550 488 581 520 c 1
 612 552 649 564 691 564 c 0
 780 564 844 478 844 314 c 0
 844 145 750 52 656 52 c 0
 590 52 552 87 552 137 c 0
 552 166 572 176 588 176 c 0
 606 176 624 162 624 138 c 0
 624 120 614 101 587 101 c 1
 607 78 642 76 655 76 c 0
 686 76 721 94 744 136 c 0
 761 166 772 213 772 281 c 2
 772 303 l 1
 753 257 722 232 682 232 c 0
 599 232 533 301 533 397 c 0
606 397 m 0
 606 359 605 323 618 296 c 0
 637 256 668 252 684 252 c 0
 747 252 770 326 770 384 c 0
 770 416 768 463 759 487 c 0
 749 515 726 543 691 543 c 0
 663 543 638 533 620 499 c 0
 605 472 606 437 606 397 c 0
169 410 m 1
 192 574 l 1
 214 574 l 1
 216 565 218 558 238 554 c 1
 251 552 291 550 320 550 c 2
 490 550 l 1
 490 532 491 530 484 521 c 2
 382 381 l 2
 352 339 341 279 337 254 c 0
 331 215 330 174 330 134 c 2
 330 96 l 2
 330 78 321 52 293 52 c 0
 267 52 258 77 258 96 c 0
 258 181 287 285 354 382 c 1
 366 401 420 474 426 483 c 1
 282 483 l 2
 272 483 215 482 209 478 c 0
 201 471 193 433 190 410 c 1
 169 410 l 1
EndSplineSet
EndChar
StartChar: uF26E2
Encoding: 992994 992994 1854
Width: 1000
VWidth: 1000
Flags: MW
LayerCount: 2
Fore
SplineSet
49 300 m 0
 49 384 61 495 112 605 c 0
 171 732 261 800 271 800 c 0
 277 800 281 797 281 790 c 0
 281 787 281 785 268 773 c 0
 145 648 107 474 107 300 c 0
 107 223 115 137 139 54 c 0
 162 -28 202 -106 264 -168 c 0
 281 -185 281 -187 281 -190 c 0
 281 -197 277 -200 271 -200 c 0
 261 -200 175 -135 115 -12 c 0
 60 101 49 222 49 300 c 0
720 -190 m 0
 720 -187 720 -185 733 -173 c 0
 857 -47 894 129 894 300 c 0
 894 509 837 668 739 767 c 0
 720 785 720 787 720 790 c 0
 720 796 724 800 730 800 c 0
 740 800 826 735 886 612 c 0
 941 499 952 378 952 300 c 0
 952 216 940 105 889 -5 c 0
 830 -132 740 -200 730 -200 c 0
 724 -200 720 -196 720 -190 c 0
560 489 m 1
 560 515 l 1
 563 515 l 1
 587 515 649 517 694 558 c 0
 697 561 697 561 701 563 c 1
 718 563 719 560 719 542 c 2
 719 119 l 1
 719 98 743 92 794 92 c 1
 812 92 l 1
 812 65 l 1
 786 67 718 68 688 68 c 0
 658 68 590 67 564 65 c 1
 564 92 l 1
 582 92 l 1
 633 92 658 99 658 119 c 1
 658 507 l 1
 622 491 579 489 563 489 c 1
 560 489 l 1
152 181 m 0
 152 251 207 292 254 316 c 1
 236 328 212 344 204 354 c 0
 175 387 172 420 172 436 c 0
 172 506 229 563 308 563 c 0
 378 563 443 523 443 452 c 0
 443 404 410 366 358 338 c 1
 398 313 412 305 427 288 c 0
 453 258 464 226 464 195 c 0
 464 115 397 51 307 51 c 0
 227 51 152 98 152 181 c 0
194 181 m 0
 194 120 244 75 308 75 c 0
 364 75 421 107 421 165 c 0
 421 209 389 229 366 244 c 1
 357 250 280 298 274 302 c 1
 220 272 194 229 194 181 c 0
210 469 m 0
 210 453 216 430 244 412 c 2
 339 352 l 1
 380 377 406 409 406 451 c 0
 406 504 362 541 307 541 c 0
 261 541 210 517 210 469 c 0
EndSplineSet
EndChar
StartChar: uF26E3
Encoding: 992995 992995 1855
Width: 1000
Flags: MW
LayerCount: 2
Fore
SplineSet
49 300 m 0
 49 384 61 495 112 605 c 0
 171 732 261 800 271 800 c 0
 277 800 281 797 281 790 c 0
 281 787 281 785 268 773 c 0
 145 648 107 474 107 300 c 0
 107 223 115 137 139 54 c 0
 162 -28 202 -106 264 -168 c 0
 281 -185 281 -187 281 -190 c 0
 281 -197 277 -200 271 -200 c 0
 261 -200 175 -135 115 -12 c 0
 60 101 49 222 49 300 c 0
720 -190 m 0
 720 -187 720 -185 733 -173 c 0
 857 -47 894 129 894 300 c 0
 894 509 837 668 739 767 c 0
 720 785 720 787 720 790 c 0
 720 796 724 800 730 800 c 0
 740 800 826 735 886 612 c 0
 941 499 952 378 952 300 c 0
 952 216 940 105 889 -5 c 0
 830 -132 740 -200 730 -200 c 0
 724 -200 720 -196 720 -190 c 0
536 65 m 1
 536 69 536 76 536 78 c 2
 536 88 539 89 545 96 c 2
 686 255 l 2
 728 303 762 360 762 418 c 0
 762 478 730 537 665 537 c 0
 626 537 591 513 573 472 c 1
 575 472 577 472 582 472 c 0
 605 470 619 453 619 430 c 0
 619 397 593 387 578 387 c 0
 572 387 536 390 536 432 c 0
 536 499 593 563 677 563 c 0
 769 563 836 504 836 418 c 0
 836 344 792 306 686 212 c 1
 679 206 610 139 602 132 c 1
 727 132 l 2
 741 132 791 132 797 138 c 1
 805 148 810 185 814 205 c 1
 836 205 l 1
 815 65 l 1
 536 65 l 1
155 181 m 0
 155 251 210 292 257 316 c 1
 239 328 215 344 207 354 c 0
 178 387 176 420 176 436 c 0
 176 506 233 563 312 563 c 0
 382 563 446 523 446 452 c 0
 446 404 414 366 362 338 c 1
 402 313 416 305 431 288 c 0
 457 258 467 226 467 195 c 0
 467 115 401 51 311 51 c 0
 231 51 155 98 155 181 c 0
198 181 m 0
 198 120 248 75 312 75 c 0
 368 75 424 107 424 165 c 0
 424 209 393 229 370 244 c 1
 361 250 284 298 278 302 c 1
 224 272 198 229 198 181 c 0
213 469 m 0
 213 453 220 430 248 412 c 2
 342 352 l 1
 383 377 409 409 409 451 c 0
 409 504 366 541 311 541 c 0
 265 541 213 517 213 469 c 0
EndSplineSet
EndChar
StartChar: uF26E6
Encoding: 992998 992998 1858
Width: 1000
VWidth: 1000
Flags: MW
LayerCount: 2
Fore
SplineSet
49 300 m 0
 49 384 61 495 112 605 c 0
 171 732 261 800 271 800 c 0
 277 800 281 797 281 790 c 0
 281 787 281 785 268 773 c 0
 145 648 107 474 107 300 c 0
 107 223 115 137 139 54 c 0
 162 -28 202 -106 264 -168 c 0
 281 -185 281 -187 281 -190 c 0
 281 -197 277 -200 271 -200 c 0
 261 -200 175 -135 115 -12 c 0
 60 101 49 222 49 300 c 0
720 -190 m 0
 720 -187 720 -185 733 -173 c 0
 857 -47 894 129 894 300 c 0
 894 509 837 668 739 767 c 0
 720 785 720 787 720 790 c 0
 720 796 724 800 730 800 c 0
 740 800 826 735 886 612 c 0
 941 499 952 378 952 300 c 0
 952 216 940 105 889 -5 c 0
 830 -132 740 -200 730 -200 c 0
 724 -200 720 -196 720 -190 c 0
536 186 m 0
 536 223 565 229 575 229 c 0
 598 229 614 212 614 188 c 0
 614 168 601 150 577 149 c 0
 571 149 568 149 566 150 c 1
 583 106 625 75 670 75 c 0
 702 75 728 92 744 118 c 1
 763 149 763 192 763 220 c 0
 763 258 761 290 749 317 c 0
 743 331 725 359 690 359 c 0
 638 359 608 327 596 309 c 0
 593 305 591 302 585 302 c 0
 574 302 574 308 574 322 c 2
 574 544 l 2
 574 556 573 562 581 562 c 0
 583 562 584 562 590 560 c 0
 620 546 655 539 690 539 c 0
 734 539 771 552 792 561 c 0
 797 563 798 563 799 563 c 0
 805 563 806 558 806 554 c 0
 806 542 753 469 660 469 c 0
 636 469 616 474 600 478 c 1
 600 343 l 1
 628 369 660 379 692 379 c 0
 777 379 836 304 836 216 c 0
 836 122 762 51 671 51 c 0
 588 51 536 122 536 186 c 0
155 181 m 0
 155 251 210 292 257 316 c 1
 239 328 215 344 207 354 c 0
 178 387 176 420 176 436 c 0
 176 506 233 563 312 563 c 0
 382 563 446 523 446 452 c 0
 446 404 414 366 362 338 c 1
 402 313 416 305 431 288 c 0
 457 258 467 226 467 195 c 0
 467 115 401 51 311 51 c 0
 231 51 155 98 155 181 c 0
198 181 m 0
 198 120 248 75 312 75 c 0
 368 75 424 107 424 165 c 0
 424 209 393 229 370 244 c 1
 361 250 284 298 278 302 c 1
 224 272 198 229 198 181 c 0
213 469 m 0
 213 453 220 430 248 412 c 2
 342 352 l 1
 383 377 409 409 409 451 c 0
 409 504 366 541 311 541 c 0
 265 541 213 517 213 469 c 0
EndSplineSet
EndChar
StartChar: uF26E7
Encoding: 992999 992999 1859
Width: 1000
Flags: MW
LayerCount: 2
Fore
SplineSet
49 300 m 0
 49 384 61 495 112 605 c 0
 171 732 261 800 271 800 c 0
 277 800 281 797 281 790 c 0
 281 787 281 785 268 773 c 0
 145 648 107 474 107 300 c 0
 107 223 115 137 139 54 c 0
 162 -28 202 -106 264 -168 c 0
 281 -185 281 -187 281 -190 c 0
 281 -197 277 -200 271 -200 c 0
 261 -200 175 -135 115 -12 c 0
 60 101 49 222 49 300 c 0
720 -190 m 0
 720 -187 720 -185 733 -173 c 0
 857 -47 894 129 894 300 c 0
 894 509 837 668 739 767 c 0
 720 785 720 787 720 790 c 0
 720 796 724 800 730 800 c 0
 740 800 826 735 886 612 c 0
 941 499 952 378 952 300 c 0
 952 216 940 105 889 -5 c 0
 830 -132 740 -200 730 -200 c 0
 724 -200 720 -196 720 -190 c 0
531 303 m 0
 531 475 635 563 729 563 c 0
 793 563 824 524 824 479 c 0
 824 450 804 440 788 440 c 0
 770 440 752 454 752 478 c 0
 752 509 778 513 792 514 c 1
 776 538 746 541 730 541 c 0
 704 541 663 527 636 483 c 0
 619 456 604 410 604 331 c 2
 604 314 l 1
 622 355 652 384 694 384 c 0
 776 384 843 317 843 219 c 0
 843 120 773 51 688 51 c 0
 644 51 597 70 565 130 c 1
 543 172 531 230 531 303 c 0
606 232 m 0
 606 218 605 159 618 127 c 0
 622 116 644 75 688 75 c 0
 709 75 740 82 758 122 c 0
 770 148 770 184 770 220 c 0
 770 258 771 294 758 321 c 0
 739 361 708 365 692 365 c 0
 632 365 606 299 606 232 c 0
156 181 m 0
 156 251 211 292 258 316 c 1
 240 328 216 344 208 354 c 0
 179 387 177 420 177 436 c 0
 177 506 233 563 312 563 c 0
 382 563 447 523 447 452 c 0
 447 404 415 366 363 338 c 1
 403 313 417 305 432 288 c 0
 458 258 468 226 468 195 c 0
 468 115 402 51 312 51 c 0
 232 51 156 98 156 181 c 0
199 181 m 0
 199 120 248 75 312 75 c 0
 368 75 426 107 426 165 c 0
 426 209 393 229 370 244 c 1
 361 250 285 298 279 302 c 1
 225 272 199 229 199 181 c 0
214 469 m 0
 214 453 221 430 249 412 c 2
 343 352 l 1
 384 377 410 409 410 451 c 0
 410 504 367 541 312 541 c 0
 266 541 214 517 214 469 c 0
EndSplineSet
EndChar
StartChar: uF26E8
Encoding: 993000 993000 1860
Width: 1000
Flags: MW
LayerCount: 2
Fore
SplineSet
49 300 m 0
 49 384 61 495 112 605 c 0
 171 732 261 800 271 800 c 0
 277 800 281 797 281 790 c 0
 281 787 281 785 268 773 c 0
 145 648 107 474 107 300 c 0
 107 223 115 137 139 54 c 0
 162 -28 202 -106 264 -168 c 0
 281 -185 281 -187 281 -190 c 0
 281 -197 277 -200 271 -200 c 0
 261 -200 175 -135 115 -12 c 0
 60 101 49 222 49 300 c 0
720 -190 m 0
 720 -187 720 -185 733 -173 c 0
 857 -47 894 129 894 300 c 0
 894 509 837 668 739 767 c 0
 720 785 720 787 720 790 c 0
 720 796 724 800 730 800 c 0
 740 800 826 735 886 612 c 0
 941 499 952 378 952 300 c 0
 952 216 940 105 889 -5 c 0
 830 -132 740 -200 730 -200 c 0
 724 -200 720 -196 720 -190 c 0
545 410 m 1
 570 574 l 1
 592 574 l 1
 594 565 594 558 614 554 c 1
 627 552 668 550 697 550 c 2
 867 550 l 1
 867 532 867 530 860 521 c 2
 759 381 l 2
 729 339 718 279 714 254 c 0
 708 215 706 174 706 134 c 2
 706 96 l 2
 706 78 698 52 670 52 c 0
 644 52 634 77 634 96 c 0
 634 181 664 285 731 382 c 1
 743 401 797 474 803 483 c 1
 658 483 l 2
 648 483 592 482 586 478 c 0
 578 471 570 433 567 410 c 1
 545 410 l 1
160 182 m 0
 160 252 215 293 262 317 c 1
 244 329 219 347 211 357 c 0
 182 390 180 422 180 438 c 0
 180 508 237 564 316 564 c 0
 386 564 451 525 451 454 c 0
 451 406 418 368 366 340 c 1
 406 315 420 307 435 290 c 0
 461 260 471 228 471 197 c 0
 471 117 405 52 315 52 c 0
 235 52 160 99 160 182 c 0
202 182 m 0
 202 121 252 76 316 76 c 0
 372 76 430 108 430 166 c 0
 430 210 397 231 374 246 c 1
 365 252 288 300 282 304 c 1
 228 274 202 230 202 182 c 0
217 470 m 0
 217 454 225 432 253 414 c 2
 347 353 l 1
 388 378 414 411 414 453 c 0
 414 506 370 543 315 543 c 0
 269 543 217 518 217 470 c 0
EndSplineSet
EndChar
StartChar: uF26E9
Encoding: 993001 993001 1861
Width: 1000
VWidth: 1000
Flags: MW
LayerCount: 2
Fore
SplineSet
49 300 m 0
 49 384 61 495 112 605 c 0
 171 732 261 800 271 800 c 0
 277 800 281 797 281 790 c 0
 281 787 281 785 268 773 c 0
 145 648 107 474 107 300 c 0
 107 223 115 137 139 54 c 0
 162 -28 202 -106 264 -168 c 0
 281 -185 281 -187 281 -190 c 0
 281 -197 277 -200 271 -200 c 0
 261 -200 175 -135 115 -12 c 0
 60 101 49 222 49 300 c 0
720 -190 m 0
 720 -187 720 -185 733 -173 c 0
 857 -47 894 129 894 300 c 0
 894 509 837 668 739 767 c 0
 720 785 720 787 720 790 c 0
 720 796 724 800 730 800 c 0
 740 800 826 735 886 612 c 0
 941 499 952 378 952 300 c 0
 952 216 940 105 889 -5 c 0
 830 -132 740 -200 730 -200 c 0
 724 -200 720 -196 720 -190 c 0
531 181 m 0
 531 251 586 292 633 316 c 1
 615 328 591 344 583 354 c 0
 554 387 552 420 552 436 c 0
 552 506 609 563 688 563 c 0
 758 563 822 523 822 452 c 0
 822 404 790 366 738 338 c 1
 778 313 792 305 807 288 c 0
 833 258 843 226 843 195 c 0
 843 115 777 51 687 51 c 0
 607 51 531 98 531 181 c 0
574 181 m 0
 574 120 624 75 688 75 c 0
 744 75 800 107 800 165 c 0
 800 209 769 229 746 244 c 1
 737 250 660 298 654 302 c 1
 600 272 574 229 574 181 c 0
589 469 m 0
 589 453 596 430 624 412 c 2
 718 352 l 1
 759 377 785 409 785 451 c 0
 785 504 742 541 687 541 c 0
 641 541 589 517 589 469 c 0
156 181 m 0
 156 251 211 292 258 316 c 1
 240 328 216 344 208 354 c 0
 179 387 177 420 177 436 c 0
 177 506 233 563 312 563 c 0
 382 563 447 523 447 452 c 0
 447 404 415 366 363 338 c 1
 403 313 417 305 432 288 c 0
 458 258 468 226 468 195 c 0
 468 115 402 51 312 51 c 0
 232 51 156 98 156 181 c 0
199 181 m 0
 199 120 248 75 312 75 c 0
 368 75 426 107 426 165 c 0
 426 209 393 229 370 244 c 1
 361 250 285 298 279 302 c 1
 225 272 199 229 199 181 c 0
214 469 m 0
 214 453 221 430 249 412 c 2
 343 352 l 1
 384 377 410 409 410 451 c 0
 410 504 367 541 312 541 c 0
 266 541 214 517 214 469 c 0
EndSplineSet
EndChar
StartChar: uF26EB
Encoding: 993003 993003 1863
Width: 1000
VWidth: 1000
Flags: MW
LayerCount: 2
Fore
SplineSet
49 300 m 0
 49 384 61 495 112 605 c 0
 171 732 261 800 271 800 c 0
 277 800 281 797 281 790 c 0
 281 787 281 785 268 773 c 0
 145 648 107 474 107 300 c 0
 107 223 115 137 139 54 c 0
 162 -28 202 -106 264 -168 c 0
 281 -185 281 -187 281 -190 c 0
 281 -197 277 -200 271 -200 c 0
 261 -200 175 -135 115 -12 c 0
 60 101 49 222 49 300 c 0
720 -190 m 0
 720 -187 720 -185 733 -173 c 0
 857 -47 894 129 894 300 c 0
 894 509 837 668 739 767 c 0
 720 785 720 787 720 790 c 0
 720 796 724 800 730 800 c 0
 740 800 826 735 886 612 c 0
 941 499 952 378 952 300 c 0
 952 216 940 105 889 -5 c 0
 830 -132 740 -200 730 -200 c 0
 724 -200 720 -196 720 -190 c 0
530 305 m 0
 530 362 532 428 561 482 c 1
 590 542 640 563 688 563 c 0
 724 563 779 549 810 489 c 0
 842 433 845 363 845 305 c 0
 845 248 843 181 813 128 c 0
 783 68 730 51 687 51 c 0
 646 51 597 67 567 120 c 0
 532 177 530 251 530 305 c 0
598 315 m 0
 598 272 597 200 605 156 c 0
 617 88 659 70 687 70 c 0
 717 70 761 89 771 160 c 0
 778 206 778 263 778 315 c 0
 778 366 779 428 770 466 c 0
 756 530 712 544 687 544 c 0
 669 544 615 538 603 454 c 0
 597 414 598 365 598 315 c 0
157 396 m 0
 157 451 174 486 205 518 c 1
 236 550 273 563 315 563 c 0
 404 563 468 476 468 312 c 0
 468 143 374 51 280 51 c 0
 214 51 176 85 176 135 c 0
 176 164 196 174 212 174 c 0
 230 174 247 160 247 136 c 0
 247 118 238 99 211 99 c 1
 231 76 266 75 279 75 c 0
 310 75 345 92 368 134 c 0
 385 164 395 211 395 279 c 2
 395 301 l 1
 376 255 346 231 306 231 c 0
 223 231 157 300 157 396 c 0
229 395 m 0
 229 357 229 321 242 294 c 0
 261 254 292 250 308 250 c 0
 371 250 394 324 394 382 c 0
 394 414 392 461 383 485 c 0
 373 513 350 541 315 541 c 0
 287 541 262 532 244 498 c 0
 229 471 229 435 229 395 c 0
EndSplineSet
EndChar
StartChar: uF26EC
Encoding: 993004 993004 1864
Width: 1000
Flags: MW
LayerCount: 2
Fore
SplineSet
49 300 m 0
 49 384 61 495 112 605 c 0
 171 732 261 800 271 800 c 0
 277 800 281 797 281 790 c 0
 281 787 281 785 268 773 c 0
 145 648 107 474 107 300 c 0
 107 223 115 137 139 54 c 0
 162 -28 202 -106 264 -168 c 0
 281 -185 281 -187 281 -190 c 0
 281 -197 277 -200 271 -200 c 0
 261 -200 175 -135 115 -12 c 0
 60 101 49 222 49 300 c 0
720 -190 m 0
 720 -187 720 -185 733 -173 c 0
 857 -47 894 129 894 300 c 0
 894 509 837 668 739 767 c 0
 720 785 720 787 720 790 c 0
 720 796 724 800 730 800 c 0
 740 800 826 735 886 612 c 0
 941 499 952 378 952 300 c 0
 952 216 940 105 889 -5 c 0
 830 -132 740 -200 730 -200 c 0
 724 -200 720 -196 720 -190 c 0
560 489 m 1
 560 515 l 1
 563 515 l 1
 587 515 649 517 694 558 c 0
 697 561 697 561 701 563 c 1
 718 563 719 560 719 542 c 2
 719 119 l 1
 719 98 743 92 794 92 c 1
 812 92 l 1
 812 65 l 1
 786 67 718 68 688 68 c 0
 658 68 590 67 564 65 c 1
 564 92 l 1
 582 92 l 1
 633 92 658 99 658 119 c 1
 658 507 l 1
 622 491 579 489 563 489 c 1
 560 489 l 1
152 396 m 0
 152 451 169 486 200 518 c 1
 231 550 268 563 310 563 c 0
 399 563 464 476 464 312 c 0
 464 143 370 51 276 51 c 0
 210 51 170 85 170 135 c 0
 170 164 191 174 207 174 c 0
 225 174 243 160 243 136 c 0
 243 118 232 99 205 99 c 1
 225 76 261 75 274 75 c 0
 305 75 340 92 363 134 c 0
 380 164 390 211 390 279 c 2
 390 301 l 1
 371 255 341 231 301 231 c 0
 218 231 152 300 152 396 c 0
225 395 m 0
 225 357 225 321 238 294 c 0
 257 254 286 250 302 250 c 0
 365 250 390 324 390 382 c 0
 390 414 387 461 378 485 c 0
 368 513 345 541 310 541 c 0
 282 541 258 532 240 498 c 0
 225 471 225 435 225 395 c 0
EndSplineSet
EndChar
StartChar: uF26EF
Encoding: 993007 993007 1867
Width: 1000
VWidth: 1000
Flags: MW
LayerCount: 2
Fore
SplineSet
49 300 m 0
 49 384 61 495 112 605 c 0
 171 732 261 800 271 800 c 0
 277 800 281 797 281 790 c 0
 281 787 281 785 268 773 c 0
 145 648 107 474 107 300 c 0
 107 223 115 137 139 54 c 0
 162 -28 202 -106 264 -168 c 0
 281 -185 281 -187 281 -190 c 0
 281 -197 277 -200 271 -200 c 0
 261 -200 175 -135 115 -12 c 0
 60 101 49 222 49 300 c 0
720 -190 m 0
 720 -187 720 -185 733 -173 c 0
 857 -47 894 129 894 300 c 0
 894 509 837 668 739 767 c 0
 720 785 720 787 720 790 c 0
 720 796 724 800 730 800 c 0
 740 800 826 735 886 612 c 0
 941 499 952 378 952 300 c 0
 952 216 940 105 889 -5 c 0
 830 -132 740 -200 730 -200 c 0
 724 -200 720 -196 720 -190 c 0
523 189 m 1
 523 215 l 1
 752 561 l 2
 758 571 760 571 769 571 c 0
 783 571 783 566 783 550 c 2
 783 215 l 1
 855 215 l 1
 855 189 l 1
 783 189 l 1
 783 119 l 1
 783 99 800 93 842 93 c 1
 854 93 l 1
 854 67 l 1
 825 69 781 69 751 69 c 0
 720 69 676 69 646 67 c 1
 646 93 l 1
 658 93 l 1
 700 93 719 99 719 119 c 1
 719 189 l 1
 523 189 l 1
547 215 m 1
 725 215 l 1
 725 483 l 1
 547 215 l 1
158 398 m 0
 158 453 175 487 206 519 c 1
 237 551 274 564 316 564 c 0
 405 564 469 478 469 314 c 0
 469 145 376 52 282 52 c 0
 216 52 177 86 177 136 c 0
 177 165 197 175 213 175 c 0
 231 175 249 162 249 138 c 0
 249 120 239 100 212 100 c 1
 232 77 267 76 280 76 c 0
 311 76 346 93 369 135 c 0
 386 165 397 212 397 280 c 2
 397 302 l 1
 378 256 347 232 307 232 c 0
 224 232 158 302 158 398 c 0
231 396 m 0
 231 358 230 322 243 295 c 0
 262 255 293 252 309 252 c 0
 372 252 395 326 395 384 c 0
 395 416 393 462 384 486 c 0
 374 514 351 543 316 543 c 0
 288 543 263 533 245 499 c 0
 230 472 231 436 231 396 c 0
EndSplineSet
EndChar
StartChar: uF26F3
Encoding: 993011 993011 1871
Width: 1000
Flags: MW
LayerCount: 2
Fore
SplineSet
49 300 m 0
 49 384 61 495 112 605 c 0
 171 732 261 800 271 800 c 0
 277 800 281 797 281 790 c 0
 281 787 281 785 268 773 c 0
 145 648 107 474 107 300 c 0
 107 223 115 137 139 54 c 0
 162 -28 202 -106 264 -168 c 0
 281 -185 281 -187 281 -190 c 0
 281 -197 277 -200 271 -200 c 0
 261 -200 175 -135 115 -12 c 0
 60 101 49 222 49 300 c 0
720 -190 m 0
 720 -187 720 -185 733 -173 c 0
 857 -47 894 129 894 300 c 0
 894 509 837 668 739 767 c 0
 720 785 720 787 720 790 c 0
 720 796 724 800 730 800 c 0
 740 800 826 735 886 612 c 0
 941 499 952 378 952 300 c 0
 952 216 940 105 889 -5 c 0
 830 -132 740 -200 730 -200 c 0
 724 -200 720 -196 720 -190 c 0
531 181 m 0
 531 251 586 292 633 316 c 1
 615 328 591 344 583 354 c 0
 554 387 552 420 552 436 c 0
 552 506 609 563 688 563 c 0
 758 563 822 523 822 452 c 0
 822 404 790 366 738 338 c 1
 778 313 792 305 807 288 c 0
 833 258 843 226 843 195 c 0
 843 115 777 51 687 51 c 0
 607 51 531 98 531 181 c 0
574 181 m 0
 574 120 624 75 688 75 c 0
 744 75 800 107 800 165 c 0
 800 209 769 229 746 244 c 1
 737 250 660 298 654 302 c 1
 600 272 574 229 574 181 c 0
589 469 m 0
 589 453 596 430 624 412 c 2
 718 352 l 1
 759 377 785 409 785 451 c 0
 785 504 742 541 687 541 c 0
 641 541 589 517 589 469 c 0
156 396 m 0
 156 451 173 486 204 518 c 1
 235 550 273 563 315 563 c 0
 404 563 468 476 468 312 c 0
 468 143 374 51 280 51 c 0
 214 51 175 85 175 135 c 0
 175 164 196 174 212 174 c 0
 230 174 247 160 247 136 c 0
 247 118 237 99 210 99 c 1
 230 76 266 75 279 75 c 0
 310 75 345 92 368 134 c 0
 385 164 395 211 395 279 c 2
 395 301 l 1
 376 255 345 231 305 231 c 0
 222 231 156 300 156 396 c 0
229 395 m 0
 229 357 229 321 242 294 c 0
 261 254 291 250 307 250 c 0
 370 250 394 324 394 382 c 0
 394 414 392 461 383 485 c 0
 373 513 350 541 315 541 c 0
 287 541 262 532 244 498 c 0
 229 471 229 435 229 395 c 0
EndSplineSet
EndChar
StartChar: uF26F6
Encoding: 993014 993014 1874
Width: 1000
Flags: MW
LayerCount: 2
Fore
SplineSet
49 300 m 0
 49 384 61 495 112 605 c 0
 171 732 261 800 271 800 c 0
 277 800 281 797 281 790 c 0
 281 787 281 785 268 773 c 0
 145 648 107 474 107 300 c 0
 107 223 115 137 139 54 c 0
 162 -28 202 -106 264 -168 c 0
 281 -185 281 -187 281 -190 c 0
 281 -197 277 -200 271 -200 c 0
 261 -200 175 -135 115 -12 c 0
 60 101 49 222 49 300 c 0
720 -190 m 0
 720 -187 720 -185 733 -173 c 0
 857 -47 894 129 894 300 c 0
 894 509 837 668 739 767 c 0
 720 785 720 787 720 790 c 0
 720 796 724 800 730 800 c 0
 740 800 826 735 886 612 c 0
 941 499 952 378 952 300 c 0
 952 216 940 105 889 -5 c 0
 830 -132 740 -200 730 -200 c 0
 724 -200 720 -196 720 -190 c 0
389 50 m 1
 389 76 l 1
 404 76 l 1
 424 76 452 76 458 80 c 1
 465 84 465 93 465 104 c 1
 465 509 l 1
 465 520 465 528 458 532 c 1
 452 536 424 537 404 537 c 1
 389 537 l 1
 389 563 l 1
 414 561 472 560 500 560 c 0
 528 560 586 561 611 563 c 1
 611 537 l 1
 596 537 l 1
 572 537 546 535 540 530 c 1
 536 526 535 519 535 509 c 1
 535 104 l 1
 535 93 535 86 541 82 c 1
 547 78 574 76 596 76 c 1
 611 76 l 1
 611 50 l 1
 586 52 528 52 500 52 c 0
 472 52 414 52 389 50 c 1
EndSplineSet
Colour: ffff
EndChar
StartChar: uF26F8
Encoding: 993016 993016 1876
Width: 1000
VWidth: 1000
Flags: MW
LayerCount: 2
Fore
SplineSet
49 300 m 0
 49 384 61 495 112 605 c 0
 171 732 261 800 271 800 c 0
 277 800 281 797 281 790 c 0
 281 787 281 785 268 773 c 0
 145 648 107 474 107 300 c 0
 107 223 115 137 139 54 c 0
 162 -28 202 -106 264 -168 c 0
 281 -185 281 -187 281 -190 c 0
 281 -197 277 -200 271 -200 c 0
 261 -200 175 -135 115 -12 c 0
 60 101 49 222 49 300 c 0
720 -190 m 0
 720 -187 720 -185 733 -173 c 0
 857 -47 894 129 894 300 c 0
 894 509 837 668 739 767 c 0
 720 785 720 787 720 790 c 0
 720 796 724 800 730 800 c 0
 740 800 826 735 886 612 c 0
 941 499 952 378 952 300 c 0
 952 216 940 105 889 -5 c 0
 830 -132 740 -200 730 -200 c 0
 724 -200 720 -196 720 -190 c 0
535 104 m 1
 535 93 535 86 541 82 c 1
 547 78 569 76 591 76 c 1
 592 76 l 1
 612 76 634 76 640 80 c 1
 647 84 648 93 648 104 c 1
 648 509 l 1
 648 520 647 528 640 532 c 1
 634 536 612 537 592 537 c 1
 591 537 l 1
 567 537 546 535 540 530 c 1
 536 526 535 519 535 509 c 1
 535 104 l 1
352 104 m 1
 352 93 352 86 358 82 c 1
 364 78 386 76 408 76 c 1
 409 76 l 1
 429 76 452 76 458 80 c 1
 465 84 465 93 465 104 c 1
 465 509 l 1
 465 520 465 528 458 532 c 1
 452 536 429 537 409 537 c 1
 408 537 l 1
 384 537 363 535 357 530 c 1
 353 526 352 519 352 509 c 1
 352 104 l 1
209 50 m 1
 209 76 l 1
 224 76 l 1
 244 76 269 76 275 80 c 1
 282 84 283 93 283 104 c 1
 283 509 l 1
 283 520 282 528 275 532 c 1
 269 536 244 537 224 537 c 1
 209 537 l 1
 209 563 l 1
 234 561 289 560 317 560 c 0
 345 560 655 560 683 560 c 0
 711 560 766 561 791 563 c 1
 791 537 l 1
 776 537 l 1
 752 537 729 535 723 530 c 1
 719 526 717 519 717 509 c 1
 717 104 l 1
 717 93 718 86 724 82 c 1
 730 78 754 76 776 76 c 1
 791 76 l 1
 791 50 l 1
 766 52 711 52 683 52 c 0
 655 52 345 52 317 52 c 0
 289 52 234 52 209 50 c 1
EndSplineSet
EndChar
StartChar: uF26F9
Encoding: 993017 993017 1877
Width: 1000
Flags: MW
LayerCount: 2
Fore
SplineSet
49 300 m 0
 49 384 61 495 112 605 c 0
 171 732 261 800 271 800 c 0
 277 800 281 797 281 790 c 0
 281 787 281 785 268 773 c 0
 145 648 107 474 107 300 c 0
 107 223 115 137 139 54 c 0
 162 -28 202 -106 264 -168 c 0
 281 -185 281 -187 281 -190 c 0
 281 -197 277 -200 271 -200 c 0
 261 -200 175 -135 115 -12 c 0
 60 101 49 222 49 300 c 0
720 -190 m 0
 720 -187 720 -185 733 -173 c 0
 857 -47 894 129 894 300 c 0
 894 509 837 668 739 767 c 0
 720 785 720 787 720 790 c 0
 720 796 724 800 730 800 c 0
 740 800 826 735 886 612 c 0
 941 499 952 378 952 300 c 0
 952 216 940 105 889 -5 c 0
 830 -132 740 -200 730 -200 c 0
 724 -200 720 -196 720 -190 c 0
195 50 m 1
 195 76 l 1
 210 76 l 1
 230 76 255 76 261 80 c 1
 268 84 269 93 269 104 c 1
 269 509 l 1
 269 520 268 528 261 532 c 1
 255 536 230 537 210 537 c 1
 195 537 l 1
 195 563 l 1
 220 561 275 560 303 560 c 0
 331 560 440 560 472 560 c 0
 499 560 549 561 574 563 c 1
 574 537 l 1
 560 537 518 537 518 520 c 1
 518 519 518 518 521 509 c 1
 616 163 l 1
 705 491 l 2
 706 495 708 500 708 505 c 0
 708 521 688 536 658 537 c 1
 658 563 l 1
 678 562 715 560 737 560 c 0
 755 560 782 562 805 563 c 1
 805 537 l 1
 801 537 794 536 791 536 c 1
 753 532 741 515 732 494 c 2
 612 51 l 2
 609 39 605 36 593 36 c 0
 582 36 578 39 573 53 c 2
 446 514 l 1
 442 529 411 537 393 537 c 1
 369 537 350 535 344 530 c 1
 340 526 338 519 338 509 c 1
 338 104 l 1
 338 93 339 86 345 82 c 1
 351 78 375 76 397 76 c 1
 412 76 l 1
 412 50 l 1
 387 52 331 52 303 52 c 0
 275 52 220 52 195 50 c 1
EndSplineSet
Colour: ffff
EndChar
StartChar: uF26FA
Encoding: 993018 993018 1878
Width: 1000
VWidth: 1000
Flags: MW
LayerCount: 2
Fore
SplineSet
49 300 m 0
 49 384 61 495 112 605 c 0
 171 732 261 800 271 800 c 0
 277 800 281 797 281 790 c 0
 281 787 281 785 268 773 c 0
 145 648 107 474 107 300 c 0
 107 223 115 137 139 54 c 0
 162 -28 202 -106 264 -168 c 0
 281 -185 281 -187 281 -190 c 0
 281 -197 277 -200 271 -200 c 0
 261 -200 175 -135 115 -12 c 0
 60 101 49 222 49 300 c 0
720 -190 m 0
 720 -187 720 -185 733 -173 c 0
 857 -47 894 129 894 300 c 0
 894 509 837 668 739 767 c 0
 720 785 720 787 720 790 c 0
 720 796 724 800 730 800 c 0
 740 800 826 735 886 612 c 0
 941 499 952 378 952 300 c 0
 952 216 940 105 889 -5 c 0
 830 -132 740 -200 730 -200 c 0
 724 -200 720 -196 720 -190 c 0
244 537 m 1
 244 563 l 1
 269 562 305 560 337 560 c 0
 364 560 417 561 442 563 c 1
 442 537 l 1
 428 537 383 537 383 520 c 1
 383 519 383 517 386 509 c 1
 523 134 l 1
 653 491 l 2
 654 495 657 500 657 505 c 0
 657 521 634 536 604 537 c 1
 604 563 l 1
 624 562 664 560 686 560 c 0
 704 560 733 562 756 563 c 1
 756 537 l 1
 752 537 746 536 743 536 c 1
 703 532 689 516 681 494 c 2
 519 51 l 2
 515 39 512 36 500 36 c 0
 489 36 485 39 480 53 c 2
 311 514 l 1
 303 537 280 537 244 537 c 1
EndSplineSet
EndChar
StartChar: uF26FB
Encoding: 993019 993019 1879
Width: 1000
VWidth: 1000
Flags: MW
LayerCount: 2
Fore
SplineSet
49 300 m 0
 49 384 61 495 112 605 c 0
 171 732 261 800 271 800 c 0
 277 800 281 797 281 790 c 0
 281 787 281 785 268 773 c 0
 145 648 107 474 107 300 c 0
 107 223 115 137 139 54 c 0
 162 -28 202 -106 264 -168 c 0
 281 -185 281 -187 281 -190 c 0
 281 -197 277 -200 271 -200 c 0
 261 -200 175 -135 115 -12 c 0
 60 101 49 222 49 300 c 0
720 -190 m 0
 720 -187 720 -185 733 -173 c 0
 857 -47 894 129 894 300 c 0
 894 509 837 668 739 767 c 0
 720 785 720 787 720 790 c 0
 720 796 724 800 730 800 c 0
 740 800 826 735 886 612 c 0
 941 499 952 378 952 300 c 0
 952 216 940 105 889 -5 c 0
 830 -132 740 -200 730 -200 c 0
 724 -200 720 -196 720 -190 c 0
194 537 m 1
 194 563 l 1
 219 562 253 560 285 560 c 0
 312 560 361 561 386 563 c 1
 386 537 l 1
 372 537 330 537 330 520 c 1
 330 519 330 518 333 509 c 1
 431 164 l 1
 523 491 l 2
 524 495 526 500 526 505 c 0
 526 521 506 536 476 537 c 1
 476 563 l 1
 496 562 533 560 555 560 c 0
 573 560 670 560 698 560 c 0
 726 560 781 561 806 563 c 1
 806 537 l 1
 792 537 l 1
 768 537 744 535 738 530 c 1
 734 526 733 519 733 509 c 1
 733 104 l 1
 733 93 733 86 739 82 c 1
 745 78 770 76 792 76 c 1
 806 76 l 1
 806 50 l 1
 781 52 726 52 698 52 c 0
 670 52 615 52 590 50 c 1
 590 76 l 1
 604 76 l 1
 624 76 650 76 656 80 c 1
 663 84 663 93 663 104 c 1
 663 509 l 1
 663 520 663 528 656 532 c 1
 650 536 633 537 613 537 c 1
 573 537 556 516 550 494 c 2
 427 51 l 2
 423 39 420 36 408 36 c 0
 397 36 393 39 388 53 c 2
 259 514 l 1
 255 530 230 537 194 537 c 1
EndSplineSet
Colour: ffff
EndChar
StartChar: uF26FD
Encoding: 993021 993021 1881
Width: 1000
VWidth: 1000
Flags: MW
LayerCount: 2
Fore
SplineSet
49 300 m 0
 49 384 61 495 112 605 c 0
 171 732 261 800 271 800 c 0
 277 800 281 797 281 790 c 0
 281 787 281 785 268 773 c 0
 145 648 107 474 107 300 c 0
 107 223 115 137 139 54 c 0
 162 -28 202 -106 264 -168 c 0
 281 -185 281 -187 281 -190 c 0
 281 -197 277 -200 271 -200 c 0
 261 -200 175 -135 115 -12 c 0
 60 101 49 222 49 300 c 0
720 -190 m 0
 720 -187 720 -185 733 -173 c 0
 857 -47 894 129 894 300 c 0
 894 509 837 668 739 767 c 0
 720 785 720 787 720 790 c 0
 720 796 724 800 730 800 c 0
 740 800 826 735 886 612 c 0
 941 499 952 378 952 300 c 0
 952 216 940 105 889 -5 c 0
 830 -132 740 -200 730 -200 c 0
 724 -200 720 -196 720 -190 c 0
629 105 m 1
 629 88 635 79 658 77 c 1
 681 79 688 88 688 105 c 1
 688 510 l 1
 688 527 681 536 658 538 c 1
 635 536 629 527 629 510 c 1
 629 105 l 1
512 105 m 1
 512 88 518 79 541 77 c 1
 564 79 571 88 571 105 c 1
 571 510 l 1
 571 527 564 536 541 538 c 1
 518 536 512 527 512 510 c 1
 512 105 l 1
180 540 m 1
 180 564 l 1
 195 562 226 562 243 562 c 0
 261 562 295 562 311 564 c 1
 311 540 l 1
 309 540 273 540 273 536 c 1
 273 536 274 536 275 534 c 1
 329 182 l 1
 382 518 l 1
 383 520 384 524 384 527 c 1
 382 537 355 540 348 540 c 1
 348 564 l 1
 363 562 385 562 401 562 c 0
 413 562 691 562 718 562 c 0
 745 562 796 562 820 564 c 1
 820 538 l 1
 806 538 l 1
 762 538 746 532 746 510 c 1
 746 105 l 1
 746 83 762 77 806 77 c 1
 820 77 l 1
 820 51 l 1
 796 53 745 53 718 53 c 0
 691 53 510 53 483 53 c 0
 456 53 403 53 379 51 c 1
 379 77 l 1
 394 77 l 1
 438 77 453 83 453 105 c 1
 453 510 l 1
 453 521 453 528 447 532 c 1
 441 535 432 537 420 537 c 1
 409 536 407 527 404 518 c 2
 329 60 l 2
 326 44 321 42 313 42 c 0
 302 42 300 48 297 61 c 2
 217 535 l 1
 216 540 184 540 180 540 c 1
EndSplineSet
Colour: ffff
EndChar
StartChar: uF26FE
Encoding: 993022 993022 1882
Width: 1000
VWidth: 1000
Flags: MW
LayerCount: 2
Fore
SplineSet
49 300 m 0
 49 384 61 495 112 605 c 0
 171 732 261 800 271 800 c 0
 277 800 281 797 281 790 c 0
 281 787 281 785 268 773 c 0
 145 648 107 474 107 300 c 0
 107 223 115 137 139 54 c 0
 162 -28 202 -106 264 -168 c 0
 281 -185 281 -187 281 -190 c 0
 281 -197 277 -200 271 -200 c 0
 261 -200 175 -135 115 -12 c 0
 60 101 49 222 49 300 c 0
720 -190 m 0
 720 -187 720 -185 733 -173 c 0
 857 -47 894 129 894 300 c 0
 894 509 837 668 739 767 c 0
 720 785 720 787 720 790 c 0
 720 796 724 800 730 800 c 0
 740 800 826 735 886 612 c 0
 941 499 952 378 952 300 c 0
 952 216 940 105 889 -5 c 0
 830 -132 740 -200 730 -200 c 0
 724 -200 720 -196 720 -190 c 0
347 104 m 1
 347 93 350 86 356 82 c 1
 365 78 386 74 404 76 c 0
 419 77 431 84 440 90 c 0
 456 99 464 110 468 118 c 2
 553 303 l 1
 454 516 l 1
 446 534 431 537 400 537 c 1
 376 537 359 535 353 530 c 1
 349 526 347 519 347 509 c 1
 347 104 l 1
202 50 m 1
 202 76 l 1
 216 76 l 1
 236 76 264 76 270 80 c 1
 277 84 278 93 278 104 c 1
 278 509 l 1
 278 520 277 528 270 532 c 1
 264 536 236 537 216 537 c 1
 202 537 l 1
 202 563 l 1
 227 561 285 560 313 560 c 0
 341 560 450 560 473 560 c 0
 501 560 545 561 570 563 c 1
 570 537 l 1
 546 536 525 526 525 519 c 1
 525 517 528 512 529 510 c 1
 588 380 l 1
 640 492 l 2
 644 500 645 502 645 508 c 1
 640 523 626 536 601 537 c 1
 601 563 l 1
 628 561 663 560 691 560 c 0
 711 560 744 562 772 563 c 1
 772 537 l 1
 766 537 756 537 752 536 c 1
 735 535 725 532 713 528 c 0
 691 520 678 509 672 495 c 2
 604 347 l 1
 719 97 l 1
 728 77 757 76 786 76 c 1
 797 76 l 1
 797 50 l 1
 769 52 725 52 696 52 c 0
 668 52 626 52 601 50 c 1
 601 76 l 1
 625 77 649 87 649 94 c 1
 649 96 647 98 646 100 c 1
 569 268 l 1
 501 121 l 2
 497 113 494 111 494 105 c 1
 499 93 514 77 542 76 c 1
 542 50 l 1
 517 52 475 52 449 52 c 0
 425 52 341 52 313 52 c 0
 285 52 227 52 202 50 c 1
EndSplineSet
Colour: ffff
EndChar
StartChar: uF26FF
Encoding: 993023 993023 1883
Width: 1000
VWidth: 1000
Flags: MW
LayerCount: 2
Fore
SplineSet
49 300 m 0
 49 384 61 495 112 605 c 0
 171 732 261 800 271 800 c 0
 277 800 281 797 281 790 c 0
 281 787 281 785 268 773 c 0
 145 648 107 474 107 300 c 0
 107 223 115 137 139 54 c 0
 162 -28 202 -106 264 -168 c 0
 281 -185 281 -187 281 -190 c 0
 281 -197 277 -200 271 -200 c 0
 261 -200 175 -135 115 -12 c 0
 60 101 49 222 49 300 c 0
720 -190 m 0
 720 -187 720 -185 733 -173 c 0
 857 -47 894 129 894 300 c 0
 894 509 837 668 739 767 c 0
 720 785 720 787 720 790 c 0
 720 796 724 800 730 800 c 0
 740 800 826 735 886 612 c 0
 941 499 952 378 952 300 c 0
 952 216 940 105 889 -5 c 0
 830 -132 740 -200 730 -200 c 0
 724 -200 720 -196 720 -190 c 0
247 50 m 1
 247 76 l 1
 255 76 267 76 273 77 c 1
 290 79 304 83 315 89 c 0
 334 98 341 110 347 118 c 2
 467 303 l 1
 333 516 l 1
 322 533 298 537 267 537 c 1
 257 537 l 1
 257 563 l 1
 283 561 329 560 352 560 c 0
 380 560 434 561 459 563 c 1
 459 537 l 1
 435 536 411 526 411 519 c 1
 411 517 414 512 415 510 c 1
 508 365 l 1
 590 492 l 2
 594 499 596 502 596 508 c 1
 591 523 573 536 548 537 c 1
 548 563 l 1
 575 561 613 560 641 560 c 0
 661 560 694 562 722 563 c 1
 722 537 l 1
 716 537 707 537 703 536 c 1
 686 535 675 532 663 528 c 0
 641 520 631 509 622 495 c 2
 522 341 l 1
 676 97 l 1
 688 78 713 76 742 76 c 1
 753 76 l 1
 753 50 l 1
 725 52 686 52 657 52 c 0
 629 52 575 52 550 50 c 1
 550 76 l 1
 574 77 598 87 598 94 c 1
 598 96 596 98 595 100 c 1
 482 280 l 1
 380 121 l 2
 376 114 373 111 373 105 c 1
 378 93 393 77 421 76 c 1
 421 50 l 1
 396 52 354 52 328 52 c 0
 304 52 273 51 247 50 c 1
EndSplineSet
EndChar
StartChar: uF2700
Encoding: 993024 993024 1884
Width: 1000
VWidth: 1000
Flags: MW
LayerCount: 2
Fore
SplineSet
49 300 m 0
 49 384 61 495 112 605 c 0
 171 732 261 800 271 800 c 0
 277 800 281 797 281 790 c 0
 281 787 281 785 268 773 c 0
 145 648 107 474 107 300 c 0
 107 223 115 137 139 54 c 0
 162 -28 202 -106 264 -168 c 0
 281 -185 281 -187 281 -190 c 0
 281 -197 277 -200 271 -200 c 0
 261 -200 175 -135 115 -12 c 0
 60 101 49 222 49 300 c 0
720 -190 m 0
 720 -187 720 -185 733 -173 c 0
 857 -47 894 129 894 300 c 0
 894 509 837 668 739 767 c 0
 720 785 720 787 720 790 c 0
 720 796 724 800 730 800 c 0
 740 800 826 735 886 612 c 0
 941 499 952 378 952 300 c 0
 952 216 940 105 889 -5 c 0
 830 -132 740 -200 730 -200 c 0
 724 -200 720 -196 720 -190 c 0
445 355 m 1
 564 97 l 1
 571 81 595 77 615 76 c 1
 627 77 635 78 639 80 c 1
 646 84 647 93 647 104 c 1
 647 509 l 1
 647 520 646 528 639 532 c 1
 633 536 600 537 585 537 c 1
 572 537 561 533 553 529 c 0
 531 521 516 511 509 496 c 2
 445 355 l 1
208 50 m 1
 208 76 l 1
 216 76 227 76 233 77 c 1
 250 79 262 83 273 89 c 0
 292 98 301 109 305 118 c 2
 390 302 l 1
 291 516 l 1
 283 534 259 537 228 537 c 1
 217 537 l 1
 217 563 l 1
 243 561 287 560 310 560 c 0
 338 560 389 561 414 563 c 1
 414 537 l 1
 390 536 369 526 369 519 c 1
 369 517 372 512 373 510 c 1
 429 388 l 1
 477 492 l 2
 481 500 483 502 483 508 c 1
 478 523 461 536 436 537 c 1
 436 563 l 1
 463 561 501 560 529 560 c 0
 549 560 653 560 681 560 c 0
 709 560 767 561 792 563 c 1
 792 537 l 1
 778 537 l 1
 754 537 727 535 721 530 c 1
 717 526 716 519 716 509 c 1
 716 104 l 1
 716 93 717 86 723 82 c 1
 729 78 756 76 778 76 c 1
 792 76 l 1
 792 50 l 1
 767 52 709 52 681 52 c 0
 653 52 574 52 545 52 c 0
 517 52 465 52 440 50 c 1
 440 76 l 1
 464 77 485 87 485 94 c 1
 485 96 484 98 483 100 c 1
 405 269 l 1
 337 121 l 2
 334 113 331 111 331 105 c 1
 336 93 348 77 376 76 c 1
 376 50 l 1
 351 52 312 52 286 52 c 0
 262 52 234 51 208 50 c 1
EndSplineSet
EndChar
StartChar: uF2701
Encoding: 993025 993025 1885
Width: 1000
VWidth: 1000
Flags: MW
LayerCount: 2
Fore
SplineSet
49 300 m 0
 49 384 61 495 112 605 c 0
 171 732 261 800 271 800 c 0
 277 800 281 797 281 790 c 0
 281 787 281 785 268 773 c 0
 145 648 107 474 107 300 c 0
 107 223 115 137 139 54 c 0
 162 -28 202 -106 264 -168 c 0
 281 -185 281 -187 281 -190 c 0
 281 -197 277 -200 271 -200 c 0
 261 -200 175 -135 115 -12 c 0
 60 101 49 222 49 300 c 0
720 -190 m 0
 720 -187 720 -185 733 -173 c 0
 857 -47 894 129 894 300 c 0
 894 509 837 668 739 767 c 0
 720 785 720 787 720 790 c 0
 720 796 724 800 730 800 c 0
 740 800 826 735 886 612 c 0
 941 499 952 378 952 300 c 0
 952 216 940 105 889 -5 c 0
 830 -132 740 -200 730 -200 c 0
 724 -200 720 -196 720 -190 c 0
630 104 m 1
 630 93 631 86 637 82 c 1
 641 80 651 76 660 76 c 1
 667 76 678 78 681 80 c 1
 688 84 689 93 689 104 c 1
 689 509 l 1
 689 520 688 528 681 532 c 1
 678 534 667 536 660 536 c 1
 650 536 639 534 636 530 c 1
 632 526 630 519 630 509 c 1
 630 104 l 1
402 355 m 1
 518 97 l 1
 523 85 532 77 543 77 c 1
 546 77 551 79 553 80 c 1
 560 84 561 93 561 104 c 1
 561 509 l 1
 561 520 560 528 553 532 c 1
 551 533 546 535 542 535 c 1
 527 535 516 531 505 528 c 0
 483 520 471 510 464 495 c 2
 402 355 l 1
171 50 m 1
 171 76 l 1
 179 76 188 76 194 77 c 1
 211 79 222 83 233 89 c 0
 252 98 259 110 265 118 c 2
 347 302 l 1
 251 516 l 1
 240 533 222 537 191 537 c 1
 180 537 l 1
 180 563 l 1
 206 561 247 560 270 560 c 0
 298 560 349 561 374 563 c 1
 374 537 l 1
 350 536 329 526 329 519 c 1
 329 517 332 512 333 510 c 1
 386 390 l 1
 432 492 l 2
 436 500 438 502 438 508 c 1
 433 523 421 536 396 537 c 1
 396 563 l 1
 423 561 455 560 483 560 c 0
 503 560 695 560 723 560 c 0
 751 560 804 561 829 563 c 1
 829 537 l 1
 814 537 l 1
 790 537 770 535 764 530 c 1
 760 526 758 519 758 509 c 1
 758 104 l 1
 758 93 759 86 765 82 c 1
 771 78 792 76 814 76 c 1
 829 76 l 1
 829 50 l 1
 804 52 751 52 723 52 c 0
 695 52 529 52 500 52 c 0
 472 52 422 52 397 50 c 1
 397 76 l 1
 421 77 440 87 440 94 c 1
 440 96 439 98 438 100 c 1
 363 266 l 1
 298 121 l 2
 295 113 291 111 291 105 c 1
 296 93 309 77 337 76 c 1
 337 50 l 1
 312 52 272 52 246 52 c 0
 222 52 197 51 171 50 c 1
EndSplineSet
Colour: ffff
EndChar
StartChar: uF2702
Encoding: 993026 993026 1886
Width: 1000
VWidth: 1000
Flags: MW
LayerCount: 2
Fore
SplineSet
49 300 m 0
 49 384 61 495 112 605 c 0
 171 732 261 800 271 800 c 0
 277 800 281 797 281 790 c 0
 281 787 281 785 268 773 c 0
 145 648 107 474 107 300 c 0
 107 223 115 137 139 54 c 0
 162 -28 202 -106 264 -168 c 0
 281 -185 281 -187 281 -190 c 0
 281 -197 277 -200 271 -200 c 0
 261 -200 175 -135 115 -12 c 0
 60 101 49 222 49 300 c 0
720 -190 m 0
 720 -187 720 -185 733 -173 c 0
 857 -47 894 129 894 300 c 0
 894 509 837 668 739 767 c 0
 720 785 720 787 720 790 c 0
 720 796 724 800 730 800 c 0
 740 800 826 735 886 612 c 0
 941 499 952 378 952 300 c 0
 952 216 940 105 889 -5 c 0
 830 -132 740 -200 730 -200 c 0
 724 -200 720 -196 720 -190 c 0
663 104 m 1
 663 93 664 86 670 82 c 1
 676 78 700 77 706 81 c 1
 713 85 714 93 714 104 c 1
 714 509 l 1
 714 520 713 529 706 533 c 1
 700 537 675 535 669 530 c 1
 665 526 663 519 663 509 c 1
 663 104 l 1
552 104 m 1
 552 93 553 86 559 82 c 1
 565 78 589 77 595 81 c 1
 602 85 602 93 602 104 c 1
 602 509 l 1
 602 520 602 529 595 533 c 1
 589 537 564 535 558 530 c 1
 554 526 552 519 552 509 c 1
 552 104 l 1
368 355 m 1
 467 98 l 1
 475 78 482 81 482 81 c 1
 488 86 491 93 491 104 c 1
 491 509 l 1
 491 520 490 527 483 532 c 1
 483 532 469 532 460 530 c 1
 453 529 444 525 439 522 c 0
 431 516 423 507 419 495 c 2
 368 355 l 1
169 50 m 1
 169 76 l 1
 177 76 185 76 191 77 c 1
 198 78 217 84 223 87 c 0
 231 91 243 101 249 118 c 2
 317 301 l 1
 235 516 l 1
 228 535 220 537 189 537 c 1
 178 537 l 1
 178 563 l 1
 204 561 231 560 254 560 c 0
 282 560 308 561 333 563 c 1
 333 537 l 1
 309 536 305 531 305 524 c 1
 305 522 307 512 308 510 c 1
 352 397 l 1
 387 492 l 2
 390 500 392 508 392 515 c 1
 392 530 390 536 365 537 c 1
 365 563 l 1
 392 561 410 560 438 560 c 0
 458 560 712 561 740 561 c 0
 768 561 806 561 831 563 c 1
 831 538 l 1
 817 538 l 1
 793 538 786 535 780 530 c 1
 776 526 774 519 774 509 c 1
 774 104 l 1
 774 93 775 86 781 82 c 1
 787 78 795 76 817 76 c 1
 831 76 l 1
 831 50 l 1
 806 52 768 53 740 53 c 0
 712 53 483 52 454 52 c 0
 426 52 389 52 364 50 c 1
 364 76 l 1
 388 77 395 81 395 88 c 1
 395 90 393 98 392 100 c 1
 332 259 l 1
 282 121 l 2
 279 113 275 105 275 99 c 1
 275 87 283 76 306 76 c 1
 306 50 l 1
 281 52 256 52 230 52 c 0
 206 52 195 51 169 50 c 1
EndSplineSet
EndChar
StartChar: uF2704
Encoding: 993028 993028 1888
Width: 1000
VWidth: 1000
Flags: MW
LayerCount: 2
Fore
SplineSet
49 300 m 0
 49 384 61 495 112 605 c 0
 171 732 261 800 271 800 c 0
 277 800 281 797 281 790 c 0
 281 787 281 785 268 773 c 0
 145 648 107 474 107 300 c 0
 107 223 115 137 139 54 c 0
 162 -28 202 -106 264 -168 c 0
 281 -185 281 -187 281 -190 c 0
 281 -197 277 -200 271 -200 c 0
 261 -200 175 -135 115 -12 c 0
 60 101 49 222 49 300 c 0
720 -190 m 0
 720 -187 720 -185 733 -173 c 0
 857 -47 894 129 894 300 c 0
 894 509 837 668 739 767 c 0
 720 785 720 787 720 790 c 0
 720 796 724 800 730 800 c 0
 740 800 826 735 886 612 c 0
 941 499 952 378 952 300 c 0
 952 216 940 105 889 -5 c 0
 830 -132 740 -200 730 -200 c 0
 724 -200 720 -196 720 -190 c 0
161 50 m 1
 161 76 l 1
 169 76 173 76 179 77 c 1
 196 79 201 83 212 89 c 0
 231 98 240 109 244 118 c 2
 323 303 l 1
 230 516 l 1
 222 534 211 537 180 537 c 1
 169 537 l 1
 169 563 l 1
 195 561 226 560 249 560 c 0
 277 560 320 561 345 563 c 1
 345 537 l 1
 321 536 302 528 302 521 c 1
 302 519 304 512 305 510 c 1
 360 388 l 1
 405 492 l 2
 408 500 410 508 410 514 c 1
 406 529 392 536 367 537 c 1
 367 563 l 1
 394 561 428 560 456 560 c 0
 476 560 508 560 540 560 c 0
 567 560 615 561 640 563 c 1
 640 537 l 1
 626 537 585 537 585 520 c 1
 585 519 586 518 588 509 c 1
 671 161 l 1
 752 491 l 2
 753 496 756 500 756 505 c 0
 756 521 736 536 706 537 c 1
 706 563 l 1
 726 562 762 560 784 560 c 0
 802 560 816 562 839 563 c 1
 839 537 l 1
 835 537 828 536 825 536 c 1
 791 532 785 516 779 494 c 2
 670 51 l 2
 667 39 662 36 650 36 c 0
 639 36 635 39 630 53 c 2
 514 514 l 1
 511 525 507 534 498 534 c 1
 488 534 474 531 468 528 c 0
 450 520 443 509 437 495 c 2
 376 352 l 1
 490 97 l 1
 499 77 512 76 541 76 c 1
 552 76 l 1
 552 50 l 1
 524 52 501 52 472 52 c 0
 444 52 394 52 369 50 c 1
 369 76 l 1
 393 77 414 81 414 88 c 1
 414 90 412 98 411 100 c 1
 339 266 l 1
 277 121 l 2
 274 113 271 106 271 100 c 1
 275 88 287 77 315 76 c 1
 315 50 l 1
 290 52 251 52 225 52 c 0
 201 52 187 51 161 50 c 1
EndSplineSet
Colour: ffff
EndChar
StartChar: uF2706
Encoding: 993030 993030 1890
Width: 1000
Flags: MW
LayerCount: 2
Fore
SplineSet
49 300 m 0
 49 384 61 495 112 605 c 0
 171 732 261 800 271 800 c 0
 277 800 281 797 281 790 c 0
 281 787 281 785 268 773 c 0
 145 648 107 474 107 300 c 0
 107 223 115 137 139 54 c 0
 162 -28 202 -106 264 -168 c 0
 281 -185 281 -187 281 -190 c 0
 281 -197 277 -200 271 -200 c 0
 261 -200 175 -135 115 -12 c 0
 60 101 49 222 49 300 c 0
720 -190 m 0
 720 -187 720 -185 733 -173 c 0
 857 -47 894 129 894 300 c 0
 894 509 837 668 739 767 c 0
 720 785 720 787 720 790 c 0
 720 796 724 800 730 800 c 0
 740 800 826 735 886 612 c 0
 941 499 952 378 952 300 c 0
 952 216 940 105 889 -5 c 0
 830 -132 740 -200 730 -200 c 0
 724 -200 720 -196 720 -190 c 0
336 50 m 1
 336 76 l 1
 357 76 378 75 384 80 c 1
 388 84 390 91 390 103 c 1
 390 310 l 2
 390 345 384 349 339 349 c 1
 339 375 l 1
 442 383 l 1
 442 102 l 1
 442 91 443 85 447 81 c 1
 452 76 470 76 490 76 c 1
 490 50 l 1
 466 51 439 52 415 52 c 0
 396 52 358 51 336 50 c 1
364 512 m 0
 364 534 382 556 405 556 c 0
 427 556 446 538 446 512 c 0
 446 486 427 469 405 469 c 0
 382 469 364 489 364 512 c 0
510 50 m 1
 510 76 l 1
 531 76 552 75 558 80 c 1
 562 84 564 91 564 103 c 1
 564 310 l 2
 564 345 558 349 513 349 c 1
 513 375 l 1
 616 383 l 1
 616 102 l 1
 616 91 616 85 620 81 c 1
 625 76 644 76 664 76 c 1
 664 50 l 1
 640 51 613 52 589 52 c 0
 570 52 532 51 510 50 c 1
538 512 m 0
 538 534 556 556 579 556 c 0
 601 556 619 538 619 512 c 0
 619 486 601 469 579 469 c 0
 556 469 538 489 538 512 c 0
EndSplineSet
Colour: ffff
EndChar
StartChar: uF2707
Encoding: 993031 993031 1891
Width: 1000
VWidth: 1000
Flags: MW
LayerCount: 2
Fore
SplineSet
49 300 m 0
 49 384 61 495 112 605 c 0
 171 732 261 800 271 800 c 0
 277 800 281 797 281 790 c 0
 281 787 281 785 268 773 c 0
 145 648 107 474 107 300 c 0
 107 223 115 137 139 54 c 0
 162 -28 202 -106 264 -168 c 0
 281 -185 281 -187 281 -190 c 0
 281 -197 277 -200 271 -200 c 0
 261 -200 175 -135 115 -12 c 0
 60 101 49 222 49 300 c 0
720 -190 m 0
 720 -187 720 -185 733 -173 c 0
 857 -47 894 129 894 300 c 0
 894 509 837 668 739 767 c 0
 720 785 720 787 720 790 c 0
 720 796 724 800 730 800 c 0
 740 800 826 735 886 612 c 0
 941 499 952 378 952 300 c 0
 952 216 940 105 889 -5 c 0
 830 -132 740 -200 730 -200 c 0
 724 -200 720 -196 720 -190 c 0
250 50 m 1
 250 76 l 1
 271 76 292 75 298 80 c 1
 302 84 303 91 303 103 c 1
 303 310 l 2
 303 345 297 349 252 349 c 1
 252 375 l 1
 355 383 l 1
 355 102 l 1
 355 91 356 85 360 81 c 1
 365 76 383 76 403 76 c 1
 403 50 l 1
 379 51 352 52 328 52 c 0
 309 52 272 51 250 50 c 1
278 512 m 0
 278 534 295 556 318 556 c 0
 340 556 359 538 359 512 c 0
 359 486 340 469 318 469 c 0
 295 469 278 489 278 512 c 0
423 50 m 1
 423 76 l 1
 444 76 465 75 471 80 c 1
 475 84 477 91 477 103 c 1
 477 310 l 2
 477 345 471 349 426 349 c 1
 426 375 l 1
 529 383 l 1
 529 102 l 1
 529 91 529 85 533 81 c 1
 538 76 557 76 577 76 c 1
 577 50 l 1
 553 51 526 52 502 52 c 0
 483 52 445 51 423 50 c 1
451 512 m 0
 451 534 469 556 492 556 c 0
 514 556 532 538 532 512 c 0
 532 486 514 469 492 469 c 0
 469 469 451 489 451 512 c 0
597 50 m 1
 597 76 l 1
 618 76 639 75 645 80 c 1
 649 84 650 91 650 103 c 1
 650 310 l 2
 650 345 645 349 600 349 c 1
 600 375 l 1
 702 383 l 1
 702 102 l 1
 702 91 703 85 707 81 c 1
 712 76 730 76 750 76 c 1
 750 50 l 1
 726 51 700 52 676 52 c 0
 657 52 619 51 597 50 c 1
625 512 m 0
 625 534 642 556 665 556 c 0
 687 556 706 538 706 512 c 0
 706 486 687 469 665 469 c 0
 642 469 625 489 625 512 c 0
EndSplineSet
EndChar
StartChar: uF2708
Encoding: 993032 993032 1892
Width: 1000
VWidth: 1000
Flags: MW
LayerCount: 2
Fore
SplineSet
49 300 m 0
 49 384 61 495 112 605 c 0
 171 732 261 800 271 800 c 0
 277 800 281 797 281 790 c 0
 281 787 281 785 268 773 c 0
 145 648 107 474 107 300 c 0
 107 223 115 137 139 54 c 0
 162 -28 202 -106 264 -168 c 0
 281 -185 281 -187 281 -190 c 0
 281 -197 277 -200 271 -200 c 0
 261 -200 175 -135 115 -12 c 0
 60 101 49 222 49 300 c 0
720 -190 m 0
 720 -187 720 -185 733 -173 c 0
 857 -47 894 129 894 300 c 0
 894 509 837 668 739 767 c 0
 720 785 720 787 720 790 c 0
 720 796 724 800 730 800 c 0
 740 800 826 735 886 612 c 0
 941 499 952 378 952 300 c 0
 952 216 940 105 889 -5 c 0
 830 -132 740 -200 730 -200 c 0
 724 -200 720 -196 720 -190 c 0
273 50 m 1
 273 76 l 1
 294 76 315 75 321 80 c 1
 325 84 326 91 326 103 c 1
 326 310 l 2
 326 345 321 349 276 349 c 1
 276 375 l 1
 378 383 l 1
 378 102 l 1
 378 91 379 85 383 81 c 1
 388 76 406 76 426 76 c 1
 426 50 l 1
 402 51 376 52 352 52 c 0
 333 52 295 51 273 50 c 1
301 512 m 0
 301 534 319 556 342 556 c 0
 364 556 382 538 382 512 c 0
 382 486 364 469 342 469 c 0
 319 469 301 489 301 512 c 0
432 350 m 1
 432 375 l 1
 455 374 483 373 502 373 c 0
 515 373 560 374 581 375 c 1
 581 350 l 1
 571 350 541 350 541 334 c 1
 541 333 542 332 544 324 c 1
 595 132 l 1
 642 306 l 2
 644 314 646 316 646 322 c 0
 646 335 636 349 613 350 c 1
 613 375 l 1
 625 374 658 373 675 373 c 0
 691 373 711 373 727 375 c 1
 727 350 l 1
 681 349 669 322 665 306 c 2
 597 58 l 2
 594 48 590 43 580 43 c 0
 571 43 568 46 563 58 c 2
 486 327 l 1
 484 337 480 342 474 345 c 1
 468 348 450 350 432 350 c 1
EndSplineSet
EndChar
StartChar: uF270A
Encoding: 993034 993034 1894
Width: 1000
Flags: MW
LayerCount: 2
Fore
SplineSet
49 300 m 0
 49 384 61 495 112 605 c 0
 171 732 261 800 271 800 c 0
 277 800 281 797 281 790 c 0
 281 787 281 785 268 773 c 0
 145 648 107 474 107 300 c 0
 107 223 115 137 139 54 c 0
 162 -28 202 -106 264 -168 c 0
 281 -185 281 -187 281 -190 c 0
 281 -197 277 -200 271 -200 c 0
 261 -200 175 -135 115 -12 c 0
 60 101 49 222 49 300 c 0
720 -190 m 0
 720 -187 720 -185 733 -173 c 0
 857 -47 894 129 894 300 c 0
 894 509 837 668 739 767 c 0
 720 785 720 787 720 790 c 0
 720 796 724 800 730 800 c 0
 740 800 826 735 886 612 c 0
 941 499 952 378 952 300 c 0
 952 216 940 105 889 -5 c 0
 830 -132 740 -200 730 -200 c 0
 724 -200 720 -196 720 -190 c 0
266 350 m 1
 266 375 l 1
 289 374 317 373 336 373 c 0
 349 373 394 374 415 375 c 1
 415 350 l 1
 405 350 375 350 375 334 c 1
 375 333 376 332 378 324 c 1
 429 132 l 1
 476 306 l 2
 478 314 480 316 480 322 c 0
 480 335 469 349 446 350 c 1
 446 375 l 1
 458 374 491 373 508 373 c 0
 524 373 545 373 561 375 c 1
 561 350 l 1
 515 349 503 322 499 306 c 2
 431 58 l 2
 428 48 423 43 413 43 c 0
 404 43 402 46 397 58 c 2
 320 327 l 1
 318 337 313 342 307 345 c 1
 301 348 284 350 266 350 c 1
581 50 m 1
 581 76 l 1
 602 76 623 75 629 80 c 1
 633 84 634 91 634 103 c 1
 634 310 l 2
 634 345 628 349 583 349 c 1
 583 375 l 1
 686 383 l 1
 686 102 l 1
 686 91 687 85 691 81 c 1
 696 76 714 76 734 76 c 1
 734 50 l 1
 710 51 683 52 659 52 c 0
 640 52 603 51 581 50 c 1
609 512 m 0
 609 534 626 556 649 556 c 0
 671 556 690 538 690 512 c 0
 690 486 671 469 649 469 c 0
 626 469 609 489 609 512 c 0
EndSplineSet
Colour: ffff
EndChar
